<mxfile host="app.diagrams.net" modified="2023-12-11T19:09:16.255Z" agent="Mozilla/5.0 (Windows NT 10.0; Win64; x64) AppleWebKit/537.36 (KHTML, like Gecko) Chrome/107.0.0.0 Safari/537.36" etag="io2mrKM7Dh-K8oFE3OTl" version="22.1.7" type="device">
  <diagram name="PÃ¡gina-1" id="p2QyMFMl1q1W7C97Yxoy">
    <mxGraphModel dx="1221" dy="631" grid="0" gridSize="10" guides="1" tooltips="1" connect="1" arrows="1" fold="1" page="1" pageScale="1" pageWidth="827" pageHeight="1169" math="0" shadow="0">
      <root>
        <mxCell id="0" />
        <mxCell id="1" parent="0" />
        <mxCell id="h0CZxOei0WRWpdQTVpDq-21" value="" style="shape=image;imageAspect=0;aspect=fixed;verticalLabelPosition=bottom;verticalAlign=top;image=data:image/jpeg,/9j/4AAQSkZJRgABAQEAkACQAAD/4QAiRXhpZgAATU0AKgAAAAgAAQESAAMAAAABAAEAAAAAAAD/4S0IaHR0cDovL25zLmFkb2JlLmNvbS94YXAvMS4wLwA8P3hwYWNrZXQgYmVnaW49Iu+7vyIgaWQ9Ilc1TTBNcENlaGlIenJlU3pOVGN6a2M5ZCI/Pg0KPHg6eG1wbWV0YSB4bWxuczp4PSJhZG9iZTpuczptZXRhLyIgeDp4bXB0az0iQWRvYmUgWE1QIENvcmUgNS42LWMxNDUgNzkuMTYzNDk5LCAyMDE4LzA4LzEzLTE2OjQwOjIyICAgICAgICAiPg0KCTxyZGY6UkRGIHhtbG5zOnJkZj0iaHR0cDovL3d3dy53My5vcmcvMTk5OS8wMi8yMi1yZGYtc3ludGF4LW5zIyI+DQoJCTxyZGY6RGVzY3JpcHRpb24gcmRmOmFib3V0PSIiIHhtbG5zOnhtcD0iaHR0cDovL25zLmFkb2JlLmNvbS94YXAvMS4wLyIgeG1sbnM6eG1wR0ltZz0iaHR0cDovL25zLmFkb2JlLmNvbS94YXAvMS4wL2cvaW1nLyIgeG1sbnM6eG1wVFBnPSJodHRwOi8vbnMuYWRvYmUuY29tL3hhcC8xLjAvdC9wZy8iIHhtbG5zOnN0RGltPSJodHRwOi8vbnMuYWRvYmUuY29tL3hhcC8xLjAvc1R5cGUvRGltZW5zaW9ucyMiIHhtbG5zOnhtcEc9Imh0dHA6Ly9ucy5hZG9iZS5jb20veGFwLzEuMC9nLyIgeG1sbnM6ZGM9Imh0dHA6Ly9wdXJsLm9yZy9kYy9lbGVtZW50cy8xLjEvIj4NCgkJCTx4bXA6Q3JlYXRvclRvb2w+QWRvYmUgSWxsdXN0cmF0b3IgQ0MgMjMuMCAoV2luZG93cyk8L3htcDpDcmVhdG9yVG9vbD4NCgkJCTx4bXA6Q3JlYXRlRGF0ZT4yMDIyLTExLTE3VDE2OjU4OjM2KzA1OjAwPC94bXA6Q3JlYXRlRGF0ZT4NCgkJCTx4bXA6VGh1bWJuYWlscz4NCgkJCQk8cmRmOkFsdD4NCgkJCQkJPHJkZjpsaSByZGY6cGFyc2VUeXBlPSJSZXNvdXJjZSI+DQoJCQkJCQk8eG1wR0ltZzp3aWR0aD4yNTY8L3htcEdJbWc6d2lkdGg+DQoJCQkJCQk8eG1wR0ltZzpoZWlnaHQ+MjU2PC94bXBHSW1nOmhlaWdodD4NCgkJCQkJCTx4bXBHSW1nOmZvcm1hdD5KUEVHPC94bXBHSW1nOmZvcm1hdD4NCgkJCQkJCTx4bXBHSW1nOmltYWdlPi85ai80QUFRU2taSlJnQUJBZ0VBU0FCSUFBRC83UUFzVUdodmRHOXphRzl3SURNdU1BQTRRa2xOQSswQUFBQUFBQkFBU0FBQUFBRUENCkFRQklBQUFBQVFBQi8rNEFEa0ZrYjJKbEFHVEFBQUFBQWYvYkFJUUFCZ1FFQkFVRUJnVUZCZ2tHQlFZSkN3Z0dCZ2dMREFvS0N3b0sNCkRCQU1EQXdNREF3UURBNFBFQThPREJNVEZCUVRFeHdiR3hzY0h4OGZIeDhmSHg4Zkh3RUhCd2NOREEwWUVCQVlHaFVSRlJvZkh4OGYNCkh4OGZIeDhmSHg4Zkh4OGZIeDhmSHg4Zkh4OGZIeDhmSHg4Zkh4OGZIeDhmSHg4Zkh4OGZIeDhmSHg4Zi84QUFFUWdCQUFFQUF3RVINCkFBSVJBUU1SQWYvRUFhSUFBQUFIQVFFQkFRRUFBQUFBQUFBQUFBUUZBd0lHQVFBSENBa0tDd0VBQWdJREFRRUJBUUVBQUFBQUFBQUENCkFRQUNBd1FGQmdjSUNRb0xFQUFDQVFNREFnUUNCZ2NEQkFJR0FuTUJBZ01SQkFBRklSSXhRVkVHRTJFaWNZRVVNcEdoQnhXeFFpUEINClV0SGhNeFppOENSeWd2RWxRelJUa3FLeVkzUENOVVFuazZPek5oZFVaSFREMHVJSUpvTUpDaGdaaEpSRlJxUzBWdE5WS0JyeTQvUEUNCjFPVDBaWFdGbGFXMXhkWGw5V1oyaHBhbXRzYlc1dlkzUjFkbmQ0ZVhwN2ZIMStmM09FaFlhSGlJbUtpNHlOam8rQ2s1U1ZscGVZbVoNCnFibkoyZW41S2pwS1dtcDZpcHFxdXNyYTZ2b1JBQUlDQVFJREJRVUVCUVlFQ0FNRGJRRUFBaEVEQkNFU01VRUZVUk5oSWdaeGdaRXkNCm9iSHdGTUhSNFNOQ0ZWSmljdkV6SkRSRGdoYVNVeVdpWTdMQ0IzUFNOZUpFZ3hkVWt3Z0pDaGdaSmpaRkdpZGtkRlUzOHFPend5Z3ANCjArUHpoSlNrdE1UVTVQUmxkWVdWcGJYRjFlWDFSbFptZG9hV3ByYkcxdWIyUjFkbmQ0ZVhwN2ZIMStmM09FaFlhSGlJbUtpNHlOam8NCitEbEpXV2w1aVptcHVjblo2ZmtxT2twYWFucUttcXE2eXRycSt2L2FBQXdEQVFBQ0VRTVJBRDhBOVU0cTdGWFlxN0ZYWXE3RlhZcTcNCkZYWXE3RlhZcTdGWFlxN0ZYWXE3RlhZcTdGWFlxN0ZYWXE3RlhZcTdGWFlxN0ZYWXE3RlhZcTdGWFlxN0ZYWXE3RlhZcTdGWFlxN0YNClhZcTdGWFlxN0ZYWXE3RlhZcTdGWFlxN0ZYWXE3RlhZcTdGWFlxN0ZYWXE3RlhZcTdGWFlxN0ZYWXE3RlhZcTdGWFlxN0ZYWXE3RlgNCllxN0ZYWXE3RlhZcTdGWFlxN0ZYWXE3RlhZcTdGWFlxN0ZYWXE3RlhZcTdGWFlxN0ZYWXE3RlhZcTdGWFlxN0ZYWXE3RlhZcTdGWFkNCnE3RlhZcTdGWFlxN0ZYWXE3RlhZcTdGWFlxN0ZYWXE3RlhZcTdGWFlxN0ZYWXE3RlhZcTdGWFlxN0ZYWXE3RlhZcTdGWFlxN0ZYWXENCjdGWFlxN0ZYWXE3RlhZcTdGWFlxN0ZYWXErVC9BUG5OUHp6cVVlcGFQNU5zN3A0ck5yWTMrcFF4c1FKVEpJWTRWa3AxQ2VremNUNDENCjhNVmZMZUt1eFYyS3V4VjJLdXhWMkt1eFY5Ui84NFYrZU5TZlU5WThtM2QwOHRpTFlhaHAwRWpFaUpvNUZqbVdLcDJEK3NyRmZhdmoNClZWOVk0cTdGWFlxN0ZYWXE3RlhZcTdGWFlxN0ZYWXE3RlhZcTdGWFlxN0ZYWXE3RlhZcTdGWFlxN0ZYNThmOEFPU1BtQWEzK2MzbU8NClZINVEyVXlhZkVLMTQvVkkxaWtIL0kxWE9Ldk1zVmRpcnNWZGlyc1ZkaXJzVmRpcjB6L25HL3pCK2hQem04dVNzL0dHOW1iVDVSMmINCjYyalJSai9rYXlZcS9RakZYWXE3RlhZcTdGWFlxN0ZYWXE3RlhZcTdGWFlxN0ZYWXE3RlhZcTdGWFlxN0ZYWXE3RlhFa0FrQ3A3REYNClh4WHEzL09KSDV5YW5xdDVxVnhQcFJ1TDZlVzVtUDFtWDdjemwyLzNUNHRpcUUvNkUyL056L2YybGY4QVNUTC9BTlVjVmQvMEp0K2INCm4rL3RLLzZTWmY4QXFqaXJ2K2hOdnpjLzM5cFgvU1RML3dCVWNWZC8wSnQrYm4rL3RLLzZTWmYrcU9LdS93Q2hOdnpjL3dCL2FWLzANCmt5LzlVY1ZkL3dCQ2JmbTUvdjdTditrbVgvcWppcnYraE52emMvMzlwWC9TVEwvMVJ4VjMvUW0zNXVmNyswci9BS1NaZitxT0tvdlMNCmYrY1NQemswelZiUFVyZWZTaGNXTThWekNmck12MjRYRHIvdW54WEZYMm9DU0FTS0h1TVZkaXJzVmRpcnNWZGlyc1ZkaXJzVmRpcnMNClZkaXJzVmRpcnNWZGlyc1ZkaXJzVmRpcnNWZGlyNGcvNXlCdS93QTFmSUg1ZzNWbmJlYnRkWFE5U3JlNk8zNlN1K0t4T3g1dy93QjUNCi91bDZyVHJ4NG52aXJ6WC9BSld4K2FmL0FGT1d1ZjhBY1N2UCtxbUt1LzVXeCthZi9VNWE1LzNFcnovcXBpcjZOLzV5VzgzK2EyL0wNCnJ5TDUwOHVhM2Y2VkJxVVlGNStqN3FhMlNScnkzUzRpRWdpWkJWUFNrQXI3NHErY3YrVnNmbW4vQU5UbHJuL2NTdlArcW1LdS93Q1YNCnNmbW4vd0JUbHJuL0FIRXJ6L3FwaXI2TS93Q2NhZk4vbXRmeTc4OWVkZk1ldDMrcXdhYkdWcy8waGRUWEtSdmFXNzNFbkFTczREUDYNCnNZTk91Mkt2blA4QTVXeCthZjhBMU9XdWY5eEs4LzZxWXE3L0FKV3grYWYvQUZPV3VmOEFjU3ZQK3FtS3ZTLytjZnJyODF2UC93Q1kNCkZyYVhQbTNYVzBQVGFYdXNOK2tyemlZa2I0SWErcDFtZWkwNjhlUkhURlgyOWlyc1ZkaXJzVmRpcnNWZGlyc1ZkaXJzVmRpcnNWZGkNCnJzVmRpcnNWZGlyc1ZkaXJzVmRpcnNWZVlmOEFPUS81WXI1OS9MNjVodFkrV3U2VHl2ZEpJSHhNNnIrOGcvNTdJS0QvQUN1SjdZcS8NClBzZ2drRVVJMklQV3VLdFlxK29vSytiditjTVpFSDd5ODhzekg2UHF0eUgvQU9GdGJqRlh5N2lyc1ZmVU0xZktQL09HTWFIOTNlZVoNCnBoOUl1cmt1UCtDdExmRlh5OWlyWUJKQUFxVHNBT3RjVmZvSi93QTQ4ZmxpdmtMOHZyYUc2ajQ2N3EzRzkxWWtmRXJzdjd1RC9uaWgNCm9mOEFLNUh2aXIwL0ZYWXE3RlhZcTdGWFlxN0ZYWXE3RlhZcTdGWFlxN0ZYWXE3RlhZcTdGWFlxN0ZYWXE3RlhZcTdGWHc1L3psRisNClUxejVhOCtQcldrMmp0b3ZtRXZjb3NLRmxodXExdUk2S0RRTVQ2aS82eEEremlyeG45RTZyL3l4ei84QUl0LzZZcSttditjVGJlNDENCmJ5WjU4OGtYOFR3dzM4SWVFU293Qit0d1NXMHgzSDdQQ1BGWHpQSm91c1J5Tkc5ak9yb1NyS1lucUNEUWpwaXJvOUYxaVNSWTBzWjINCmR5RlZSRTlTU2FBZE1WZlMvd0R6bGpiM0drZVRQSWZrZXdoZWFIVDRPYzNwb3pBZlZJSTdhRTdWNjhwTVZmTTM2SjFYL2xqbi93Q1INCmIvMHhWN04vemk1K1UxeDVsOCtMcldyMmpwb3ZsNHBjc3N5RUxOZDEvd0JIam8xS2hTREkzK3FBZnRZcSs0OFZkaXJzVmRpcnNWZGkNCnJzVmRpcnNWZGlyc1ZkaXJzVmRpcnNWZGlyc1ZkaXJzVmRpcnNWZGlyc1ZkaXJFUHpjODhYWGtiOHZkVzgwMmx0SGVYR25mVitGdEsNCnhWRzllNWlnTlN1K3dscmlyNXYvQU9oM3ZOWC9BRkxWai95T214VjMvUTczbXIvcVdySC9BSkhUWXE3L0FLSGU4MWY5UzFZLzhqcHMNClZkLzBPOTVxL3dDcGFzZitSMDJLdS82SGU4MWY5UzFZL3dESTZiRlhmOUR2ZWF2K3Bhc2YrUjAyS3ZwRDhvL1BGMTU1L0wzU2ZOTjMNCmJSMmR4cVAxam5iUk1XUmZRdVpZQlF0dnVJcTRxeS9GWFlxN0ZYWXE3RlhZcTdGWFlxN0ZYWXE3RlhZcTdGWFlxN0ZYWXE3RlhZcTcNCkZYWXE3RlhZcTdGWDVxZm1mNVQxenlwNTYxYlJkYW1rdXIyQ1lzTDZZc3pYRVVueFJ6OG1xVzVvUlhmWTFIYkZXTFlxN0ZYWXE3RlgNCllxN0ZYWXE3RldWZmxmNVUxenpWNTcwalJkRmxrdGIyYVlPYjJJc3JXOFVmeFNUOGw2Y0ZCcDRtZzc0cS9TckZYWXE3RlhZcTdGWFkNCnE3RlhZcTdGWFlxN0ZYWXE3RlhZcTdGWFlxN0ZYWXE3RlhZcTdGWFlxdy84MC9NVTNsWHloZStaN2J5L0g1Z2swNExKZFdyU0xDNHQNCmdmM2tpdVlwNituWGtSVDdOVFhiRlh6My93QkRvNlYvNWJ5RC9wUFQvc2l4VjMvUTZPbGYrVzhnL3dDazlQOEFzaXhWMy9RNk9sZisNClc4Zy82VDAvN0lzVmQvME9qcFgvQUpieUQvcFBUL3NpeFYzL0FFT2pwWC9sdklQK2s5UCt5TEZYZjlEbzZWLzVieUQvQUtUMC93Q3kNCkxGWGY5RG82Vi81YnlEL3BQVC9zaXhWMy9RNk9sZjhBbHZJUCtrOVAreUxGWDBIK1ZmbUtYelg1UXN2TTl6NWZqOHZ5YWlHZTF0VmsNCkV6bTNyU09RdUlvS2VwVGtCVDdORFhmRldZNHE3RlhZcTdGWFlxN0ZYWXE3RlhZcTdGWFlxN0ZYWXE3RlhZcTdGWFlxN0ZYWXE3RlgNCllxN0ZWbHhid1hFRWx2Y1JyTEJNclJ5eE9BeXNqQ2pLd094QkIzeFY4d2VZUCtjVFB5cTAzVUhGOTUyT2ppNFpwYmEwdXBMV05saUwNCkhpRk1yS3pCZW5MRlVzLzZGai9KZi95NWNIL1NSWS85Vk1WZC93QkN4L2t2L3dDWExnLzZTTEgvQUtxWXE3L29XUDhBSmY4QTh1WEINCi93QkpGai8xVXhWMy9Rc2Y1TC8rWExnLzZTTEgvcXBpcnY4QW9XUDhsLzhBeTVjSC9TUlkvd0RWVEZYZjlDeC9rdjhBK1hMZy93Q2sNCml4LzZxWXFtZmwvL0FKeE0vS3JVdFFRV1BuWTZ3TGRsbHViUzFrdFpHYUlNT1FZeE16S0c2Y3NWZlQ5dmJ3VzhFZHZieHJGQkNxeHgNClJJQXFxaWlpcW9Hd0FBMnhWZmlyc1ZkaXJzVmRpcnNWZGlyc1ZkaXJzVmRpcnNWZGlyc1ZkaXJzVmRpcnNWZGlyc1ZkaXJzVmRpcnkNClAvbkpUOHFaZlBua2N6YVpiK3Q1ajBVbTQwNVZwemxqYWduZ0grdW9ES1A1bEE3NHErSDlTOG5lYnRMdG51dFQwUFVMRzJqSVdTZTUNCnRab1kxSk5BQ3pxb0ZUdGlxVDRxN0ZYWXE3RlU0MDN5ZDV1MVMyUzYwelE5UXZyYVFsWTU3YTFtbWpZZzBJRElyQTBPMkt2dUQvbkcNCnI4cUpmSWZrZjF0VGc5SHpIclRMY2FpalU1eFJyVVFXNXAvSXBMTVA1bUk3WXE5Y3hWMkt1eFYyS3V4VjJLdXhWMkt1eFYyS3V4VjINCkt1eFYyS3V4VjJLdXhWMkt1eFYyS3V4VjJLdXhWMkt1eFY0Wi93QTVqYWdiWDhva2dCcDlmMVMyZ0lGZHdxU3o5djhBakRpcjRleFYNCjJLdXhWMkt2dUgvbkRuVURkZmxFOEJOZnFHcVhNQUJyc0dTS2Z2OEE4WnNWZTU0cTdGWFlxN0ZYWXE3RlhZcTdGWFlxN0ZYWXE3RlgNCllxN0ZYWXE3RlhZcTdGWFlxN0ZYWXE3RlhZcTdGWFlxN0ZYelAvem5CcUFUeTU1WDA2dTl4ZVhGeFRhdjdpSlUrZjhBdS9GWHlIaXINCnNWZGlyc1ZmWG4vT0Qrb0IvTG5talRxNzI5NWIzRk5xL3Y0bVQ1LzdveFY5TVlxN0ZYWXE3RlhZcTdGWFlxN0ZYWXE3RlhZcTdGWFkNCnE3RlhZcTdGWFlxN0ZYWXE3RlhZcTdGWFlxN0ZYWXE3Rlh5SC93QTV3YWdYOHgrVjlPcnRiMmR4Y1UzcCsvbFZQbC91akZYelBpcnMNClZkaXJzVmZUSC9PRCtvRlBNZm1qVHE3WEZuYjNGTjZmdUpXVDVmN3Z4VjllWXE3RlhZcTdGWFlxN0ZYWXE3RlhZcTdGWFlxN0ZYWXENCjdGWFlxN0ZYWXE3RlhZcTdGWFlxN0ZYWXE3RlhZcTdGWHc5L3ptTnFBdXZ6ZVNBRUUyT2wyMXVRS2JGbmxuM3Avd0Fac1ZlR1lxN0YNClhZcTdGWHVmL09IT29DMS9ONTRDUURmYVhjMjRCcHVWZUtmYXYvR0hGWDNEaXJzVmRpcnNWZGlyc1ZkaXJzVmRpcnNWZGlyc1ZkaXINCnNWZGlyc1ZkaXJzVmRpcnNWZGlyc1ZkaXJzVmRpcnNWZm4xL3prdnFIMTc4N2ZNMGdOVWhrZ3QxRyszbzJzVWJkYWZ0S1RpcnpERlgNCllxN0ZYWXE5UC81eG8xRDZqK2R2bG1RbWlUU1QyN0RmZjFyV1dOZWxmMm1CeFYrZ3VLdXhWMkt1eFYyS3V4VjJLdXhWMkt1eFYyS3UNCnhWMkt1eFYyS3V4VjJLdXhWMkt1eFYyS3V4VjJLdXhWMkt1eFYrYXY1cTZnTlEvTTN6WGVLYXBOcTE2WXova0M0Y0owSi9aQXhWaXUNCkt1eFYyS3V4VmxYNVZhZ05QL00zeXBlTWFKRHExa1pEL2tHNFFQMUkvWkp4VitsV0t1eFYyS3V4VjJLdXhWMkt1eFYyS3V4VjJLdXgNClYyS3V4VjJLdXhWMkt1eFYyS3V4VjJLdXhWMkt1eFYyS3JaWlVpaWVXUThZNDFMTzNnQUtrNHEvTFhVTHg3Mi91YnlUYVM1bGVaKysNCjhqRmoySGppcUh4VjJLdXhWMktvalQ3eDdLL3RyeVBlUzJsU1pPMjhiQmgyUGhpcjlTb3BVbGlTV004bzVGREkzaUNLZzRxdXhWMksNCnV4VjJLdXhWMkt1eFYyS3V4VjJLdXhWMkt1eFYyS3V4VjJLdXhWMkt1eFYyS3V4VjJLdXhWMktwQitZV29mbzd5RjVrMUN0RGFhWGUNCnpENXgyN3NPNDhQSEZYNWxZcTdGWFlxN0ZYWXE3Rlg2YS9sN3FINlI4aGVXOVFyVTNlbDJVeCtjbHVqSHVmSHh4VlA4VmRpcnNWZGkNCnJzVmRpcnNWZGlyc1ZkaXJzVmRpcnNWZGlyc1ZkaXJzVmRpcnNWZGlyc1ZkaXJzVmRpcnp2L25JYlVQcUg1TCthNTYwNTJndDY3ZjgNCmZNcVFkd2Y5K1lxL08vRlhZcTdGWFlxN0ZYWXEvUkQvQUp4NTFENi8rUy9sU2V0ZUZvYmV1My9IdEs4SFlEL2ZlS3ZSTVZkaXJzVmQNCmlyc1ZkaXJzVmRpcnNWZGlyc1ZkaXJzVmRpcnNWZGlyc1ZkaXJzVmRpcnNWZGlyc1ZkaXJ4ZjhBNXk2MUEydjVNM2NGYWZYNzIwdHkNCk45K01ucjAvNUk0cStFOFZkaXJzVmRpcnNWZGlyN3MvNXhGMUEzWDVNMmtGYS9VTDI3dHdOOXVVbnIwLzVMWXE5b3hWMkt1eFYyS3UNCnhWMkt1eFYyS3V4VjJLdXhWMkt1eFYyS3V4VjJLdXhWMkt1eFYyS3V4VjJLdXhWMkt2bkwvbk52VUFua2Z5L3AxZDdqVXpjVTJyKzQNCnQzVDUvd0M3OFZmSEdLdXhWMkt1eFYyS3V4VjlqLzhBT0Vtb0IvSS9tRFRxNzIrcGk0cHRYOS9ib256L0FOMFlxK2pjVmRpcnNWZGkNCnJzVmRpcnNWZGlyc1ZkaXJzVmRpcnNWZGlyc1ZkaXJzVmRpcnNWZGlyc1ZkaXJzVmRpcjVPLzV6ajFBdGZlVWRQQm9Jb3IyNGNiMFANCnFOQ2krMjNwbkZYeTVpcnNWZGlyc1ZkaXJzVmZVZjhBemc1cUJXKzgzYWVUVVN4V1Z3ZzNvUFRhWkc5dC9VR0t2ckhGWFlxN0ZYWXENCjdGWFlxN0ZYWXE3RlhZcTdGWFlxN0ZYWXE3RlhZcTdGWFlxN0ZYWXE3RlhZcTdGWFlxK0xmK2MxWmJoL3pMMHBHalpiZVBTSWhGSVYNCm9yc2JpY3Z4YnZRY2NWZlB1S3V4VjJLdXhWMkt1eFY5QmY4QU9GVXR3bjVsNnFpeHMxdkpwRW9sa0MxVkdGeEFVNU4ycU9XS3Z0TEYNClhZcTdGWFlxN0ZYWXE3RlhZcTdGWFlxN0ZYWXE3RlhZcTdGWFlxN0ZYWXE3RlhZcTdGWFlxN0ZYWXE3RlhZcTdGWFlxN0ZYWXE3RlgNCllxN0ZYWXE3RlhZcTdGWFlxN0ZYWXE3RlhZcTdGWFlxN0ZYWXE3RlhZcTdGWFlxN0ZYWXE3RlhZcTdGWFlxN0ZYWXE3RlhZcTdGWFkNCnE3RlhZcTdGWFlxN0ZYWXE3RlhZcTdGWFlxN0ZYWXE3RlhZcTdGWFlxN0ZYWXE3RlhZcTdGWFlxN0ZYWXE3RlhZcTdGWFlxN0ZYWXENCjdGWFlxN0ZYWXE3RlhZcTdGWFlxN0ZYWXE3RlhZcTdGWFlxN0ZYWXE3RlhZcTdGWFlxN0ZYWXE3RlhZcTdGWFlxN0ZYWXE3RlhZcTcNCkZYWXE3RlhZcTdGWFlxN0ZYWXE3RlhZcTdGWFlxN0ZYWXE3RlhZcTdGWFlxL3dELzJRPT08L3htcEdJbWc6aW1hZ2U+DQoJCQkJCTwvcmRmOmxpPg0KCQkJCTwvcmRmOkFsdD4NCgkJCTwveG1wOlRodW1ibmFpbHM+DQoJCQk8eG1wVFBnOk1heFBhZ2VTaXplIHJkZjpwYXJzZVR5cGU9IlJlc291cmNlIj4NCgkJCQk8c3REaW06dz4xMzY2LjMwODMzMzwvc3REaW06dz4NCgkJCQk8c3REaW06aD4xMzY2LjMwODMzMzwvc3REaW06aD4NCgkJCQk8c3REaW06dW5pdD5NaWxsaW1ldGVyczwvc3REaW06dW5pdD4NCgkJCTwveG1wVFBnOk1heFBhZ2VTaXplPg0KCQkJPHhtcFRQZzpOUGFnZXM+MTwveG1wVFBnOk5QYWdlcz4NCgkJCTx4bXBUUGc6SGFzVmlzaWJsZVRyYW5zcGFyZW5jeT5GYWxzZTwveG1wVFBnOkhhc1Zpc2libGVUcmFuc3BhcmVuY3k+DQoJCQk8eG1wVFBnOkhhc1Zpc2libGVPdmVycHJpbnQ+RmFsc2U8L3htcFRQZzpIYXNWaXNpYmxlT3ZlcnByaW50Pg0KCQkJPHhtcFRQZzpQbGF0ZU5hbWVzPg0KCQkJCTxyZGY6U2VxPg0KCQkJCQk8cmRmOmxpPkN5YW48L3JkZjpsaT4NCgkJCQkJPHJkZjpsaT5NYWdlbnRhPC9yZGY6bGk+DQoJCQkJCTxyZGY6bGk+WWVsbG93PC9yZGY6bGk+DQoJCQkJCTxyZGY6bGk+QmxhY2s8L3JkZjpsaT4NCgkJCQk8L3JkZjpTZXE+DQoJCQk8L3htcFRQZzpQbGF0ZU5hbWVzPg0KCQkJPHhtcFRQZzpTd2F0Y2hHcm91cHM+DQoJCQkJPHJkZjpTZXE+DQoJCQkJCTxyZGY6bGkgcmRmOnBhcnNlVHlwZT0iUmVzb3VyY2UiPg0KCQkJCQkJPHhtcEc6Z3JvdXBOYW1lPkRlZmF1bHQgU3dhdGNoIEdyb3VwPC94bXBHOmdyb3VwTmFtZT4NCgkJCQkJCTx4bXBHOmdyb3VwVHlwZT4wPC94bXBHOmdyb3VwVHlwZT4NCgkJCQkJPC9yZGY6bGk+DQoJCQkJPC9yZGY6U2VxPg0KCQkJPC94bXBUUGc6U3dhdGNoR3JvdXBzPg0KCQkJPGRjOmZvcm1hdD5hcHBsaWNhdGlvbi9wb3N0c2NyaXB0PC9kYzpmb3JtYXQ+DQoJCTwvcmRmOkRlc2NyaXB0aW9uPg0KCTwvcmRmOlJERj4NCjwveDp4bXBtZXRhPg0KICAgICAgICAgICAgICAgICAgICAgICAgICAgICAgICAgICAgICAgICAgICAgICAgICAgICAgICAgICAgICAgICAgICAgICAgICAgICAgICAgICAgICAgICAgICAgICAgICAgIAogICAgICAgICAgICAgICAgICAgICAgICAgICAgICAgICAgICAgICAgICAgICAgICAgICAgICAgICAgICAgICAgICAgICAgICAgICAgICAgICAgICAgICAgICAgICAgICAgICAgCiAgICAgICAgICAgICAgICAgICAgICAgICAgICAgICAgICAgICAgICAgICAgICAgICAgICAgICAgICAgICAgICAgICAgICAgICAgICAgICAgICAgICAgICAgICAgICAgICAgICAKICAgICAgICAgICAgICAgICAgICAgICAgICAgICAgICAgICAgICAgICAgICAgICAgICAgICAgICAgICAgICAgICAgICAgICAgICAgICAgICAgICAgICAgICAgICAgICAgICAgIAogICAgICAgICAgICAgICAgICAgICAgICAgICAgICAgICAgICAgICAgICAgICAgICAgICAgICAgICAgICAgICAgICAgICAgICAgICAgICAgICAgICAgICAgICAgICAgICAgICAgCiAgICAgICAgICAgICAgICAgICAgICAgICAgICAgICAgICAgICAgICAgICAgICAgICAgICAgICAgICAgICAgICAgICAgICAgICAgICAgICAgICAgICAgICAgICAgICAgICAgICAKICAgICAgICAgICAgICAgICAgICAgICAgICAgICAgICAgICAgICAgICAgICAgICAgICAgICAgICAgICAgICAgICAgICAgICAgICAgICAgICAgICAgICAgICAgICAgICAgICAgIAogICAgICAgICAgICAgICAgICAgICAgICAgICAgICAgICAgICAgICAgICAgICAgICAgICAgICAgICAgICAgICAgICAgICAgICAgICAgICAgICAgICAgICAgICAgICAgICAgICAgCiAgICAgICAgICAgICAgICAgICAgICAgICAgICAgICAgICAgICAgICAgICAgICAgICAgICAgICAgICAgICAgICAgICAgICAgICAgICAgICAgICAgICAgICAgICAgICAgICAgICAKICAgICAgICAgICAgICAgICAgICAgICAgICAgICAgICAgICAgICAgICAgICAgICAgICAgICAgICAgICAgICAgICAgICAgICAgICAgICAgICAgICAgICAgICAgICAgICAgICAgIAogICAgICAgICAgICAgICAgICAgICAgICAgICAgICAgICAgICAgICAgICAgICAgICAgICAgICAgICAgICAgICAgICAgICAgICAgICAgICAgICAgICAgICAgICAgICAgICAgICAgCiAgICAgICAgICAgICAgICAgICAgICAgICAgICAgICAgICAgICAgICAgICAgICAgICAgICAgICAgICAgICAgICAgICAgICAgICAgICAgICAgICAgICAgICAgICAgICAgICAgICAKICAgICAgICAgICAgICAgICAgICAgICAgICAgICAgICAgICAgICAgICAgICAgICAgICAgICAgICAgICAgICAgICAgICAgICAgICAgICAgICAgICAgICAgICAgICAgICAgICAgIAogICAgICAgICAgICAgICAgICAgICAgICAgICAgICAgICAgICAgICAgICAgICAgICAgICAgICAgICAgICAgICAgICAgICAgICAgICAgICAgICAgICAgICAgICAgICAgICAgICAgCiAgICAgICAgICAgICAgICAgICAgICAgICAgICAgICAgICAgICAgICAgICAgICAgICAgICAgICAgICAgICAgICAgICAgICAgICAgICAgICAgICAgICAgICAgICAgICAgICAgICAKICAgICAgICAgICAgICAgICAgICAgICAgICAgICAgICAgICAgICAgICAgICAgICAgICAgICAgICAgICAgICAgICAgICAgICAgICAgICAgICAgICAgICAgICAgICAgICAgICAgIAogICAgICAgICAgICAgICAgICAgICAgICAgICAgICAgICAgICAgICAgICAgICAgICAgICAgICAgICAgICAgICAgICAgICAgICAgICAgICAgICAgICAgICAgICAgICAgICAgICAgCiAgICAgICAgICAgICAgICAgICAgICAgICAgICAgICAgICAgICAgICAgICAgICAgICAgICAgICAgICAgICAgICAgICAgICAgICAgICAgICAgICAgICAgICAgICAgICAgICAgICAKICAgICAgICAgICAgICAgICAgICAgICAgICAgICAgICAgICAgICAgICAgICAgICAgICAgICAgICAgICAgICAgICAgICAgICAgICAgICAgICAgICAgICAgICAgICAgICAgICAgIAogICAgICAgICAgICAgICAgICAgICAgICAgICAgICAgICAgICAgICAgICAgICAgICAgICAgICAgICAgICAgICAgICAgICAgICAgICAgICAgICAgICAgICAgICAgICAgICAgICAgCiAgICAgICAgICAgICAgICAgICAgICAgICAgICAgICAgICAgICAgICAgICAgICAgICAgICAgICAgICAgICAgICAgICAgICAgICAgICAgICAgICAgICAgICAgICAgICAgICAgICAKICAgICAgICAgICAgICAgICAgICAgICAgICAgICAgICAgICAgICAgICAgICAgICAgICAgICAgICAgICAgICAgICAgICAgICAgICAgICAgICAgICAgICAgICAgICAgICAgICAgIAogICAgICAgICAgICAgICAgICAgICAgICAgICAgICAgICAgICAgICAgICAgICAgICAgICAgICAgICAgICAgICAgICAgICAgICAgICAgICAgICAgICAgICAgICAgICAgICAgICAgCiAgICAgICAgICAgICAgICAgICAgICAgICAgICAgICAgICAgICAgICAgICAgICAgICAgICAgICAgICAgICAgICAgICAgICAgICAgICAgICAgICAgICAgICAgICAgICAgICAgICAKICAgICAgICAgICAgICAgICAgICAgICAgICAgICAgICAgICAgICAgICAgICAgICAgICAgICAgICAgICAgICAgICAgICAgICAgICAgICAgICAgICAgICAgICAgICAgICAgICAgIAogICAgICAgICAgICAgICAgICAgICAgICAgICAgICAgICAgICAgICAgICAgICAgICAgICAgICAgICAgICAgICAgICAgICAgICAgICAgICAgICAgICAgICAgICAgICAgICAgICAgCiAgICAgICAgICAgICAgICAgICAgICAgICAgICAgICAgICA8P3hwYWNrZXQgZW5kPSd3Jz8+/9sAQwACAQECAQECAgICAgICAgMFAwMDAwMGBAQDBQcGBwcHBgcHCAkLCQgICggHBwoNCgoLDAwMDAcJDg8NDA4LDAwM/9sAQwECAgIDAwMGAwMGDAgHCAwMDAwMDAwMDAwMDAwMDAwMDAwMDAwMDAwMDAwMDAwMDAwMDAwMDAwMDAwMDAwMDAwM/8AAEQgFsgJiAwEiAAIRAQMRAf/EAB8AAAEFAQEBAQEBAAAAAAAAAAABAgMEBQYHCAkKC//EALUQAAIBAwMCBAMFBQQEAAABfQECAwAEEQUSITFBBhNRYQcicRQygZGhCCNCscEVUtHwJDNicoIJChYXGBkaJSYnKCkqNDU2Nzg5OkNERUZHSElKU1RVVldYWVpjZGVmZ2hpanN0dXZ3eHl6g4SFhoeIiYqSk5SVlpeYmZqio6Slpqeoqaqys7S1tre4ubrCw8TFxsfIycrS09TV1tfY2drh4uPk5ebn6Onq8fLz9PX29/j5+v/EAB8BAAMBAQEBAQEBAQEAAAAAAAABAgMEBQYHCAkKC//EALURAAIBAgQEAwQHBQQEAAECdwABAgMRBAUhMQYSQVEHYXETIjKBCBRCkaGxwQkjM1LwFWJy0QoWJDThJfEXGBkaJicoKSo1Njc4OTpDREVGR0hJSlNUVVZXWFlaY2RlZmdoaWpzdHV2d3h5eoKDhIWGh4iJipKTlJWWl5iZmqKjpKWmp6ipqrKztLW2t7i5usLDxMXGx8jJytLT1NXW19jZ2uLj5OXm5+jp6vLz9PX29/j5+v/aAAwDAQACEQMRAD8A/fyiiigAooooAKKKy/F3jLSfAPhm/wBa1zUrHR9H0uF7m8vr2dbe3tYl5Z3diFVQOpJAoA1KQ1+IH/BSX/g8a8J/CzWL/wAL/s6+G7fx1qFszQv4p1kSQ6SrgkZggUrLMo67mKKeMBhzX5PfHP8A4OIv2xPj7qk0998afEHh+2mJxZ+HFj0qCIeg8lQ/HTJYn3NAH9j+felz/nFfw/T/APBUv9pSeV3b4/fGLc5LHHi+/HJ/7a03/h6N+0n/ANF9+Mf/AIWF/wD/AB2gD+4PP+cUZ/ziv4fP+Ho37Sf/AEX34x/+Fhf/APx2j/h6N+0n/wBF9+Mf/hYX/wD8doA/uDz/AJxRn/OK/h8/4ejftJ/9F9+Mf/hYX/8A8do/4ejftJ/9F9+Mf/hYX/8A8doA/uDz/nFGf84r+Hz/AIejftJ/9F9+Mf8A4WF//wDHaP8Ah6N+0n/0X34x/wDhYX//AMdoA/uDz/nFGf8AOK/h8/4ejftJ/wDRffjH/wCFhf8A/wAdo/4ejftJ/wDRffjH/wCFhf8A/wAdoA/uDz/nFGf84r+Hz/h6N+0n/wBF9+Mf/hYX/wD8do/4ejftJ/8ARffjH/4WF/8A/HaAP7g8/wCcUZ/ziv4fP+Ho37Sf/RffjH/4WF//APHaP+Ho37Sf/RffjH/4WF//APHaAP7g8/5xRn/OK/h8/wCHo37Sf/RffjH/AOFhf/8Ax2j/AIejftJ/9F9+Mf8A4WF//wDHaAP7g8/5xRn/ADiv4fP+Ho37Sf8A0X34x/8AhYX/AP8AHaP+Ho37Sf8A0X34x/8AhYX/AP8AHaAP7g8/5xRn/OK/h8/4ejftJ/8ARffjH/4WF/8A/HaP+Ho37Sf/AEX34x/+Fhf/APx2gD+4PP8AnFGf84r+Hz/h6N+0n/0X34x/+Fhf/wDx2j/h6N+0n/0X34x/+Fhf/wDx2gD+4PP+cUZ/ziv4fP8Ah6N+0n/0X34x/wDhYX//AMdo/wCHo37Sf/RffjH/AOFhf/8Ax2gD+4PP+cUZ/wA4r+Hz/h6N+0n/ANF9+Mf/AIWF/wD/AB2j/h6N+0n/ANF9+Mf/AIWF/wD/AB2gD+4PP+cUZ/ziv4fP+Ho37Sf/AEX34x/+Fhf/APx2j/h6N+0n/wBF9+Mf/hYX/wD8doA/uDz/AJxRn/OK/h8/4ejftJ/9F9+Mf/hYX/8A8do/4ejftJ/9F9+Mf/hYX/8A8doA/uDz/nFGf84r+Hz/AIejftJ/9F9+Mf8A4WF//wDHaP8Ah6N+0n/0X34x/wDhYX//AMdoA/uDz/nFGf8AOK/h8/4ejftJ/wDRffjH/wCFhf8A/wAdo/4ejftJ/wDRffjH/wCFhf8A/wAdoA/uDz/nFGf84r+Hz/h6N+0n/wBF9+Mf/hYX/wD8do/4ejftJ/8ARffjH/4WF/8A/HaAP7g8/wCcUZ/ziv4fP+Ho37Sf/RffjH/4WF//APHaP+Ho37Sf/RffjH/4WF//APHaAP7g8/5xRn/OK/h8/wCHo37Sf/RffjH/AOFhf/8Ax2j/AIejftJ/9F9+Mf8A4WF//wDHaAP7g8/5xRn/ADiv4fP+Ho37Sf8A0X34x/8AhYX/AP8AHaP+Ho37Sf8A0X34x/8AhYX/AP8AHaAP7g8/5xRn/OK/h8/4ejftJ/8ARffjH/4WF/8A/HaP+Ho37Sf/AEX34x/+Fhf/APx2gD+4PP8AnFGf84r+Hz/h6N+0n/0X34x/+Fhf/wDx2j/h6N+0n/0X34x/+Fhf/wDx2gD+4PP+cUZ/ziv4fP8Ah6N+0n/0X34x/wDhYX//AMdo/wCHo37Sf/RffjH/AOFhf/8Ax2gD+4PP+cUZ/wA4r+Hz/h6N+0n/ANF9+Mf/AIWF/wD/AB2j/h6N+0n/ANF9+Mf/AIWF/wD/AB2gD+4PP+cUZ/ziv4fP+Ho37Sf/AEX34x/+Fhf/APx2j/h6N+0n/wBF9+Mf/hYX/wD8doA/uDz/AJxRn/OK/h8/4ejftJ/9F9+Mf/hYX/8A8do/4ejftJ/9F9+Mf/hYX/8A8doA/uDz/nFGf84r+Hz/AIejftJ/9F9+Mf8A4WF//wDHaP8Ah6N+0n/0X34x/wDhYX//AMdoA/uDz/nFGf8AOK/h8/4ejftJ/wDRffjH/wCFhf8A/wAdo/4ejftJ/wDRffjH/wCFhf8A/wAdoA/uDz/nFJmv4ff+Ho37Sf8A0X34x/8AhYX/AP8AHaB/wVG/aTH/ADX74yf+Fhf/APx2gD+4IU6v4sfhf/wXC/a2+EOoQ3Gj/H74iy+SQfK1LU21KFwOzJcb1Ir9Fv2DP+DzXx54N1ex0f8AaC8Iab4w0VnWObX/AA9CLHU7dTgeY9uT5M2OuE8s/XpQB/RxRXlv7JP7Znw1/bm+D9l45+F/irT/ABVoF4MO1u22eyk6mGeI4aGQf3XAOORkc16kpytABRRRQAUUUUAFFFFABRRRQAUUUUAUfEGv2fhbRL3U9Su4bHTdOhe6urmdwkdvEilndmPAVVBJJ7A1/Kb/AMHBH/BevXv+Ck3xRvPAHgHULzR/gf4duTHBBG7RP4qlQn/S7kA8x5GYozkAEMfmPy/pN/wd+f8ABS24+AX7Oei/ATwtqDWviL4oxtea/JC22S30aN9vlZ7efKpU+qRSDo1fzOk80AK3DGkoooAKKKKACiiigAooooAKKKKACiiigAooooAKKKKACiiigAooooAKKKKACiiigAooooAKKKKACiiigAooooAKKKKACiiigAooooAKKKKACiiigAooooAKKKKACiiigAooooAKKKKACiiigAooooAKKKKACiiigAooooAM0ZoooA+iv+Cav/BS34k/8Ewf2grHxx4B1KT7K7pHrWhzyn7Br1sDloZk6bsfdkA3I3IPUH+w39hD9t3wX/wUI/Zk8N/FDwJdmbR9chxPbSEfaNMuk4mtZh2kjbg9iCpHDCv4aAxFfq5/wahf8FL7r9kn9uCH4T69fsngP4ySJYrHI/7ux1gAi1mXsPMz5Leu9CfuigD+qAUUDpRQAUUUUAFFFFABRRRQAU09adXmf7ZPxqh/Zx/ZN+JXj24kWNPB/hq/1UEn+OK3d0H1LBR9TQB/Ib/wXa/aym/bM/4KnfFrxUtwbjSdN1d/D+kYOVSzsc26FfZyjScf89DXyCetWNW1W41vVbq8upGluLyV55XPV3YlmP4k1XoAKKKKACiiigAooooAKKKKACiiigAooooAKKKKACiiigAooooAKKKKACiiigAooooAKKKKACiiigAooooAKKKKACiiigAooooAKKKKACiiigAooooAKKKKACiiigAooooAKKKKACiiigAooooAKKKKACiiigAooooAKKKKACiiigArQ8LeJL3wd4l07WNNuJLPUNLuYru1njYq0MsbBkYHqCGAOR0rPo3H+lAH90f7Cn7Rtv8AtdfscfDP4mW7f8jn4ds9SmUf8s52jHnJ/wABlDr+FesjpX5b/wDBon8fv+Fu/wDBJex8OzXHnX3w58RX2jFWOWSGRlu4vw/0hwP901+pFABRRRQAUUUUAFFFFABX5wf8HVfx/wD+FIf8Ed/G2nwziG+8fajY+G4Rn5mSSbzpsf8AbKBwfZq/R+vwE/4PdPj4oj+B/wAL4ZvmY3/ie9iU8n7ltASP/AjH0oA/n+YYNFB60UAFFFFABRRRQAUUUUAFFFFABRRRQAUUUUAFFFFABRRRQAUUUUAFFFFABRRRQAUUUUAFFFFABRRRQAUUUUAFFFFABRRRQAUUUUAFFFFABRRRQAUUUUAFFFFABRRRQAUUUUAFFFFABRRRQAUUUUAFFFFABRRRQAUUUUAFFFFABRRRQAUUUUAfux/wZIfH7+y/i38avhjPcKses6ZZeI7OJj957eRoJcD/AHZ4yfZfav6JB0r+P/8A4Nlvj9/woT/gsb8LDNMIrHxg114YudzYVhdQsIgf+26xV/YBQAUUUUAFFFFABRRRQAnev5KP+DrP4+/8Lt/4LDeMtOhnaWx8AaZYeG4lzlUdIvPlx/21uHB+lf1oarqMOkaZcXdzIsNvaxtLLI3SNVBJY+wAz+Ffwt/to/G6b9pL9rn4mePrh2kk8X+JtQ1RSxyRHLcOyDPspUfhQB5eetFB60UAFFFFABRRRQAUUUUAFFFFABRRRQAUUUUAFFFFABRRRQAUUUUAFFFFABRRRQAUUUUAFFFFABRRRQAUUUUAFFFFABRRRQAUUUUAFFFFABRRRQAUUUUAFFFFABRRRQAUUUUAFFFFABRRRQAUUUUAFFFFABRRRQAUUUUAFFFFABRRRQAUUUUAdl+z38Vbr4GfHfwX40s5GjuvCeuWWrxspwcwTrJj8duK/u28FeKrXx14P0nXLGRZbHWLOG9t3ByGjkQOp/EMK/gZBJH9a/s5/wCCCfx//wCGkf8Agkf8Edee4+0XljoCaHeEnJE1izWpz7lYlbnswoA+wRRQOlFABRRRQAUUUUAfMv8AwWQ+P3/DMv8AwS++OHjCOZYbuz8K3dnZsW2n7RdL9liAPrvlU8elfxO7uc1/UN/weUfH7/hW/wDwTV8PeCYZfLuviJ4rgikUNgvbWkb3D8enmeQPxr+Xk9aACiiigAooooAKKKKACiiigAooooAKKKKACiiigAooooAKKKKACiiigAooooAKKKKACiiigAooooAKKKKACiiigAooooAKKKKACiiigAooooAKKKKACiiigAooooAKKKKACiiigAooooAKKKKACiiigAooooAKKKKACiiigAooooAKKKKACiiigAzX9L3/AAZZfH7/AITP9h34jfD24mDXHgfxSt/bxk8pb30APA9PMgl/7696/mhr9gv+DMn4/f8ACv8A/gor4u8CzSlbX4geE5WiQthWurOVJU49fKef9aAP6eh0ooHSigAooooAKKKa+QP89aAP5r/+D1j4/wD/AAlv7Y/ww+HNvcbrfwb4Zk1S5iU/cuL2cjn38q3jP0evxVNfZ3/BwV+0AP2jv+Cvnxq1qG4F1YaTrP8Awj9kwOVEVjGtscexkjc/jXxietABRRRQAUUUUAFFFFABRRRQAUUUUAFFFFABRRRQAUUUUAFFFFABRRRQAUUUUAFFFFABRRRQAUUUUAFFFFABRRRQAUUUUAFFFFABRRRQAUUUUAFFFFABRRRQAUUUUAFFFFABRRRQAUUUUAFFFFABRRRQAUUUUAFFFFABRRRQAUUUUAFFFFABRRRQAV9Tf8EUfj8P2Zv+CqfwN8WSzeRZR+J7fTr1s4At7vNrLn2CzE/hXyzVzQdZuPD2tWeoWkjQ3VjOlxA4P3JEYMp/AgUAf34DpRXnf7JXxmt/2iv2Xfh348tZRLB4v8OWGrBlORma3R2H1DEj8K9EoAKKKKACuV+N3xLtfgx8HPFnjC+ZVs/C2j3erzljwEgheQ/on511VfB//Byl8fv+Gf8A/gjn8W7iObyb7xVbW/hi1IbBJvJkjkx6/uRMaAP5C/iD4zvPiN491zxBfyNLfa9qE+o3Dk5LySyNIx/NjWPQetFABRRRQAUUUUAFFFFABRRRQAUUUUAFFFFABRRRQAUUUUAFFFFABRRRQAUUUUAFFFFABRRRQAUUUUAFFFFABRRRQAUUUUAFFFFABRRRQAUUUUAFFFFABRRRQAUUUUAFFFFABRRRQAUUUUAFFFFABRRRQAUUUUAFFFFABRRRQAUUUUAFFFFABRRRQAUbsCiigD+uT/g1i+PjfHL/AII5eAbOabzL3wJeX3hqfn5lSKYywg/9sZowP92v0YByK/Av/gyL+PnnaJ8b/hdPN80Mth4ns4yeQGDW05A9ttv+dfvoKACiiigAr8M/+D2j4/f2L8Bvg38MbecrJ4i1q71+7jU/ejtYRDHkehe4b8Ur9zK/lX/4O/vj83xV/wCCrreF4ZvNs/hz4astLCq2Qk8wa6l+hxNGD/u0AflWetFB60UAFFFFABRRRQAUUUUAFFFFABRRRQAUUUUAFFFFABRRRQAUUUUAFFFFABRRRQAUUUUAFFFFABRRRQAUUUUAFFFFABRRRQAUUUUAFFFFABRRRQAUUUUAFFFFABRRRQAUUUUAFFFFABRRRQAUUUUAFFFFABRRRQAUUUUAFFFFABRRRQAUUUUAFFFFABRRRQB+ln/Bp/8AH9fgr/wV/wDCuk3Fx5Nj8QtIv/DsgJwHkMYuIh9TJbqv/Aq/rQHAr+Fn9h344Tfs0ftjfC74gQymE+EfFGn6lIw7xR3CGQfQx7h+Nf3QaffRanYQXNu6yQXEayxuDkOrDIP4g0ATUUUUARyS+UjOzKqqCSW4CgV/D/8A8FPvjy37Tv8AwUM+M3jpZPOg1/xZfyWrA5Bt0maKDH/bNEr+xn/go38d0/Zi/YN+L3j1pPKl8M+FNQurZs4/0gwMkI+plZAPrX8ONxcPczvJIzPJIxZmPUk9TQAw9aKKKACiiigAooooAKKKKACiiigAooooAKKKKACiiigAooooAKKKKACiiigAooooAKKKKACiiigAooooAKKKKACiiigAooooAKKKKACiiigAooooAKKKKACiiigAooooAKKKKACiiigAooooAKKKKACiiigAooooAKKKKACiiigAooooAKKKKACiiigAooooAcp4647V/bT/AMEhfj9/w0//AMEy/gn40ebzrrUfClnb3bBtx+026/Zps+/mQsefWv4lM4r+o7/gzi+P3/Cy/wDgmNrPg2abfdfDnxXc2yKzZZbe6RLlOOw8xpwP900AfrcDkUUCigD8wv8Ag7V+Mt58PP8AgkzqXhrTVuptQ+IniKw0Xy4I2kZoEZrqXOB0/wBHUc/3q/lW/wCEC1w/8wbVv/AOT/Cv74LzTrfUVC3FvDOq8gSIGx+dV/8AhGtN/wCgfY/9+F/woA/gn/4QHXP+gNq3/gHJ/hR/wgOuf9AbVv8AwDk/wr+9j/hGtN/6B9j/AN+F/wAKP+Ea03/oH2P/AH4X/CgD+Cf/AIQHXP8AoDat/wCAcn+FH/CA65/0BtW/8A5P8K/vY/4RrTf+gfY/9+F/wo/4RrTf+gfY/wDfhf8ACgD+Cf8A4QHXP+gNq3/gHJ/hR/wgOuf9AbVv/AOT/Cv72P8AhGtN/wCgfY/9+F/wo/4RrTf+gfY/9+F/woA/gn/4QHXP+gNq3/gHJ/hR/wAIDrn/AEBtW/8AAOT/AAr+9j/hGtN/6B9j/wB+F/wo/wCEa03/AKB9j/34X/CgD+Cf/hAdc/6A2rf+Acn+FH/CA65/0BtW/wDAOT/Cv72P+Ea03/oH2P8A34X/AAo/4RrTf+gfY/8Afhf8KAP4J/8AhAdc/wCgNq3/AIByf4Uf8IDrn/QG1b/wDk/wr+9j/hGtN/6B9j/34X/Cj/hGtN/6B9j/AN+F/wAKAP4J/wDhAdc/6A2rf+Acn+FH/CA65/0BtW/8A5P8K/vY/wCEa03/AKB9j/34X/Cj/hGtN/6B9j/34X/CgD+Cf/hAdc/6A2rf+Acn+FH/AAgOuf8AQG1b/wAA5P8ACv72P+Ea03/oH2P/AH4X/Cj/AIRrTf8AoH2P/fhf8KAP4J/+EB1z/oDat/4Byf4Uf8IDrn/QG1b/AMA5P8K/vY/4RrTf+gfY/wDfhf8ACj/hGtN/6B9j/wB+F/woA/gn/wCEB1z/AKA2rf8AgHJ/hR/wgOuf9AbVv/AOT/Cv72P+Ea03/oH2P/fhf8KP+Ea03/oH2P8A34X/AAoA/gn/AOEB1z/oDat/4Byf4Uf8IDrn/QG1b/wDk/wr+9j/AIRrTf8AoH2P/fhf8KP+Ea03/oH2P/fhf8KAP4J/+EB1z/oDat/4Byf4Uf8ACA65/wBAbVv/AADk/wAK/vY/4RrTf+gfY/8Afhf8KP8AhGtN/wCgfY/9+F/woA/gn/4QHXP+gNq3/gHJ/hR/wgOuf9AbVv8AwDk/wr+9j/hGtN/6B9j/AN+F/wAKP+Ea03/oH2P/AH4X/CgD+Cf/AIQHXP8AoDat/wCAcn+FH/CA65/0BtW/8A5P8K/vY/4RrTf+gfY/9+F/wo/4RrTf+gfY/wDfhf8ACgD+Cf8A4QHXP+gNq3/gHJ/hR/wgOuf9AbVv/AOT/Cv72P8AhGtN/wCgfY/9+F/wo/4RrTf+gfY/9+F/woA/gn/4QHXP+gNq3/gHJ/hR/wAIDrn/AEBtW/8AAOT/AAr+9j/hGtN/6B9j/wB+F/wo/wCEa03/AKB9j/34X/CgD+Cf/hAdc/6A2rf+Acn+FH/CA65/0BtW/wDAOT/Cv72P+Ea03/oH2P8A34X/AAo/4RrTf+gfY/8Afhf8KAP4J/8AhAdc/wCgNq3/AIByf4Uf8IDrn/QG1b/wDk/wr+9j/hGtN/6B9j/34X/Cj/hGtN/6B9j/AN+F/wAKAP4J/wDhAdc/6A2rf+Acn+FH/CA65/0BtW/8A5P8K/vY/wCEa03/AKB9j/34X/Cj/hGtN/6B9j/34X/CgD+Cf/hAdc/6A2rf+Acn+FH/AAgOuf8AQG1b/wAA5P8ACv72P+Ea03/oH2P/AH4X/Cj/AIRrTf8AoH2P/fhf8KAP4J/+EB1z/oDat/4Byf4Uf8IDrn/QG1b/AMA5P8K/vY/4RrTf+gfY/wDfhf8ACj/hGtN/6B9j/wB+F/woA/gn/wCEB1z/AKA2rf8AgHJ/hR/wgOuf9AbVv/AOT/Cv72P+Ea03/oH2P/fhf8KP+Ea03/oH2P8A34X/AAoA/gn/AOEB1z/oDat/4Byf4Uf8IDrn/QG1b/wDk/wr+9j/AIRrTf8AoH2P/fhf8KP+Ea03/oH2P/fhf8KAP4J/+EB1z/oDat/4Byf4Uf8ACA65/wBAbVv/AADk/wAK/vY/4RrTf+gfY/8Afhf8KP8AhGtN/wCgfY/9+F/woA/gn/4QHXP+gNq3/gHJ/hR/wgOuf9AbVv8AwDk/wr+9j/hGtN/6B9j/AN+F/wAKP+Ea03/oH2P/AH4X/CgD+Cf/AIQHXP8AoDat/wCAcn+FH/CA65/0BtW/8A5P8K/vY/4RrTf+gfY/9+F/wo/4RrTf+gfY/wDfhf8ACgD+Cf8A4QHXP+gNq3/gHJ/hR/wgOuf9AbVv/AOT/Cv72P8AhGtN/wCgfY/9+F/wo/4RrTf+gfY/9+F/woA/gn/4QHXP+gNq3/gHJ/hR/wAIDrn/AEBtW/8AAOT/AAr+9j/hGtN/6B9j/wB+F/wo/wCEa03/AKB9j/34X/CgD+Cf/hAdc/6A2rf+Acn+FH/CA65/0BtW/wDAOT/Cv72P+Ea03/oH2P8A34X/AAo/4RrTf+gfY/8Afhf8KAP4J/8AhAdc/wCgNq3/AIByf4Uf8IDrn/QG1b/wDk/wr+9j/hGtN/6B9j/34X/Cj/hGtN/6B9j/AN+F/wAKAP4J/wDhAdc/6A2rf+Acn+FH/CA65/0BtW/8A5P8K/vY/wCEa03/AKB9j/34X/Cj/hGtN/6B9j/34X/CgD+Cf/hAdc/6A2rf+Acn+FH/AAgOuf8AQG1b/wAA5P8ACv72P+Ea03/oH2P/AH4X/Cj/AIRrTf8AoH2P/fhf8KAP4J/+EB1z/oDat/4Byf4Uf8IDrn/QG1b/AMA5P8K/vY/4RrTf+gfY/wDfhf8ACj/hGtN/6B9j/wB+F/woA/gn/wCEB1z/AKA2rf8AgHJ/hR/wgOuf9AbVv/AOT/Cv72P+Ea03/oH2P/fhf8KP+Ea03/oH2P8A34X/AAoA/gn/AOEB1z/oDat/4Byf4Uf8IDrn/QG1b/wDk/wr+9j/AIRrTf8AoH2P/fhf8KP+Ea03/oH2P/fhf8KAP4J/+EB1z/oDat/4Byf4Uf8ACA65/wBAbVv/AADk/wAK/vY/4RrTf+gfY/8Afhf8KP8AhGtN/wCgfY/9+F/woA/gn/4QHXP+gNq3/gHJ/hX7Vf8ABln8VdS8AftW/Ff4e6la39na+LPDkGr2wmhZEM9nPsOMj7xjuWP/AAA1/Rd/wjWm/wDQPsf+/C/4VLa6NZ2MvmQ2ltC/95IlU/mBQBZHSiiigAooooAKKKKACiiigAooooAKKKKACiiigAooooAKKKKACiiigAooooAKKKKACiiigAooooAKKKKACiiigAooooAKKKKACiiigAooooAKKKKACiiigAooooAKKKKACiiigAooooAKKKKACiiigAooooAKKKKACiiigAooooAKKKKACiiigAooooAKKKKACiiigAooooAKKKKACiiigCKaXyVZvmbbk4Az29v5cmvgrxN/wcz/ALG/g7xDf6PqvxN1DT9T0u4ktLy1n8N6jHLbzRsUdGBhyGVgR+FffVfzJ/8AB3R/wTDb9nX9pyy+PXhXT/K8I/FSYwa2sEf7uw1lFyzHHAW4jG/3kSX1oA/WX/iKN/YoH/NWZz/3Luo//GaP+Io79ij/AKKxP/4Tuo//ABmv5Cj1ooA/r1/4ijv2KP8AorE//hO6j/8AGaP+Io79ij/orE//AITuo/8Axmv5CqKAP69f+Io79ij/AKKxP/4Tuo//ABmj/iKO/Yo/6KxP/wCE7qP/AMZr+QqigD+vX/iKO/Yo/wCisT/+E7qP/wAZo/4ijv2KP+isT/8AhO6j/wDGa/kKooA/r1/4ijv2KP8AorE//hO6j/8AGaP+Io79ij/orE//AITuo/8Axmv5CqKAP69f+Io79ij/AKKxP/4Tuo//ABmj/iKO/Yo/6KxP/wCE7qP/AMZr+QqigD+vX/iKO/Yo/wCisT/+E7qP/wAZo/4ijv2KP+isT/8AhO6j/wDGa/kKooA/r1/4ijv2KP8AorE//hO6j/8AGaP+Io79ij/orE//AITuo/8Axmv5CqKAP69f+Io79ij/AKKxP/4Tuo//ABmj/iKO/Yo/6KxP/wCE7qP/AMZr+QqigD+vX/iKO/Yo/wCisT/+E7qP/wAZo/4ijv2KP+isT/8AhO6j/wDGa/kKooA/sJ8Df8HLH7HPxI8b6P4d0n4qSTapr17Dp1nG+hahGsk0zhEUsYcLlmAycAZ6195jpX8CPh7Wrjw5rtjqFm/l3dhcR3MD5+66MGU/gRX92H7LXxht/wBoL9mfwB46tZBND4u8O2GrqynOTNbpIR9QWIP0oA76iiigDzH9rv8Aa48EfsO/ArVviT8RdRvNJ8I6HJCl7d29lNePB5sqxIfLiVmwXYDOMDOa+Nf+IrL9iUf81L1r/wAJXUv/AIzX0h/wVn+A/wDw0t/wTV+NngtIfOutV8J30lomMk3EMZnhx7+ZGlfxFsMGgD+uT/iKz/Yl/wCima1/4Smpf/GaP+IrP9iX/opmtf8AhKal/wDGa/kbooA/rk/4is/2Jf8Aopmtf+EpqX/xmj/iKz/Yl/6KZrX/AISmpf8Axmv5G6KAP65P+IrP9iX/AKKZrX/hKal/8Zo/4is/2Jf+ima1/wCEpqX/AMZr+RuigD+uT/iKz/Yl/wCima1/4Smpf/GaP+IrP9iX/opmtf8AhKal/wDGa/kbooA/rk/4is/2Jf8Aopmtf+EpqX/xmj/iKz/Yl/6KZrX/AISmpf8Axmv5G6KAP65P+IrP9iX/AKKZrX/hKal/8Zo/4is/2Jf+ima1/wCEpqX/AMZr+RuigD+uT/iKz/Yl/wCima1/4Smpf/GaP+IrP9iX/opmtf8AhKal/wDGa/kbooA/rk/4is/2Jf8Aopmtf+EpqX/xmj/iKz/Yl/6KZrX/AISmpf8Axmv5G6KAP65P+IrP9iX/AKKZrX/hKal/8Zo/4is/2Jf+ima1/wCEpqX/AMZr+RuigD+uT/iKz/Yl/wCima1/4Smpf/GaP+IrP9iX/opmtf8AhKal/wDGa/kbooA/rk/4is/2Jf8Aopmtf+EpqX/xmvoL9gj/AIK0fBH/AIKYal4ktvg/4k1HxFJ4Tjgl1I3GkXVikAmLiMbpo1DFtjcDPAr+Jmv6b/8Agy9+A3/CDf8ABP3xx48mh2XHjzxW1vDIRy9vZQrGuPbzJZh9QaAP2NByKKKKACvkL9tX/gub+zb/AME+vjR/wr/4peNr7Q/FP2GLUTa2+i3d6EhlLBCXhjZQTtJ2k5xg45r67PP51/Gn/wAHA/x8/wCGif8AgsB8bNYiuBc2el61/wAI/aMGyvl2UaWvHtvjc/jQB/QsP+DrP9iXHPxL1r/wlNS/+M0f8RWf7Ev/AEUzWv8AwlNS/wDjNfyNnrRQB/XJ/wARWf7Ev/RTNa/8JTUv/jNH/EVn+xL/ANFM1r/wlNS/+M1/I3RQB/XJ/wARWf7Ev/RTNa/8JTUv/jNH/EVn+xL/ANFM1r/wlNS/+M1/I3RQB/XJ/wARWf7Ev/RTNa/8JTUv/jNH/EVn+xL/ANFM1r/wlNS/+M1/I3RQB/XJ/wARWf7Ev/RTNa/8JTUv/jNH/EVn+xL/ANFM1r/wlNS/+M1/I3RQB/XJ/wARWf7Ev/RTNa/8JTUv/jNH/EVn+xL/ANFM1r/wlNS/+M1/I3RQB/XJ/wARWf7Ev/RTNa/8JTUv/jNH/EVn+xL/ANFM1r/wlNS/+M1/I3RQB/XJ/wARWf7Ev/RTNa/8JTUv/jNH/EVn+xL/ANFM1r/wlNS/+M1/I3RQB/XJ/wARWf7Ev/RTNa/8JTUv/jNH/EVn+xL/ANFM1r/wlNS/+M1/I3RQB/XJ/wARWf7Ev/RTNa/8JTUv/jNH/EVn+xL/ANFM1r/wlNS/+M1/I3RQB/XF/wARWH7E+T/xczWv/CV1P/4zX29+zZ+0V4Z/ax+COgfELwZNqF14X8UW5u9NnvLGaxlnh3FQ/lTKrqrbSVJHIwe9fxz/APBHX/gnfqX/AAUz/bs8IfDuNbiPw3HJ/avia8jH/HnpsJDS4PZ5MrGv+049K/tC8HeEdN8AeEtL0LRrK303SNGtYrKytIF2x20MahERR2CqAB9KANIdKKAMCigArxT/AIKFfsXeHf8AgoJ+yD41+FPiRYltfEtky2d0yhm068T57e5X3jkCk+oyO9e10YoA/gz+PfwP8Rfs1/GjxN4B8W2Emm+JPCWozaZf27rgrJE5UkeqtgEHoQQa488V+/H/AAeLf8EwFtb3Rf2nvCWn7UmMOheNUhTo+Ntnetj1/wBSx9RD71+A7feoAKKKKACiiigAooooAKKKKACiiigAooooAKKKKACiiigAooooAM1/Xn/wa+/Hn/hev/BG34axzTede+C5b3wzcZbLL5E7NED9IZIgPYV/IZX9Dn/Bkd8eV1H4X/G74ZzzfvNK1Gx8S2kZPRJ42glIHs0EP/fXvQB+8AooHAooAr39lFqFnNbzKskNwhR1PRlYYI/LNfwwftxfBGb9mz9sj4o+AZo2hbwn4o1DTY1YY/dx3DiM/im0j61/dPX8k/8Awda/AQfBb/gsP4y1GGHybPx9plh4iiIGFZ3i8iU/9/IHJ/3qAPzbPWig9aKACiiigAooooAKKKKACiiigAooooAKKKKACiiigAooooAKKKKAHAcV/aF/wQm+Ah/Zw/4JKfA/w7Jb/Zby48ORaxeKRhvOvS102fcecB+Ffx2/s+fC+6+OHx28F+DbON5LrxVrllpEQVcnM86R/wDs2fwr+7jwf4XtfBPhLS9FsYxHZaTaQ2VugH3Y40CKPwVRQBpCiiigDmfjD8Q7T4R/CjxP4sv2VbPwzpN3qk7E8COCF5W/RDX8IfxG8bXfxK+IWveI792kvtf1G41G4cnlpJpGkY/mxr+wD/g41+PA/Z//AOCOvxlv45vJvPEGnR+G7Ug4Je9mSFgPfymlNfxynrQAUUUUAFFFFABRRRQAUUUUAFFFFABRRRQAUUUUAFFFFABRRRQAU5F3MoHLNxjFNr9AP+DdD/gmO3/BSD9vnSTrli1x8OPhyYte8Ss65iudrZtrM9j50i8juiSUAfuJ/wAGvH/BML/hhL9haDxp4l0/7P8AEb4vRw6vfCVAs2n6fgtZ2vPIyrGVh/ekAP3a/TgHIpkECW8CxxxrHGgCqijCqPQCn0AFFFFABRRRQBxX7RHwH8O/tQfA/wAVfD3xZZpfeHfGGmzaXfRMB9yRSNy+jqcMp6hlBr+Jz9vb9jjxF+wN+1r40+FPieOQX/ha/aK3uSm1dQtW+a3uV7bZIircdCSO1f3MYr8Yv+DvT/gmH/wvn9nTT/2gvCuniTxV8M4/sniFYU+e+0d2yJCByWt3bdntHJJ2UCgD+aA9aKDwaKACiiigAooooAKKKKACiiigAooooAKKKKACiiigAooooAK/Un/g0Q+Pf/Cpf+CtFl4dmn8qz+Ivhy+0YgtgNNGFu4vqcwMB/vV+W1e6/wDBMr47t+zN/wAFB/g3468zy4fD/iywluWzj9w8yxTf+QnegD+4cdKKRHWRFZSGVhkEdxS0AFfz+/8AB7t8Byt38D/idDFw63/hm7cD023EIJ/Gf9a/oCr80/8Ag7C+Ap+Mv/BH7xVq0MCzXnw+1jT/ABDGQuWSMS/Z5T9PLuCT7LQB/JeaKKKACiiigAooooAKKKKACiiigAooooAKKKKACiiigAooooAKKKKAPvf/AINn/gN/wvr/AILI/CaKWPzbLwnLc+Jrn5dwAtYHaPPp++aH8TX9go6V/Ob/AMGSnwE/tr49/GT4mXFvmPw/otp4ftZiPuyXUpmkA9wlsv8A31X9GQ6UAFFFFAH4lf8AB6/8ef8AhGv2VfhN8OLe42zeLPEc+s3UYbkw2cOxcj0Mlz37rX83BOTX64/8Hknx6/4WP/wU20PwbFNvtfh34Ttrd0ByFuLt3uZPx8s2/wCQr8jj1oAKKKKACiiigAooooAKKKKACiiigAooooAKKKKACiiigAooooAtaXplxrGoW9nawSXN1dyLDBDGhZ5XY4VVA5LEkYA65r+xz/ggz/wTSt/+CZf7Anh7w3f2sa+PPFQXXvFcoA3i7lQbbbPXbAm2MDpuDn+I1+Hv/BqB/wAEw/8Ahrz9sV/i54o08XHgP4PypdW6zR5i1HWCN1vHg8MIQPOb3EQPBr+pcL8uDzQAoPFFFFABRRRQAUUUUAFZfjDwrpvjvwvqeh6xZ299pWr2slneW0yho7iGVSjow7qwJBrUoxk0AfxV/wDBY/8A4J16l/wTK/bu8W/DuSGdvDM0v9q+GL2QEreaZMzGL5u7RkNE3+1GfUV8rmv6xv8Ag6D/AOCYH/DeH7DFx4y8N6eLn4i/CFJtXsBHHmbUNP2hru1BHJ+VRKo/vRY/iNfycnrQAUUUUAFFFFABRRRQAUUUUAFFFFABRRRQAUUUUAFFFFABUkE7W8qSRs0bxkMrg4Kkc5qOjNAH9yn/AATs+Osf7TH7CPwh8eRyCR/E/hTT7uZgd37/AMhVmH1EiuPwr2ivzF/4NJ/jz/wuH/gkNoeizXHnXnw917UNCdScssRcXUX0G25IH+6a/ToUAFeR/t7fBGP9pP8AYr+K3gOSPzT4q8K6hYwrj/lq0DeUfqJNp/CvXKaw3blx97qD3oA/gJu7WSxu5YJVaOWFyjqwwVIOCDUdfQX/AAVW+A5/Zn/4KPfGrwSImig0bxbfG1Ujb/o8spmhx/2zkSvn09aACiiigAooooAKKKKACiiigAooooAKKKKACiiigAooooAKKKcq5/8A1UAf1O/8Ge3wFHwu/wCCV1x4rmg8u7+I3ii81AOy4Z4LcJax/huilI/3vev1dHSvnj/gk58Bv+GZ/wDgmx8E/BbRrDc6T4TsXu1xj/SJohPN/wCRJHr6HB4oAKQ0tecftdfGWH9nb9ln4j+PLiQRx+EfDd/qoYnHzQ27ug+pYKPqRQB/HL/wWT+PS/tK/wDBUj45eLoZjcWl34rurOzfduBt7VhaxY9tkKn8a+ZD1q1rOr3GvavdX11I011eTPPLIeruxLMfxJqrQAUUUUAFFFFABRRRQAUUUUAFFFFABRRRQAUUUUAFFFFABXQfCz4Z618ZviNoXhPw3YTapr/iW/h03TrSFCzzzzOqIox6sR7DrXP1+5n/AAZ4/wDBMEfED4jax+0v4s09W0nwm8mj+EFmTIuL9kxcXS/9cUby1P8AelbHKUAftR/wS6/YN0T/AIJt/sUeDfhbpCwyXml2ouNbvIwM6jqUoDXExPU/N8q56IqjsK+iAMCkC4HSloAKKKKACiiigAooooAKKKKAIbiNbiOSNlWRZAVZW5Ug8YPsa/kK/wCDjL/gmK3/AATj/b41WTQ7EwfDj4jtJr/hx0X93a7m/wBIsx2HlSNwP+ebx+9f19kZr4r/AOC8v/BNW3/4KZ/sC+IfDen2scnjzwqG17wnNgb/ALZEp3W+eoWePdGf9oof4RQB/GuRtNFWNT0u40XUbizvIJbW7tJGhnhkUrJC6nDKwPQgjBFVz1oAKKKKACiiigAooooAKKKKACiiigAooooAKKKKACiiigD96/8AgyK+PX2TxX8cPhjNMB9stbDxNZxE/eaNnt5iB9JIM/Qelf0I1/Iz/wAGsXx7HwR/4LGeAbOaYxWfjuzvvDUwJwrtLCZYgf8AttDGB7mv65h0oAKMUUUAfys/8HgfwG/4VZ/wVaXxRDB5Vn8RPDFlqRYDAe4g3Wsn47Yoj/wIV+VJ61/RZ/we2/Ab+1vgj8GPiXBAzPoesXnh67lUfdjuYRNFn/gVvIB7tX86Z4NABRRRQAUUUUAFFFFABRRRQAUUUUAFFFFABRRRQAUUUUAFesfsL/BKT9pP9sv4WeA442lHizxRp+myqBn9y9wglP0Ee8/hXk9fpP8A8Go3wFHxp/4LCeEdSmgM1n8P9Kv/ABFKcfKrrF9niz6HzLhSP92gD+s+xso9PsobeGNY4oY1jRR0VQMAfhU1A6UUAFfnX/wdL/Hr/hSH/BHD4hWscyxXnjm7sfDUAzgyLNOskoH/AGxhk/A1+ilfgv8A8Hunx6+x+Cvgh8MYZjuvry+8TXcQbqsSJbwkj6yzY+hoA/nrPWiiigAooooAKKKKACiiigAooooAKKKKACiiigAooooAKKKcP8+1AHpX7IP7Lfib9tH9pTwd8L/CNt9o13xhqEdlExUlLZCcyTv6JHGGcn0Wv7Zv2R/2Y/Df7Gn7Nng74X+Ebf7PoPg7TY9Ptzt+edgMyTP6vJIWdj6sa/IH/gzz/wCCX/8Awrj4Xat+0t4t04x6z4uSTSPCCTJ81vp6ti4uVyMgzSLsBH8ER7PX7kAUAA6UUUUAFFFFABRRRQAUUUUAFFFFABRj/GiigD+Wv/g7C/4Jg/8ADI/7ZMfxc8Maf5HgP4wSyXNwkEeItO1hfmuI8DgCbPnL0yxlHavyXPWv7dv+Co/7B+i/8FIf2J/Gnwr1ZYY7rVrY3Oi3sg/5BupRKWtpx7B/lb1R3Hev4q/il8Mdb+C/xI13wj4k0+bS/EHhu/m0zULSZdrW88TlHU5/2h16EHPSgDnaKD1ooAKKKKACiiigAooooAKKKKACiiigAooooAKKKKAPSv2OPjPN+zr+1h8NfHlvK0L+EfEun6qzL/ciuEZx+KBh+Nf3VaTqcOtaVa3ls6yW93Ek0Tqch0YAgj6g1/AaH4r+2P8A4I6fHr/hpb/gl/8AA/xfJMs11eeFLO0uyG3H7RbJ9mlyfXfET+NAH0vRQOlFAHwH/wAHNXwG/wCF7/8ABG74qLHCZr3wgtr4mtto3Mhtp1MhH/bF5fwr+P8Ar+8f9o34U2vx3/Z/8b+CbxFktvFuhXukSBumJ4Hiz+G7P4V/CP4q8OXXg/xRqWk3sbR3ml3UtpOhGCskblGH4EGgChRRRQAUUUUAFFFFABRRRQAUUUUAFFFFABRRRQAUUUUAFfv5/wAGRfwF3H45fE6eLgCw8MWchHHO+5nA/wDJfP1r8A6/rR/4NP8A4Cf8KZ/4I9+E9UmhEN78QNX1DxFI2MM6NILeL/yHbqR/vUAfpWOKKAciigAr+UP/AIO4Pj5/wt3/AIK6avoMNx51n8O/D9hoaqDlUldGupfxzcKP+A1/VxNcLbxySSMEjjUszHgKB3/Q1/Dn/wAFHfjq37TH7e/xg8dtJ5kfiXxZqF1AwO79wJ2WHB9o1UfQUAeJnrRQetFABRRRQAUUUUAFFFFABRRRQAUUUUAFFFFABRRRQAV9Ff8ABLD9grWv+Ckn7bXgz4XaSs0NlqVwLrW71B/yDdNiIa4nz6hflX1d0HevndV3Y+n+TX9TH/BqJ/wTD/4Y8/Yzk+LHifTvs/jz4xRx3cKyptm07R15tosHlTKSZm9jED92gD9RPhh8NND+Dnw40Hwn4b0+30vQPDdhDpmnWkKhUt4IkCIg+iqOe9b1AORRQAUUUUAFFFFABRRRQAUUUUAFFFFABRRRQAYr+dH/AIPEP+CYP/CBfEjR/wBpbwnp+zSfFTx6N4vSFPlt75V/0e6OBwJUUxsT/HGv96v6Lq82/a3/AGZPDf7ZH7N/jL4Y+LbdbjQvGOnSWE52gvbseY5kz0kjkCyKfVRQB/CYetFemftg/st+JP2LP2lvGXwv8XW7Qa54P1GSxlfaQl0gOY509UkQq6n0Yd68zPWgAooooAKKKKACiiigAooooAKKKKACiiigAooooAM4r+pD/gzi+PX/AAsr/gmFq/g+aYvdfDvxXdWyKzZKW90qXKcdh5jTfka/lvr9uv8Agyd+Pf8Awjn7UXxc+G9xcbYvFXh631q1iJ+9NZz7GwP+udyT9FoA/pCFFAPFFADCuTX8XH/Bcz4C/wDDN/8AwVl+OXhuO3NvZyeJZtXs12hVaG9Au1K+w84jjutf2lYr+Yv/AIPO/gKPAn/BQ3wX47hj2W/j7wmkUzheGuLKZom/HypIB+FAH470UNwaKACiiigAooooAKKKKACiiigAooooAKKKKACiiigCaxtJL+7hhhjaWaZwiRqPmkYkAKPc1/c5+wh8EYv2bP2LfhV4BjjWM+FfCunadIuMZlS3QSH8X3H8a/jh/wCCUXwI/wCGmP8AgpF8FfBLRtLb6x4tsGu1C7v9HilE0xPsIo3r+3dUAA+Uceg6UAKOKKKKAPD/APgpV8dV/Zm/YB+MXjrzPLl8OeE7+4t23bT57QskQB9TI6AfWv4dZZWllZmZmZiSSepzX9Wv/B3T8ef+FSf8EktR8Pw3AhvPiJ4isNGC5w0kMbNdS49v3Cg/71fykHrQAUUUUAFFFFABRRRQAUUUUAFFFFABRRRQAUUUUAFFFTW1u9zNHHHG0kkjBVVVLFicYGByc56CgD7U/wCCB/8AwTQm/wCCmX7ffh/w/qVpLJ4B8JFdf8VzgfIbWJhsts9N08m1AP7pc/w1/Y5p2nQaTp1vaW0MNvbWsaxRRRqFSJFGAqgcAADAHpXwT/wbrf8ABMZP+Cbn7AmlJrVnHD8RfiIsXiDxK7r+8tSyZt7MnriGNuR/z0eSvvwdKACiiigAooooAKKKKACiiigAooooAKKKKACiiigAooooA/Dn/g8N/wCCYH/Cx/hbpH7SvhPTd2s+D0j0jxcsMfzXGnM2ILpgByYZG2Mf7koPRK/nJPWv73Pib8OtF+L/AMPNe8KeIrGHU9B8SWM2m6jaSgGOeCVGSRT9Vbr2ODX8Vv8AwVO/YG1r/gmz+214y+F2qLNJYadc/atDvZFwNR02UlreXPc7fkbHR0cUAfOtFB60UAFFFFABRRRQAUUUUAFFFFABRRRQAUUUUAFfc3/BuB8ez+z9/wAFivg9eSTCGz8SX0vhq6LNtVlvIXiQH/tqYj+Ar4ZrqPgt8SLr4PfGDwr4usWdbzwvq9pq0JQ4YPBMkgwf+A0Af3qDpRWN8PPGdp8RvAWh+ILCRZLHXdPg1C2cHh45Y1kU/kwrZoAK/GH/AIPUPgMfGH7EPw3+IUMIabwT4qawnkxysF7ARz7eZbxD8fev2er41/4OAfgJ/wANE/8ABIX43aLFb/aLzTdDOv2ihdzebYutzx77YmH40Afxmng0UGigAooooAKKKKACiiigAooooAKKKKACiiigAooooA/Vn/gz5+Av/C0v+Cq0niiaES2fw68L3upBiOI7ifbax/jtllI/3a/qjHSvww/4MlPgL/Y/wJ+M3xKnt8Pr2sWnh+1lYfejtommlx/wK4QfVa/c+gAoopDQB/PP/wAHuXx5a++I3wT+GcEwZNNsL7xJdxBujzSLbw5H0im/Bq/Bw9a/Q3/g6K+PK/HH/gsj8R4YZjJZ+CYLLwzAQcqDBAHlA+k0sg+oNfnkTk0AFFFFABRRRQAUUUUAFFFFABRRRQAUUUUAFFFFABX6d/8ABrl/wTA/4bp/blg8deJNO+0/Dn4QSQ6teCaPdDqOo5JtLXpggMplYf3YgD96vzZ8F+D9S+IXi3S9B0Wxn1LWNauorKytIF3S3M0jBERR3YsQB9a/tD/4I9f8E8tM/wCCZP7CnhP4cW8cEniFoxqnia9jA/03U5lUzHPUomBGv+xGPWgD6kAooXhRRQAUUUUAFFFFABRRRQAUUUUAFFFFABRRRQAUUUUAFFFFABjmvyh/4Ouf+CYX/DYn7Gq/Fbwvp4uPH3weiku5FijzNqWjtzcxcDLNFgTKPRZQOWr9Xqralp8Or6fcWl1DHcWt0jQyxSLuSVGGGVh0IIJH0NAH8Bhor7d/4L4/8E0Jv+CZ37ffiDQdNs5I/AHi9m17wnNjKC1lY77bPTdBJuTH93yz3r4iNABRRRQAUUUUAFFFFABRRRQAUUUUAFFFFABTgabRmgD+zL/ggD8ef+Giv+CQ3wR1qS4+0Xmm6GNBuyW3Msti7WvzH1KxI30YV9lCvxh/4Msfjx/wmX7DnxH+H0826bwT4pW/gjJ+ZYL2AHj28yCQ5/2q/Z5TkUAFY3xD8GWfxH8Ba54e1BRJYa9p8+nXSkfeimjaNx/3yxrZpG6f4UAfwWfGf4bXnwd+MHirwlfxtHfeF9Xu9KnVuoeCZ42/VTXLnrX3L/wcd/AT/hn3/gsX8Y7GOHyLLxFfxeJbUBdqlL2FJnI9vOMo/A18NGgAooooAKKKKACiiigAooooAKKKKACiiigApwX+VNrS8IeG7vxn4p0zR7FTJfatdRWVugHLSSOEUD6kigD+vH/g2Y+A3/Ch/wDgjd8KUlhMN74ujufE1yGTax+1TuYyfX9ysWM9sCvvkHIri/2dvhVa/Av4BeCfBdlGsVp4T0Ky0iMDoBBAkX/stdpQAVT1/WLfw9ol5qF3JHDa2NvJcTSP92NEUsxPsACauV8v/wDBaL49f8M1/wDBLL45eLI5hb3kHha5sLR88ie7AtY8e+6UH8KAP45f2r/jHP8AtCftQfELx1cyNJL4u8R3+rksdx2zXDyAZ9lYD8K89NB+U0UAFFFFABRRRQAUUUUAFFFFABRRRQAUUUUAFFFdx+zf8APEf7U/x08KfDvwjZm/8SeMNSi0yxi7b5GALseyIu52PZVJoA/Wz/g0H/4Jgf8AC8f2gtQ/aG8V6f5nhf4bymz8NpPHlL3V3X5phkci3jYEHtJIvdTX9K45A/wryD9hH9j3w3+wX+yd4L+FXheNBpvhWwSCacKFa/uW+ae5fH8UkhZj6Agdq9gHSgAooooAKKKKACiiigAooooAKKKKACiiigAooooAKKKKACiiigAoxRRQB8C/8HE//BMpf+CkX7AmrRaLZJP8RPh55uv+GXVcyXLKn7+zB/6bRjAH/PRI6/kAuIXtp5I5EaOSNirKwwykcEEHvX9+7D/63Nfyh/8AB0h/wTAH7C/7cs3jzw1pv2f4dfGCSbVrQQxbYdO1LIN3bcDAyziZR02ykD7tAH5g0UHrRQAUUUUAFFFFABRRRQAUUUUAFFFFABRRRQB+xH/BmH8ev+ED/wCChHjXwJPJtt/H3hOSSJCcb7izlWVcDufKkn/Kv6dBX8W//BC/48/8M3/8FZfgb4kluPstjN4kh0m8bdtUQ3oNoxb2HnA/hX9pA6UAFFFFAH83v/B7D8BP+Eb/AGp/hL8SLe32xeKvD1xotzKBw01nNvXJ9THc4/4DX4imv6j/APg8f+A3/CyP+CY+jeMYYme5+Hniy1uJHUZ8u3ule2fPt5hg/IV/LgetABRRRQAUUUUAFFFFABRRRQAUUUUAFFFFABX1t/wQt+Av/DR//BWb4G+HZLdri0g8SQ6xeLt3KILINdvn2Pkgf8Cr5Jr9iv8AgzA+A/8AwnX/AAUH8b+Opot0HgHwm8ULlfu3F7Mka4Pr5Uc34E+tAH9OWKKFGFooAK/In/g8p+PX/Cuv+Cavh3wXDN5d18QfFlvHIoPL29pG9w/Hp5nkD8a/Xav5tP8Ag9c+Pf8AwlH7XXwq+HME5aHwj4am1e5jDfKs97OVGR6+XbKf+B0AficeDRQaKACiiigAooooAKKKKACiiigAooooAKKKKACv6Cv+DOj/AIJg/wBn6XrP7T3izT/394s2heC45k5SLlbu9XPdiPJU+gm7EV+Mf/BO79ijxB/wUK/bB8FfCnw7HIs3iO9X7fdqhZdNsY/nubhu2EjDEerbR3r+2D4E/BXw9+zl8HPDHgPwpYxad4d8JadDpen26ADZFEgUZx3OMk9ySTyaAOtxnnj1paKKACiiigAooooAKKKKACiiigAooooAKKKKACiiigAooooAKKKKACiiigA6V8uf8Fg/+CeGl/8ABTX9hXxd8OLhLdPEAj/tPwzeSj/jy1OFWMJz1Cvlo2x/DIa+o6Mc0AfwNeNPBmp/D7xfqmga1Y3Gm61o11LY3tpMpWW2njYo8bD+8GBzWQetfvZ/wcwf8EDfiP8AFr9r+1+L/wABfAOpeMIfH8THxPpmlovmWeoRbR9p2kr8s6EZIP30Y/xV+abf8EBv2yc/8m+ePv8AvxF/8coA+P6K+wP+HA37ZP8A0b34+/78xf8Axyj/AIcDftk/9G9+Pv8AvzF/8coA+P6K+wP+HA37ZP8A0b34+/78xf8Axyj/AIcDftk/9G9+Pv8AvzF/8coA+P6K+wP+HA37ZP8A0b34+/78xf8Axyj/AIcDftk/9G9+Pv8AvzF/8coA+P6K+wP+HA37ZP8A0b34+/78xf8Axyj/AIcDftk/9G9+Pv8AvzF/8coA+P6K+wP+HA37ZP8A0b34+/78xf8Axyj/AIcDftk/9G9+Pv8AvzF/8coA+P6K+wP+HA37ZP8A0b34+/78xf8Axyj/AIcDftk/9G9+Pv8AvzF/8coA+UfCHiO68HeKtL1exk8u80u7ivLdwcbZI3Dqc/7wFf3a/s6fFi2+PHwA8E+NrKRZLXxZoVlrETLyCJ4Ekx+G7Ffx8f8ADgf9sr/o3zx9/wB+Yv8A45X9QH/BCrwl8Q/hv/wS0+FnhP4peGdX8I+MfCNjNotzYakoE6xQzyLA/BI2mHy8c9qAPrwUUDpRQB8z/wDBYz4Cn9pb/gl98cvCMcInu7zwpeXdmuMk3Fsv2qLHvvhX86/ibPBr+/LVtLg1rS7qzuI/Mt7yJ4Zk/vowII/HP61/Hz8dP+Der9rHw18bPGGn+HvgZ401fQLDW7yDTb62iiaG8tVncRSIS4+VkCkcdDQB8J0V9gH/AIIDftkj/m3vx9/35i/+OUf8OBv2yf8Ao3vx9/35i/8AjlAHx/RX2B/w4G/bJ/6N78ff9+Yv/jlH/Dgb9sn/AKN78ff9+Yv/AI5QB8f0V9gf8OBv2yf+je/H3/fmL/45R/w4G/bJ/wCje/H3/fmL/wCOUAfH9FfYH/Dgb9sn/o3vx9/35i/+OUf8OBv2yf8Ao3vx9/35i/8AjlAHx/RX2B/w4G/bJ/6N78ff9+Yv/jlH/Dgb9sn/AKN78ff9+Yv/AI5QB8f0V9gf8OBv2yf+je/H3/fmL/45R/w4G/bJ/wCje/H3/fmL/wCOUAfH9f0wf8GWfwEbwZ+wt8RviDPCEm8b+KRYwSleWt7GAAY9vNnl/Ffavxg/4cCftlf9G9+PueP9TF/8cr+oj/gh3+yfqn7Fn/BLn4T+A/EOlyaL4ntdMe/1qzlAElteXM0k8kb443J5iqeTypoA+sxRQOlFADW69/pX8cP/AAcU/Hv/AIaG/wCCw3xm1KOdZrHQdTTw5aFTlQllEsDAfWVJT+Nf2IeJdRm0jw9qF1b2st7cW1vJLHbxjc87KpIQD1YjA+tfx6fFn/giR+2p8Wfin4l8VX37P3xBa88Sarc6pOWiiLF5pWkbPz+rUAfD1FfYH/Dgb9sn/o3vx9/35i/+OUf8OBv2yf8Ao3vx9/35i/8AjlAHx/RX2B/w4G/bJ/6N78ff9+Yv/jlH/Dgb9sn/AKN78ff9+Yv/AI5QB8f0V9gf8OBv2yf+je/H3/fmL/45R/w4G/bJ/wCje/H3/fmL/wCOUAfH9FfYH/Dgb9sn/o3vx9/35i/+OUf8OBv2yf8Ao3vx9/35i/8AjlAHx/RX2B/w4G/bJ/6N78ff9+Yv/jlH/Dgb9sn/AKN78ff9+Yv/AI5QB8f0V9gf8OBv2yf+je/H3/fmL/45R/w4G/bJ/wCje/H3/fmL/wCOUAfH9SBPu9t3civrz/hwN+2T/wBG9+Pv+/MX/wAcr2z/AIJ4/wDBtj+0N8Zv2wfBOi/Ff4V+KPAvw5F6t34g1W/WONPssP7xoVwxJklwIxgcbs9jQB+o3/Bo7/wTA/4Zu/ZfvPjv4q00Q+MPitEI9GSZMS2GjI2VIzypuHUSH1RI/Wv2KXgevvVHw34dsPCfh3T9L0u0hsdN023jtbS2iTbHbxRqFRFHYKoAA7AVeoABxRRRQAUUUUAFFFFABRRRQAUUUUAFFFFABRRRQAUUUUAFFFFABRRRQAUUUUAFFFFABiiiigAooooAKKKKACiiigAooooAKKKKACiiigAoxRRQAUUUUAGM0UUUAFFFFABRRRQAUUUUAFFFFABRRRQAUUUUAFFFFABRRRQAYoHFFFABRRRQAUUUUAFFFFABRRRQAUUUUAFFFFABRiiigAooooAKKKKACiiigAooooAKKKKACiiigAooooAKKKKACiiigAooooAKKKKACiiigAooooAKKK4n9o741Wf7N/wC8afEDULO61Cx8FaJd63cWtuVWW4jt4XlZELfLuIXAyaAO2or8Tv+I2/4Nj/mjXxM/wDAyx/+OUf8RuHwb/6I18TP/Ayx/wDjlAH7Y0V+J3/Ebh8G/wDojXxM/wDAyx/+OUf8RuHwb/6I18TP/Ayx/wDjlAH7Y0V+J3/Ebh8G/wDojXxM/wDAyx/+OUf8RuHwb/6I18TP/Ayx/wDjlAH7Y0V+J3/Ebh8G/wDojXxM/wDAyx/+OUf8RuHwb/6I18TP/Ayx/wDjlAH7Y0V+J3/Ebh8G/wDojXxM/wDAyx/+OUf8RuHwb/6I18TP/Ayx/wDjlAH7Y0V+J3/Ebh8G/wDojXxM/wDAyx/+OUf8RuHwb/6I18TP/Ayx/wDjlAH7Y0V+J3/Ebh8G/wDojXxM/wDAyx/+OUf8RuHwb/6I18TP/Ayx/wDjlAH7Y0V+J3/Ebh8G/wDojXxM/wDAyx/+OUf8RuHwb/6I18TP/Ayx/wDjlAH7Y0V+J3/Ebh8G/wDojXxM/wDAyx/+OUf8RuHwb/6I18TP/Ayx/wDjlAH7Y0V+J3/Ebh8G/wDojXxM/wDAyx/+OUf8RuHwb/6I18TP/Ayx/wDjlAH7Y0V+J3/Ebh8G/wDojXxM/wDAyx/+OUf8RuHwb/6I18TP/Ayx/wDjlAH7Y0V+J3/Ebh8G/wDojXxM/wDAyx/+OUf8RuHwb/6I18TP/Ayx/wDjlAH7Y0V+J3/Ebh8G/wDojXxM/wDAyx/+OUf8RuHwb/6I18TP/Ayx/wDjlAH7Y0V+J3/Ebh8G/wDojXxM/wDAyx/+OUf8RuHwb/6I18TP/Ayx/wDjlAH7Y0V+J3/Ebh8G/wDojXxM/wDAyx/+OUf8RuHwb/6I18TP/Ayx/wDjlAH7Y0V+J3/Ebh8G/wDojXxM/wDAyx/+OUf8RuHwb/6I18TP/Ayx/wDjlAH7Y0V+J3/Ebh8G/wDojXxM/wDAyx/+OUf8RuHwb/6I18TP/Ayx/wDjlAH7Y0V+J3/Ebh8G/wDojXxM/wDAyx/+OUf8RuHwb/6I18TP/Ayx/wDjlAH7Y0V+J3/Ebh8G/wDojXxM/wDAyx/+OUf8RuHwb/6I18TP/Ayx/wDjlAH7Y0V+J3/Ebh8G/wDojXxM/wDAyx/+OUf8RuHwb/6I18TP/Ayx/wDjlAH7Y0V+J3/Ebh8G/wDojXxM/wDAyx/+OUf8RuHwb/6I18TP/Ayx/wDjlAH7Y0V+J3/Ebh8G/wDojXxM/wDAyx/+OUf8RuHwb/6I18TP/Ayx/wDjlAH7Y0V+J3/Ebh8G/wDojXxM/wDAyx/+OUf8RuHwb/6I18TP/Ayx/wDjlAH7Y0V+J3/Ebh8G/wDojXxM/wDAyx/+OUf8RuHwb/6I18TP/Ayx/wDjlAH7Y0V8rf8ABJb/AIKq+Gf+Ct/wG1zx94V8M674VsdD1x9CktdUlikmkkWCGbeDGSNpEwHPoa+qQcigAooooAKKKKACiiigAooooAKKKKACiiigAooooAKKKKACiiigAooooAKKKKACiiigAooooAK8F/4KlHH/AATa+PP/AGIWtH/ySlr3qvBf+Cpf/KNn49f9iDrX/pFLQB/D7mjdRRQAbqN1FFABuo3UUUAG6jdRRQAbqN1FFABuo3UUUAG6jdRRQAbqN1FFABuo3UUUAG6jdRRQAbqN1FFABuo3UUUAG6jdRRQAbqN1FFABuo3UUUAG6jdRRQAbqN1FFABuo3UUUAG6jdRRQAbqN1FFABuo3UUUAG6jdRRQAbqN1FFABuo3UUUAf05f8GVvzf8ABN34hd/+LhXH/pBZV+xVfjr/AMGVn/KN34hf9lCuP/TfY1+xVABRRRQAUUUUAFFFFABRRRQAUUUUAFFFFABRRRQAUUVwX7QH7T3w9/ZW8Fv4i+I3jPw74K0VCV+1avfJbLIw/hQMcu3suT7UAd7RXwBq3/Bz3+xTpF/Nbt8YFuDCcGSDQdRkjf8A3T5HI96g/wCIov8AYnH/ADVq4/8ACc1H/wCMUAfoNRX58/8AEUZ+xP8A9FauP/Cc1L/4xR/xFGfsT/8ARWrj/wAJzUv/AIxQB+g1Ffnz/wARRn7E/wD0Vq4/8JzUv/jFH/EUZ+xP/wBFauP/AAnNS/8AjFAH6DUV+fP/ABFGfsT/APRWrj/wnNS/+MUf8RRn7E//AEVq4/8ACc1L/wCMUAfoNRX58/8AEUZ+xP8A9FauP/Cc1L/4xR/xFGfsT/8ARWrj/wAJzUv/AIxQB+g1eC/8FS/+UbPx6/7EHWv/AEilr5z/AOIoz9if/orVx/4Tmpf/ABivJf28/wDg49/ZB+NX7E3xb8I+HfihNfa94o8I6npem2x0G/j8+ea2kjjXc0IC5YgZJ460Afyx0UUUAFFFFABRRRQAUUUUAFFFFABRRRQAUUUUAFFFFABRRRQAUUUUAFFFFABRRRQAUUUUAFFFFABRRRQAUUUUAFFFFABRRRQAUUUUAFFFFABRRRQAUUUUAFFFFABRRRQB/Tl/wZWf8o3fiF/2UK4/9N9jX7FV/Or/AMGxX/BY79nv/gnf+xL4w8I/FnxxJ4Z8Qat4xm1W2tl0q7uxJbtaWsYk3QxsB88bjHUbfev0kH/B0Z+xP/0Vq4/Hw5qX/wAYoA/Qaivz5/4ijP2J/wDorVx/4Tmpf/GKP+Ioz9if/orVx/4Tmpf/ABigD9BqK/Pn/iKM/Yn/AOitXH/hOal/8Yo/4ijP2J/+itXH/hOal/8AGKAP0Gor8+f+Ioz9if8A6K1cf+E5qX/xij/iKM/Yn/6K1cf+E5qX/wAYoA/Qaivz5/4ijP2J/wDorVx/4Tmpf/GKP+Ioz9if/orVx/4Tmpf/ABigD9BqK/Pn/iKM/Yn/AOitXH/hOal/8YoH/B0V+xQX/wCStTdQOfDuo45/7YUAfoNRXhf7J3/BSz4E/typIvwr+J/hfxdeQp5sthb3Biv4lxyWtpAsoHvtxXuincKACiiigDxr9v79szw//wAE/wD9kjxp8WPE2ZrDwrZGSG0VtrahdOQkFup/hMkrKuewJPav41P27v2+fiV/wUT+POp+PviTrtxqV9dSOLKwEjCy0eAn5be3jzhEUYyerEZYk81/QJ/wel+KtU0f/gnT4A02zaRdN1fx3CL8qDtby7O6eNW/4Fk891r+Y/NAATk0UE5NFABRRRQAUUUUAFFFFABRRRQAUbjjFFFABmiiigAooooAKKKKACiiigAooooAKKKKACiiigAooooAKKKKACiiigAooooAKKKKACiiigAooooAKKKKACiiigAooooAKKKKACiiigAooooAKKKKACiiigAooooAKKKKADdRRRQAUUUUAFFFFABRRRQAUUUUAFGaKKAN74cfErxB8IfG2l+JPC+tal4e1/R51uLLUdPuGguLWQdGR1IIP8wcV/Wf/wAG6/8AwV+uv+Cp37Kd5b+MJIY/in8PHisNfMQVF1SF1JgvlUcKX2OrrjAdCRwwFfyJZzX6/f8ABmB4o1TTv+CmPjHS7eST+y9T8B3Ul6gzsLRXdoYie2QXfH1PrQB/T8OlFA6UUAfHv/BdP9gKb/go3/wTi8beBdLjjfxXpoTxB4d3f8tL62yyxZ7eahkiz/00B7V/Gbqml3Gi6lcWd5BLa3VpK0M0MqFJIXUkMrKehBGCO1f36Yr+Wv8A4Owv+CYP/DIv7Y8fxc8L6d5HgP4wSyXVwIUxFp2sD5riLA4UTAmZemSZR2FAH5LnrRQetFABRRRQAUUUUAFFFFABRRRQAUUUUAFFFFABRRRQAUUUUAFFFFABRRRQAUUUUAFFFFABRRRQAUUUUAFFFFABRRRQAUUUUAFFFFABRRRQAUUUUAFFFFABRRRQAUUUUAFFFFABRRRQAUUUUAFFFFABRRRQAUUUUAFFFFABRRRQAUUUUAFFFFABRRRQAUUUUAOHP+PpX9JH/BnF/wAE8b/4O/ATxV8ffEdpJa3/AMSgukeHY5F2uNNgkLSz89pZlAHqIM/xV+IP/BK/9grWv+Ckn7bXgz4XaUs0NjqNwLvXL6Mf8g7TYiGuJs/3tvyL6u6Dua/tT+GXw20T4PfDnQvCfhvT7fS/D/huwh03TrOFQsdvBEgREA9lUfWgDdooooAK+ev+Co/7B2i/8FIf2KfGfws1dYYbrVrb7Tot9IM/2bqUQLW8w74Dja2OqO4719C0bc9qAP4JPin8Mta+C/xH13wj4ksJtL8QeG7+bTNQtZV2vBPE5R1Of9ocHoQfSuePWv3Q/wCDw/8A4Jg/8IF8SNH/AGlvCWnbNJ8UvHo3jBIY8Lb3yri3ujjtKi+WxP8AHGv9+vwvPWgAooooAKKKKACiiigAooooAKKKKACiiigAooooAKKKKACiiigAooooAKKKKACiiigAooooAKKKKACiiigAooooAKKKKACiiigAooooAKKKKACiiigAooooAKKKKACiiigAooooAKKKKACiiigAooooAKKKKACiiigAooooAKKKKACiiigAooooAKeoDD8P85plfbv/AAQM/wCCaM//AAUy/b78P6DqVnJJ4B8Hldf8VTbfka1icbLbPTdPJtTH90uf4aAP2/8A+DUj/gmF/wAMcfsYt8VvFGnG38ffGKJLuNJk2y6do6nNrDg8qZSfOb2aIH7tfrAOlQ6fp8GlafBa20MdvbWsaxRRRrtSNFGAoHYAADFTUAFFFFABRRRQB5r+1z+zJ4Z/bL/Zu8ZfDHxdbrcaD4x06SwuDtBe3Y8xzJ6SRyBXU+qiv4mf2v8A9l3xJ+xd+0t4y+F/i638jXPB+pSWMrlcJdRggxzp6pJGVdT6MO9f3YV4/wDGf9gD4I/tFeNpPEnjz4T+AfF3iCSFLd9R1bRILq5eNBhELspYhRwATxQB/DIRRiv7cR/wSN/ZeA/5IB8Jf/CZtf8A4il/4dG/svf9EA+Ev/hM2v8A8RQB/EbijFf25f8ADo39l7/ogHwl/wDCZtf/AIij/h0b+y9/0QD4S/8AhM2v/wARQB/EbijFf25f8Ojf2Xv+iAfCX/wmbX/4ij/h0b+y9/0QD4S/+Eza/wDxFAH8RuKMV/bl/wAOjf2Xv+iAfCX/AMJm1/8AiKP+HRv7L3/RAPhL/wCEza//ABFAH8RuKMV/bl/w6N/Ze/6IB8Jf/CZtf/iKP+HRv7L3/RAPhL/4TNr/APEUAfxG4oxX9uX/AA6N/Ze/6IB8Jf8AwmbX/wCIo/4dG/svf9EA+Ev/AITNr/8AEUAfxG4oxX9uX/Do39l7/ogHwl/8Jm1/+Io/4dG/svf9EA+Ev/hM2v8A8RQB/EbijFf25f8ADo39l7/ogHwl/wDCZtf/AIij/h0b+y9/0QD4S/8AhM2v/wARQB/EbijFf25f8Ojf2Xv+iAfCX/wmbX/4ij/h0b+y9/0QD4S/+Eza/wDxFAH8RuKMV/bl/wAOjf2Xv+iAfCX/AMJm1/8AiKP+HRv7L3/RAPhL/wCEza//ABFAH8RuKMV/bl/w6N/Ze/6IB8Jf/CZtf/iKP+HRv7L3/RAPhL/4TNr/APEUAfxG4oxX9uX/AA6N/Ze/6IB8Jf8AwmbX/wCIo/4dG/svf9EA+Ev/AITNr/8AEUAfxG4oxX9uX/Do39l7/ogHwl/8Jm1/+Io/4dG/svf9EA+Ev/hM2v8A8RQB/EbijFf25f8ADo39l7/ogHwl/wDCZtf/AIij/h0b+y9/0QD4S/8AhM2v/wARQB/EbijFf25f8Ojf2Xv+iAfCX/wmbX/4ij/h0b+y9/0QD4S/+Eza/wDxFAH8RuKMV/bl/wAOjf2Xv+iAfCX/AMJm1/8AiKP+HRv7L3/RAPhL/wCEza//ABFAH8RuKMV/bl/w6N/Ze/6IB8Jf/CZtf/iKP+HRv7L3/RAPhL/4TNr/APEUAfxG4oxX9uX/AA6N/Ze/6IB8Jf8AwmbX/wCIo/4dG/svf9EA+Ev/AITNr/8AEUAfxG4oxX9uX/Do39l7/ogHwl/8Jm1/+Io/4dG/svf9EA+Ev/hM2v8A8RQB/EbijFf25f8ADo39l7/ogHwl/wDCZtf/AIij/h0b+y9/0QD4S/8AhM2v/wARQB/EbijFf25f8Ojf2Xv+iAfCX/wmbX/4ij/h0b+y9/0QD4S/+Eza/wDxFAH8RuKMV/bl/wAOjf2Xv+iAfCX/AMJm1/8AiKP+HRv7L3/RAPhL/wCEza//ABFAH8RuKMV/bl/w6N/Ze/6IB8Jf/CZtf/iKP+HRv7L3/RAPhL/4TNr/APEUAfxG4oxX9uX/AA6N/Ze/6IB8Jf8AwmbX/wCIo/4dG/svf9EA+Ev/AITNr/8AEUAfxG4oxX9uX/Do39l7/ogHwl/8Jm1/+Io/4dG/svf9EA+Ev/hM2v8A8RQB/EbijFf25f8ADo39l7/ogHwl/wDCZtf/AIij/h0b+y9/0QD4S/8AhM2v/wARQB/EbijFf25f8Ojf2Xv+iAfCX/wmbX/4ij/h0b+y9/0QD4S/+Eza/wDxFAH8RuKMV/bl/wAOjf2Xv+iAfCX/AMJm1/8AiKP+HRv7L3/RAPhL/wCEza//ABFAH8RuKMV/bl/w6N/Ze/6IB8Jf/CZtf/iKP+HRv7L3/RAPhL/4TNr/APEUAfxG4oxX9uX/AA6N/Ze/6IB8Jf8AwmbX/wCIo/4dG/svf9EA+Ev/AITNr/8AEUAfxG4oxX9uX/Do39l7/ogHwl/8Jm1/+Io/4dG/svf9EA+Ev/hM2v8A8RQB/EbijFf25f8ADo39l7/ogHwl/wDCZtf/AIij/h0b+y9/0QD4S/8AhM2v/wARQB/EbijFf25f8Ojf2Xv+iAfCX/wmbX/4ij/h0b+y9/0QD4S/+Eza/wDxFAH8RuKMV/bl/wAOjf2Xv+iAfCX/AMJm1/8AiKP+HRv7L3/RAPhL/wCEza//ABFAH8SVtbtdTJFGjSSSMEVVXLMT0AA9T6V/X5/wbt/8EyI/+Cbn7AekxazZR2/xG+ISx6/4md1HmWrOn+j2ZPpDGQCOnmPLXvGi/wDBKb9mnw5rVpqNh8B/hXa32nzLcW08Xhu1WSCRSGV1OzghgCCOhAr6CHSgAHSiiigAooooAKKKKACiiigAHFFFFABRRRQAUUUUAFFFFABRRRQAUUUUAFFFFABRRRQAUUUUAFFFFABRRRQAUUUUAFFFFABRRRQAUUUUAFFFFABRRRQAUUUUAFFFFABRRRQAUUUUAFFFFABRRRQAUUUUAFFFFABRRRQAUUUUAFFFFABRRRQAUUUUAFFFFABRRRQAUUUUAFFFFABiiiigAooooAKKKKACiiigAooooAK8v+Pf7Zvwn/Zd1Kws/iP8R/B3gW61aJ5rKPW9VhsTdIp2syeYRuAJAJ6DivUK+B/+DiL/AIJkL/wUm/YG1iDRbFbj4i/D8Sa/4YdQPNndF/f2YPpNGCADx5iR+lAHty/8Fdf2Xcf8nBfCP/wqLT/4uj/h7r+y5/0cF8Iv/CotP/i6/iQuIJLS4kilRo5I2KOjKVZSOCCD0I9KZQB/bl/w91/Zc/6OC+EX/hUWn/xdH/D3X9lz/o4L4Rf+FRaf/F1/EbRQB/bl/wAPdf2XP+jgvhF/4VFp/wDF0f8AD3X9lz/o4L4Rf+FRaf8AxdfxG0UAf25f8Pdf2XP+jgvhF/4VFp/8XR/w91/Zc/6OC+EX/hUWn/xdfxG0UAf25f8AD3X9lz/o4L4Rf+FRaf8AxdH/AA91/Zc/6OC+EX/hUWn/AMXX8RtFAH9uX/D3X9lz/o4L4Rf+FRaf/F0f8Pdf2XP+jgvhF/4VFp/8XX8RtFAH9uX/AA91/Zc/6OC+EX/hUWn/AMXR/wAPdf2XP+jgvhF/4VFp/wDF1/EbRQB/bl/w91/Zc/6OC+EX/hUWn/xdH/D3X9lz/o4L4Rf+FRaf/F1/EbRQB/bl/wAPdf2XP+jgvhF/4VFp/wDF0f8AD3X9lz/o4L4Rf+FRaf8AxdfxG0UAf25f8Pdf2XP+jgvhF/4VFp/8XR/w91/Zc/6OC+EX/hUWn/xdfxG0UAf25f8AD3X9lz/o4L4Rf+FRaf8AxdH/AA91/Zc/6OC+EX/hUWn/AMXX8RtFAH9uX/D3X9lz/o4L4Rf+FRaf/F0f8Pdf2XP+jgvhF/4VFp/8XX8RtFAH9uX/AA91/Zc/6OC+EX/hUWn/AMXR/wAPdf2XP+jgvhF/4VFp/wDF1/EbRQB/bl/w91/Zc/6OC+EX/hUWn/xdH/D3X9lz/o4L4Rf+FRaf/F1/EbRQB/bl/wAPdf2XP+jgvhF/4VFp/wDF0f8AD3X9lz/o4L4Rf+FRaf8AxdfxG0UAf25f8Pdf2XP+jgvhF/4VFp/8XR/w91/Zc/6OC+EX/hUWn/xdfxG0UAf25f8AD3X9lz/o4L4Rf+FRaf8AxdH/AA91/Zc/6OC+EX/hUWn/AMXX8RtFAH9uX/D3X9lz/o4L4Rf+FRaf/F0f8Pdf2XP+jgvhF/4VFp/8XX8RtFAH9uX/AA91/Zc/6OC+EX/hUWn/AMXR/wAPdf2XP+jgvhF/4VFp/wDF1/EbRQB/bl/w91/Zc/6OC+EX/hUWn/xdH/D3X9lz/o4L4Rf+FRaf/F1/EbRQB/bl/wAPdf2XP+jgvhF/4VFp/wDF0f8AD3X9lz/o4L4Rf+FRaf8AxdfxG0UAf25f8Pdf2XP+jgvhF/4VFp/8XR/w91/Zc/6OC+EX/hUWn/xdfxG0UAf25f8AD3X9lz/o4L4Rf+FRaf8AxdH/AA91/Zc/6OC+EX/hUWn/AMXX8RtFAH9uX/D3X9lz/o4L4Rf+FRaf/F0f8Pdf2XP+jgvhF/4VFp/8XX8RtFAH9uX/AA91/Zc/6OC+EX/hUWn/AMXR/wAPdf2XP+jgvhF/4VFp/wDF1/EbRQB/bl/w91/Zc/6OC+EX/hUWn/xdH/D3X9lz/o4L4Rf+FRaf/F1/EbRQB/bl/wAPdf2XP+jgvhF/4VFp/wDF0f8AD3X9lz/o4L4Rf+FRaf8AxdfxG0UAf25f8Pdf2XP+jgvhF/4VFp/8XR/w91/Zc/6OC+EX/hUWn/xdfxG0UAf25f8AD3X9lz/o4L4Rf+FRaf8AxdH/AA91/Zc/6OC+EX/hUWn/AMXX8RtFAH9uX/D3X9lz/o4L4Rf+FRaf/F0f8Pdf2XP+jgvhF/4VFp/8XX8RtFAH9uX/AA91/Zc/6OC+EX/hUWn/AMXR/wAPdf2XP+jgvhF/4VFp/wDF1/EbRQB/bl/w91/Zc/6OC+EX/hUWn/xdH/D3X9lz/o4L4Rf+FRaf/F1/EbRQB/cV8Of+Clf7P/xh8caf4b8K/Gf4beIvEGrzeRY6dpviC3uLm6fBO1EViS2ATgdhmvch0r8B/wDgzp/4Jh/Z7PWP2nvFun/PMJtB8ErMmflHF5eqO3I8lD3xN7V+/AoAKKKKACiiigAooooAKKKKACiiigAprDP48U6jpQB/KH/wdKf8Ewh+w1+3HN498M6d9n+Hfxgkm1W2EUWIdP1MENeW/AwoZnEqjpiVgPu1+X561/a1/wAFgf8Agnjpn/BTP9hbxd8N7hbePxB5f9p+G72RebHU4QTCc9lfLRtj+GQ1/F5418Fan8PPGGqeH9asZ9O1rRbqWxvbSZSslvPG5R0Yf3gwNAGRRQetFABRRRQAUUUUAFFFFABRRRQAUUUUAFFFFABRRRQAUUUUAFFFFABRRRQAUUUUAFFFFABRRRQAUUUUAFFFFABRRRQAUUUUAFFFFABRRRQAUUUUAFFFFABRRRQAUUUUAFFFFABRRRQAUUUUAFFFFABRRRQAUUUUAFe0/wDBPj9i/wAQf8FA/wBr3wT8KfDasl14mvlS7uwhZdOs0+e4uW9o4wx56nA7140qjA9eoPb/AD1r+mb/AINFf+CYJ/Z1/Znv/j34q04Q+LvipD5OhpMmJLHRkbIYZ5BuJF357okfrQB+sXwE+CHh39m34MeF/APhOxj03w74R02DTNPt1A+SKJAoJx1Y43E92JPU12A4FA+7RQAUUUUAFFFFABRRRQAUUUUAFFFFABRRRQAV/NV/wd9/8Ewf+FJftA6b+0N4U0/y/DHxHlFj4kWGPCWWrKpKzN6C4jUkn+/E3dq/pVryL9uv9kDw3+3j+yj41+FXiqNTpviywe3iuNoZ7C5HzwXKZ6PHKqMPXGOhNAH8MB60V3X7SP7P/iP9lf47eLPh34usmsfEPhDUptMvI9pCs0bECRCeqOuGU91INcLQAUUUUAFFFFABRRRQAUUUUAFFFFABRRRQAUUUUAFFFFABRRRQAUUUUAFFFFABRRRQAUUUUAFFFFABRRRQAUUUUAFFFFABRRRQAUUUUAFFFFABRRRQAUUUUAFFFFABRRRQAUUUUAFFFFABRRRQAUUUUAFFFPjj8xlVVLM3AAGST6UAfV3/AARf/wCCc2of8FNv28fCfgHyZl8K2cg1fxTdqCBa6dCymRc9mlJWJeesmexr+zzwv4Z0/wAF+GdP0fSbODT9L0q2js7O1hTZHbwxqFRFHYKoAA9q/OL/AINi/wDgmAv7A37CNr4p8RWPkfEb4uRw61qm9dsun2O0m0tPUYRjI3+3KR/CK/SygAooooAKKKKACiiigAooooAKKKKACiiigAooooAKMUUUAfgj/wAHi/8AwTD/ALU0vRf2nfCem7prIQ6F40jhTl4idtpeNj0P7lm9DD6V/Pi33q/vO+OfwX8P/tE/B3xN4E8V2MepeG/F2nTaXqNvIBiSGVSpxnowzlT2IB7V/Kh8cP8Ag1s/a78D/GDxNo/hX4ZyeLPDOn6lNDpWsxa1p8Kalahz5UuySdXUsmCwKgg8UAfnBRX3p/xDKfttt0+CV5jt/wAT/S//AJJo/wCIZP8Abc/6Ilef+FBpf/yTQB8F0V96f8Qyf7bn/RErz/woNL/+SaP+IZP9tz/oiV5/4UGl/wDyTQB8F0V96f8AEMn+25/0RK8/8KDS/wD5Jo/4hk/23P8AoiV5/wCFBpf/AMk0AfBdFfen/EMn+25/0RK8/wDCg0v/AOSaP+IZP9tz/oiV5/4UGl//ACTQB8F0V96f8Qyf7bn/AERK8/8ACg0v/wCSaP8AiGT/AG3P+iJXn/hQaX/8k0AfBdFfen/EMn+25/0RK8/8KDS//kmj/iGT/bc/6Ilef+FBpf8A8k0AfBdFfen/ABDJ/tuf9ESvP/Cg0v8A+SaP+IZP9tz/AKIlef8AhQaX/wDJNAHwXRX3p/xDJ/tuf9ESvP8AwoNL/wDkmj/iGT/bc/6Ilef+FBpf/wAk0AfBdFfen/EMn+25/wBESvP/AAoNL/8Akmj/AIhk/wBtz/oiV5/4UGl//JNAHwXRX3p/xDJ/tuf9ESvP/Cg0v/5Jo/4hk/23P+iJXn/hQaX/APJNAHwXRX3p/wAQyf7bn/RErz/woNL/APkmj/iGT/bc/wCiJXn/AIUGl/8AyTQB8F0V96f8Qyf7bn/RErz/AMKDS/8A5Jo/4hk/23P+iJXn/hQaX/8AJNAHwXRX3p/xDJ/tuf8ARErz/wAKDS//AJJo/wCIZP8Abc/6Ilef+FBpf/yTQB8F0V96f8Qyf7bn/RErz/woNL/+SaP+IZP9tz/oiV5/4UGl/wDyTQB8F0V96f8AEMn+25/0RK8/8KDS/wD5Jo/4hk/23P8AoiV5/wCFBpf/AMk0AfBdFfen/EMn+25/0RK8/wDCg0v/AOSaP+IZP9tz/oiV5/4UGl//ACTQB8F0V96f8Qyf7bn/AERK8/8ACg0v/wCSaP8AiGT/AG3P+iJXn/hQaX/8k0AfBdFfen/EMn+25/0RK8/8KDS//kmj/iGT/bc/6Ilef+FBpf8A8k0AfBdFfen/ABDJ/tuf9ESvP/Cg0v8A+SaP+IZP9tz/AKIlef8AhQaX/wDJNAHwXRX3p/xDJ/tuf9ESvP8AwoNL/wDkmj/iGT/bc/6Ilef+FBpf/wAk0AfBdFfen/EMn+25/wBESvP/AAoNL/8Akmj/AIhk/wBtz/oiV5/4UGl//JNAHwXRX3p/xDJ/tuf9ESvP/Cg0v/5Jo/4hk/23P+iJXn/hQaX/APJNAHwXRX3p/wAQyf7bn/RErz/woNL/APkmj/iGT/bc/wCiJXn/AIUGl/8AyTQB8F0V96f8Qyf7bn/RErz/AMKDS/8A5Jo/4hk/23P+iJXn/hQaX/8AJNAHwXRX3p/xDJ/tuf8ARErz/wAKDS//AJJo/wCIZP8Abc/6Ilef+FBpf/yTQB8F0V96f8Qyf7bn/RErz/woNL/+SaP+IZP9tz/oiV5/4UGl/wDyTQB8F0V96f8AEMn+25/0RK8/8KDS/wD5Jo/4hk/23P8AoiV5/wCFBpf/AMk0AfBdFfen/EMn+25/0RK8/wDCg0v/AOSaP+IZP9tz/oiV5/4UGl//ACTQB8F1+hX/AAbf/wDBMU/8FGP2+dLute0/7R8OPhn5WveIi65jvHVs2tmex82Rcsv/ADzikrK/4hlv22uf+LJ3fT/oP6X+J/4+f/r+1f0e/wDBDT/gmhb/APBL79g7QPBt9bQL4614jW/Fs8bK5a+lUDyd68MkKBYwQSCVYj71AH2RHGsUaqqqqqMKAMACnUCigAooooAKKKKACiiigAooooAKKKKACiiigAooooAKKKKADFG0HtRRQAUUUUAFFFFABRRRQAUUUUAFFFFABRRRQAUUUUAFFFFABRRRQAUUUUAFFFFABRRRQAUUUUAFFFFABRRRQAUUUUAFFFFABRRRQAUUUUAFFFFABRRRQAUUUUAFFFFABRRRQAUUUUAFFFFABRRRQAUUUUAGKMUUUAFFFFABRRRQAUUUUAFFFFABRRRQAUUUUAFFFFABRRRQAUUUUAFFFFABRRX5n/8ABar/AIL2+Lf+CPvxm8O6LdfBaPxl4U8WaebrS9eXXms1kmjbE9uyfZ3CsmVb7xyrg4HNAH6YUV/P2f8Ag+JuAf8Ak3iH/wAK4/8AyLR/xHFXH/Ru8P8A4Vx/+RaAP6BKK/n7/wCI4q4/6N3h/wDCuP8A8i0f8RxVx/0bvD/4Vx/+RaAP6BKK/n7/AOI4q4/6N3h/8K4//ItH/EcVcf8ARu8P/hXH/wCRaAP6BKK/n7/4jirj/o3eH/wrj/8AItH/ABHFXH/Ru8P/AIVx/wDkWgD+gSiv5+/+I4q4/wCjd4f/AArj/wDItH/EcVcf9G7w/wDhXH/5FoA/oEor+fv/AIjirj/o3eH/AMK4/wDyLR/xHFXH/Ru8P/hXH/5FoA/oEor+fv8A4jirj/o3eH/wrj/8i0f8RxVx/wBG7w/+Fcf/AJFoA/oEor+fv/iOKuP+jd4f/CuP/wAi0f8AEcVcf9G7w/8AhXH/AORaAP6BKK/n7/4jirj/AKN3h/8ACuP/AMi0f8RxVx/0bvD/AOFcf/kWgD+gSiv5+/8AiOKuP+jd4f8Awrj/APItH/EcVcf9G7w/+Fcf/kWgD+gSiv5+/wDiOKuP+jd4f/CuP/yLR/xHFXH/AEbvD/4Vx/8AkWgD+gSiv5+/+I4q4/6N3h/8K4//ACLR/wARxVx/0bvD/wCFcf8A5FoA/oEor+fv/iOKuP8Ao3eH/wAK4/8AyLR/xHFXH/Ru8P8A4Vx/+RaAP6BKK/n7/wCI4q4/6N3h/wDCuP8A8i0f8RxVx/0bvD/4Vx/+RaAP6BKK/n7/AOI4q4/6N3h/8K4//ItH/EcVcf8ARu8P/hXH/wCRaAP6BKK/n7/4jirj/o3eH/wrj/8AItH/ABHFXH/Ru8P/AIVx/wDkWgD+gSiv5+/+I4q4/wCjd4f/AArj/wDItH/EcVcf9G7w/wDhXH/5FoA/oEor+fv/AIjirj/o3eH/AMK4/wDyLR/xHFXH/Ru8P/hXH/5FoA/oEor+fv8A4jirj/o3eH/wrj/8i0f8RxVx/wBG7w/+Fcf/AJFoA/oEor+fv/iOKuP+jd4f/CuP/wAi0f8AEcVcf9G7w/8AhXH/AORaAP6BKK/n7/4jirj/AKN3h/8ACuP/AMi0f8RxVx/0bvD/AOFcf/kWgD+gSiv5+/8AiOKuP+jd4f8Awrj/APItH/EcVcf9G7w/+Fcf/kWgD+gSiv5+/wDiOKuP+jd4f/CuP/yLR/xHFXH/AEbvD/4Vx/8AkWgD+gSiv5+/+I4q4/6N3h/8K4//ACLR/wARxVx/0bvD/wCFcf8A5FoA/oEor+fv/iOKuP8Ao3eH/wAK4/8AyLR/xHFXH/Ru8P8A4Vx/+RaAP6BKK/n7/wCI4q4/6N3h/wDCuP8A8i0f8RxVx/0bvD/4Vx/+RaAP6BKK/En9jb/g7Z8X/tu/tN+Dfhb4R/Zzik1rxhqMdkkn/CVsyWcR+aW4f/RfuRRh3PsuMg1+2qnco+nagBaKKKACiiigAooooAKKKKACiiigAooooAKKKKACiiigAooooAKKKKACiiigAr5B/wCC3X/BN6x/4KcfsF+KPBMcEP8AwmWkqda8KXTgboNQhRiseeu2ZN0Tf74PVRX19RQB/Al4g8P3nhTXb3TNStZrHUNNne1ubeZNskMqMVdGB5DAggj1FUDX7Bf8Hbf/AATA/wCGY/2rbP43+FdP8jwX8WpmXVUhTEen60oLScDoJ0Hmj1cS+1fj6etABRRRQAUUUUAFFFFABRRRQAUUUUAFFFFABRRRQAUUUUAFFFFABRRRQAUUUUAFFFFABRRRQAUUUUAFFFFABRRRQAUUUUAFFFFABRRRQAUUUUAFFFFABRRRQAUUUUAFFFFABTsZFNr6R/4JRfsBax/wUp/bf8GfC/TVuItMvZ/tuvXsY/48NMhIa4lz0DEYRfV5EHrQB+1//Bnz/wAEwP8AhVfwf1b9pHxZpvl6943jfSvCazx4e201W/fXKgjgzyLsB/uRE9Hr9vB0rF+HPw90b4T/AA/0Xwv4fsLfS9B8P2MOnWFpCu2O3giQIiAeyqBW1QAUUUUAFFFFABRRRQAUUUUAFFFFABRRRQAUUUUAFFFFABRRRQAUUUUAFFFFABRRRQB4X/wUh/Yi0H/goh+xv42+FGvrFGPEVkx067Zctp19H89tcL/uSBc46qWHev4ofjV8Hdf/AGfPi54k8D+KtPl03xF4V1CbS9RtZFw0U0TlD16gkZBHUEHvX96Vfz1/8Hiv/BMD+wvEmi/tOeE9OC2eqGPQ/GaQx8RzgbbW9bH95R5LH1WL1oA/Bc9aKG+9RQAUUUUAFFFFABRRRQAUUUUAFFFFABRRRQAUUUUAFFFFABRRRQAUUUUAFFFFABRRRQAUUUUAFFFFABRRRQAUUUUAFFFFABRRRQAUUUUAFFFFABRRRQAUUUUAFFFFADsAgfSv6o/+DU//AIJh/wDDGX7Fn/C0PFGnfZfiB8Yo477bMmJdO0gDdaw88qZATMw/20B+7X4ef8EAv+CZ83/BS/8Ab80HR9Us5Jfh/wCDCmv+KpcfI9tEw8u1zjG6eTamP7u89q/sUsLCHTLGG1t4Y4Le3jWKKKNQqRqBgKB2AAxigCYdKKKKACiiigAooooAKKKKACiiigAooooAKKKKACiiigAooooAKKKKACiiigAooooAKKKKACuB/ac/Z48N/tY/APxb8OPF1ot54d8YadLpt4hxuQOPlkTPR0ba6nsyiu+oxmgD+F39t39kbxJ+wt+1P40+FfiqFl1TwjqL2yT7CqX9ufmguUz1SSMowx6kdq8lPWv6Tv8Ag8A/4Jgf8Lm+BmmftF+FNO8zxJ8Po107xMsMfz3mlO/7uc4GSYJGwT/ckbstfzYt1oAKKKKACiiigAooooAKKKKACiiigAooooAKKKKACiiigAooooAKKKKACiiigAooooAKKKKACiiigAooooAKKKKACiiigAooooAKKKKACiiigAooooAKKKKACprW3ku544YY2mllYIiKpZnJwAAByST2FQ1+on/BrP8A8EwP+G4P234fiB4m037V8O/hBJFqlwJU3Q6hqZJNpbcjDBWUzMPSNQfvUAfuH/wbyf8ABMpP+CbH7Amj2mtWKQ/ETx8I/EHid2A8y3kdP3FoT1xDGQCOgdpDX3qDkcUCigAooooAKKKKACiiigAooooAKKKKACiiigAooooAKKKKACiiigAooooAKKKKACiiigAooooAKKKKAM3xf4U03x14W1HQ9YsbbU9J1i2ks720uIxJDcwyKVeN1PBVlJBB9a/m7/4Kw/8ABpN8RvhT491bxd+zhar468D30z3CeGWuFi1jRgTkxR+ZhLiIdFIYSAAAq33j/SsVz2o2jPSgD+IPWf8AglV+0toOpy2d18BfixFcQkqy/wDCMXbAYOOoQg/nVQ/8Ewv2js/8kJ+LX/hK3v8A8br+4cjIooA/h3/4dhftHf8ARCfi1/4S17/8bo/4dhftHf8ARCfi1/4S17/8br+4iigD+Hj/AIdgftHf9EJ+LX/hK3v/AMbryLxx4D1n4aeLL7QfEGk6homuaXKYLywvrdoLm1lHVHjb5lI9CBX98R4P61/EH/wVP+IX/C1f+Ckvx217zPMTUPHOrmNs53It3Ii/+OqKAPAT1ooPWigAooooAKKKKACiiigAooooAKKKKACiiigAooooAKKKKACiiigAooooAKKKKACiiigAooooAKKKKACiiigB6Jux/h1r2vSv+Ca37Qmv6XbX1j8EfineWN7Es9vcQ+GLx4542AZXVghBUgggg4INeJjgV/bt/wAEnviF/wALV/4JmfAbXvMMj33gbSlkbOfnS1SN/wAmQigD+Pv/AIdg/tHf9EJ+LX/hLXv/AMbo/wCHYX7R3/RCfi1/4S17/wDG6/uIooA/h3/4dhftHf8ARCfi1/4S17/8bp6f8Ev/ANo52VV+BPxaLMQB/wAUrecn/v3X9wtGKAP5JP2Ef+DXz9pz9rnxfYt4o8J3Hwj8Hl1a81bxLH5Nz5fBIhtM+a7kdAwRe5YV/Tj+wV+wj4B/4J0fs2aL8Mvh7Ytb6Tpg826vJwDdardMB5lzOwA3SMQPZQAowABXtWM0YoAB0ooooAKKKKACiiigAooooAKKKKACiiigAooooAKKKKACiiigAooooAKKKKACiiigAooooAKKKKACiiigAooooAKKKKACiiigDP8AFOsR+HfDWo6hK2yGwtZbh2POFRSxP5A1/Bh8UPFEnjf4l+ItakYtJrGp3N65PcySs5/9Cr+37/goN4+Hws/YU+MniIuIzo/gvVrpWJxhls5dvP1xX8MhoAKKKKACiiigAooooAKKKKACiiigAooooAKKKKACiiigAooooAKKKKACiiigAooooAKKKKACiiigAooooAKKKKADNf2Ff8G0HxA/4WF/wRY+DMhk8yTSbW90lx/d8i9nRR/3ztr+PWv6nP8Agzm8fDxT/wAEnb3SN+5/DPjTUbXGeVWWOCcfrK1AH6wCigUUAFFFFABRRRQAUUUUAFFFFABRRRQAUUUUAFFFFABRRRQAUUUUAFFFFABRRRQAUUUUAFFFFABRRRQAUUUUAFFFFABRRRQAUUUUAFFFFABRRRQB8Y/8HCfjz/hXf/BGz49XnmeW954fGmIc4ybmeKDH4iQ1/Gietf1gf8Hc/j7/AIQ//gjprtgsgV/EvifSdO25x5irK1wR7/6iv5P6ACiiigAooooAKKKKACiiigAooooAKKKKACiiigAooooAKKKKACiiigAooooAKKKKACiiigAooooAKKKKACiiigAr+jD/AIMh/Hgvf2ffjl4YaTLaf4g0/U0TP3RNbSRk4+tuK/nPr9wf+DIvx9/Z/wC018bvDLSbV1TwzZaiqZ++1vdMnT6XNAH9HdFA6UUAFFFFABRRRQAUUUUAFFFFABRRRQAUUUUAFFFFABRRRQAUUUUAFFFFABRRRQAUUUUAFFFFABRRRQAUUUUAFFFFABRRRQAUUUUAFFFFABRRRQB+Kv8AweyePjpH7Fnwk8NrJg634xlvWTP3ltrOQdP96cV/NaeDX7y/8Hv/AI/8/wCIXwC8LK3Frp2rarIo/wCmktvEp/8AITfrX4NUAFFFFABRRRQAUUUUAFFFFABRRRQAUUUUAFFFFABRRRQAUUUUAFFFFABRRRQAUUUUAFFFFABRRRQAUUUUAFFFFABX6qf8Gevj5vCf/BXD+yzJtj8T+DtTstucb2jMNwP0iavyrr7m/wCDbfx//wAK8/4LRfBG4L7I9T1G60p8nr9os54wP++mWgD+xYdKKBwKKACiiigAooooAKKKKACiiigAooooAKKKKACiiigAooooAKKKKACiiigAooooAKKKKACiiigAooooAKKKKACiiigAooooAKKKKACiiigAooooA/l8/wCDzb4g/wDCSf8ABTnwroSyZTw34HtEYZ+481zcyH/x0p+lfkNX6F/8HSHxA/4T7/gtR8UkWTzI9Bg0zSk9jHYwsw/Bnavz0Y5NABRRRQAUUUUAFFFFABRRRQAUUUUAFFFFABRRRQAUUUUAFFFFABRRRQAUUUUAFFFFABRRRQAUUUUAFFFFABRRRQAV71/wS3+IP/Cq/wDgo98C9fMnlx6d440l5GJwFRruNH/8dY14LW58NfE0ngv4iaBrEZKyaTqVveofQxyK/wD7LQB/fAOlFZ/hLXI/E3hXTNShcSRahaRXKOOjK6BgfxzWhQAUUUUAFFFFABRRRQAUUUUAFFFFABRRRQAUUUUAFFFFABRRRQAUUUUAFFFFABRRRQAUUUUAFFFFABRRRQAUUUUAFFFFABRRRQAUUUUAFN/x7U6oL66Wws5p34jhRnYnsAMn9KAP4qP+C0HxA/4Wf/wVb/aA1hZPOWTxrqFqjDoVglMC4/COvmE9a7T9o7xm3xF/aF8d+IGcyNrniG/vy2c5825kfr/wKuLoAKKKKACiiigAooooAKKKKACiiigAooooAKKKKACiiigAooooAKKKKACiiigAooooAKKKKACiiigAooooAKKKKACnKcHPPHQ02jNAH9zH/BPHx8Pin+wX8GfEXmeZ/bHgnSLlmB6sbOLd+Oc17IOlfFv/AAby+Pf+Fif8EZ/gNeF/Naz0FtNc5zzbXE0GD+EYr7SHSgAooooAKKKKACiiigAooooAKKKKACiiigAooooAKKKKACiiigAooooAKKKKACiiigAooooAKKKKACiiigAooooAKKKKACiiigAooooAK87/AGt/Gy/DT9lf4leImkMS6H4W1O/Lg42+XaSvnP4V6JXyj/wXL8fH4a/8Ei/2gNUWQRyN4Qu7JCTjm4AtwPx82gD+LOeVpp3dvvMxY/Wm0UUAFFFFABRRRQAUUUUAFFFFABRRRQAUUUUAFFFFABRRRQAUUUUAFFFFABRRRQAUUUUAFFFFABRRRQAUUUUAFFFFABRmiigD+rz/AINE/HX/AAl//BHbRtPaTe/hrxPqunFc/cDSJcAflPn8a/UCvxS/4Ml/Hx1X9jL4veG2kB/sXxfDeomeVFxZopP525r9raACiiigAooooAKKKKACiiigAooooAKKKKACiiigAooooAKKKKACiiigAooooAKKKKACiiigAooooAKKKKACiiigAooooAKKKKACiiigAr84/wDg6v8AH7eBf+CL3xCgWTY/iLU9K0oDPLBryOVgP+AwtX6OV+Ov/B6T8QP7A/4J0+A/D6vtbxD44hkZc/eSC0uWP/jzofwoA/mNPWiiigAooooAKKKKACiiigAooooAKKKKACiiigAooooAKKKKACiiigAooooAKKKKACiiigAooooAKKKKACiiigAooooAKKKKAP3i/wCDIHx+0PxI+PnhVpPlutM0rVUTPXy5biJiB/21T9K/oaFfy7/8GZvxA/4Rr/gp94m0Nn2r4k8D3kYXP3nhubaUfkof86/qIHSgAooooAKKKKACiiigAooooAKKKKACiiigAooooAKKKKACiiigAooooAKKKKACiiigAooooAKKKKACiiigAooooAKKKKACiiigAooooAK/An/g+C+IWzTf2f8AwqrHc0usas656YFtEp/V6/fav5m/+D1b4gDXf2+vhr4dWTcvh/wUJ2X+49xeTk/+OxJQB+M9FBooAKKKKACiiigAooooAKKKKACiiigAooooAKKKKACiiigAooooAKKKKACiiigAooooAKKKKACiiigAooooAKKKKACiiigD9B/+DXX4hf8ACAf8FqPhSrMUj1yLUtJbnr5tjMVH/fSLX9eo6V/E7/wRn+IA+F//AAVW+AGtNJ5UcPjbToJGPQJNKIWz/wABkNf2xDpQAUUUUAFFFFABRRRQAUUUUAFFFFABRRRQAUUUUAFFFFABRRRQAUUUUAFFFFABRRRQAUUUUAFFFFABRRRQAUUUUAFFFFABRRRQAUUUUAFfyX/8HZXj4eM/+CzXjK1WTzE8N6HpOmAA5Cn7Ms5H5zGv6z85OK/jB/4L2eO/+Fkf8Fhv2gNQWQyRw+KZtPQ5zgWyJb4/8h0AfIVFBooAKKKKACiiigAooooAKKKKACiiigAooooAKKKKACiiigAooooAKKKKACiiigAooooAKKKKACiiigAooooAKKKKACiiigDsv2ePGbfDv4+eB/ECsY20PxBYX4IOP9VcI/8A7LX94mnXi6jp8FxGwaOeNZFYdCCMg1/AZE7QyLIhKspDA+hHNf3Z/sheOV+Jf7J/wy8RK3mLrnhXS77dnO4y2kTH+dAHo1FAooAKKKKACiiigAooooAKKKKACiiigAooooAKKKKACiiigAooooAKKKKACiiigAooooAKKKKACiiigAooooAKKKKACiiigAooooAbKwVCzdF5Nfwq/ts+PG+J/wC2N8VvETSeb/bfi/Vb1XJ3ble7lYHPuCK/uC+N/i5fAHwY8X68zbF0TRb2/LZ+6IoHkz/47X8Gur6jJq+rXV3IWaS6meViepLEk/zoAr0UUUAFFFFABRRRQAUUUUAFFFFABRRRQAUUUUAFFFFABRRRQAUUUUAFFFFABRRRQAUUUUAFFFFABRRRQAUUUUAFFFFABRRRQA4H88V/aR/wQs8ef8LJ/wCCQ/7P+qNIZZF8I21i7E5+a33W5H4eVj8K/i1zX9bn/BqR4+bxx/wRe8A27OWfw7quq6WQT93bdvKo/wC+ZhQB+kFFA6UUAFFFFABRRRQAUUUUAFFFFABRRRQAUUUUAFFFFABRRRQAUUUUAFFFFABRRRQAUUUUAFFFFABRRRQAUUUUAFFFFABRRRQAUUUUAfOH/BX3x+3wv/4Jd/H3XFfy5LXwPqcUbZ6PLbvEv/jziv4kjX9gH/Bzn8Qf+Fff8EWfi+QxWTWksNJTnG4zX0AI/wC+A1fx/nrQAUUUUAFFFFABRRRQAUUUUAFFFFABRRRQAUUUUAFFFFABRRRQAUUUUAFFFFABRRRQAUUUUAFFFFABRRRQAUUUUAFFFFABRRRQAV/Td/wZZ+P21/8A4J2/EDw+0m5vD3jiSVV/upPaW7D/AMeR6/mRr+gL/gx++IWbP9oDwqzfdbSNWjTPqLmJzj8E/SgD9+h0ooooAKKKKACiiigAooooAKKKKACiiigAooooAKKKKACiiigAooooAKKKKACiiigAooooAKKKKACiiigAooooAKKKKACiiigAooooA/Jb/g8m+IC+GP8Agldo+ih2WTxN44sICoP3khguZz+RRP0r+Ww8Gv6Jv+D33x+tr8GPgP4XWT577WtT1R0B6iGGGJTj/tu1fzsmgAooooAKKKKACiiigAooooAKKKKACiiigAooooAKKKKACiiigAooooAKKKKACiiigAooooAKKKKACiiigAooooAKKKKACiiigAr9lP8Agys+IA0H/goD8SPDrOVXxB4IadVz957e8gI/8dlb9a/Guv0o/wCDTrx8vgn/AILOeCbV5NkfiTRtW0s843E2rTgf99QCgD+tQUUDpRQAUUUUAFFFFABRRRQAUUUUAFFFFABRRRQAUUUUAFFFFABRRRQAUUUUAFFFFABRRRQAUUUUAFFFFABRRRQAUUUUAFFFFABRRRQB/N3/AMHt3j3+0v2tPgz4ZWQf8SnwrdagyA/dNxdlBn8LevxHNfqV/wAHfnjxvFn/AAV9vdNEhaPwz4T0uwwf4WZZLgj/AMjrX5amgAooooAKKKKACiiigAooooAKKKKACiiigAooooAKKKKACiiigAooooAKKKKACiiigAooooAKKKKACiiigAooooAKKKKACiiigAr66/4IN+Pf+Fb/APBYH9n/AFBpBFHN4qg09yTxtuVe3Ofr5tfItem/sYeOm+GH7Xvwt8RK/l/2H4s0u+ZumFju4nJ/IGgD+6+imxuJEVl5VhkH1p1ABRRRQAUUUUAFFFFABRRRQAUUUUAFFFFABRRRQAUUUUAFFFFABRRRQAUUUUAFFFFABRRRQAUUUUAFFFFABRRRQAUUUUAFJ3paaTQB/HD/AMHGPj9viL/wWg+Ol15nmJp+rw6WhJzgW1pBCR+DIwx7V8R17h/wUr+ITfFX/goV8bvEO/zF1Txxq8qtnO5ftkoUj2wBj2rw/NABRRRQAUUUUAFFFFABRRRQAUUUUAFFFFABRRRQAUUUUAFFFFABRRRQAUUUUAFFFFABRRRQAUUUUAFFFFABRRRQAUUUUAFFFFABVjS7+TStRt7qPiS3lWVD7qQRVenKeKAP7zvgT4wX4h/A/wAG68knmLrmh2V+Gznd5sCPn/x6usr5t/4I9fEH/haH/BLT4A620nmNceB9Mids5O6GBYTn3yhzX0kOlABRRRQAUUUUAFFFFABRRRQAUUUUAFFFFABRRRQAUUUUAFFFFABRRRQAUUUUAFFFFABRRRQAUUUUAFFFFABRRRQAUUUUAFZPjrxFH4R8F6xqs2BFpllPdvk8bY0LH9Aa1q8R/wCClXj4fCz/AIJ7/G7xAX8ttM8EavKjZxtc2cqrz/vEUAfxDeOvEMnizxtrGqTP5kupX0927f3mkkZif1rKoJyaKACiiigAooooAKKKKACiiigAooooAKKKKACiiigAooooAKKKKACiiigAooooAKKKKACiiigAooooAKKKKACiiigAooooAKKKKACgHFFFAH9fn/BsJ8Qf+E//AOCK/wAI90gkk0UajpLkH/nlfT7R+CstfoAK/JH/AIM1fH48T/8ABLPXdFL7pPDfje+iC5+4k0FtKP1LH86/W6gAooooAKKKKACiiigAooooAKKKKACiiigAooooAKKKKACiiigAooooAKKKKACiiigAooooAKKKKACiiigAooooAKKKKACviT/g4x8fr8Ov+CMPx0ut/lyalpEOlJzjcbm7hhI/75dq+26/LX/g788ef8In/wAEgb7TVkCP4m8W6VYbc4LqhkuD/wCiBQB/KbRRRQAUUUUAFFFFABRRRQAUUUUAFFFFABRRRQAUUUUAFFFFABRRRQAUUUUAFFFFABRRRQAUUUUAFFFFABRRRQAUUUUAFFFFABRRRQAUUUUAf0Rf8GQPj9bn4Q/Hrws0h3Wer6XqqR57SwzRMcf9sVr92q/m3/4Mk/Hn9mftdfGXw20gC6x4Str9EJ+81vdqnA+lwfyr+kigAooooAKKKKACiiigAooooAKKKKACiiigAooooAKKKKACiiigAooooAKKKKACiiigAooooAKKKKACiiigAooooAKKKKACvxJ/4PbvHn9m/sl/Bnw2smG1jxXdX7J6rb2hX+dwK/bav52/+D3zx+bn4y/Afwur8WOjanqkiZ6GaeGJT/5AagD8JzRRRQAUUUUAFFFFABRRRQAUUUUAFFFFABRRRQAUUUUAFFFFABRRRQAUUUUAFFFFABRRRQAUUUUAFFFFABRRRQAUUUUAFFFFABRRRQAUUUUAfqP/AMGg/jz/AIRL/gsBp+mtJsTxN4U1Wwwf4mRY7gf+iTX9Wo6V/G7/AMG6fj8/Dz/gs58Cbkv5ceoazLpbnOMi5tZoQPxZ1r+yIHigAooooAKKKKACiiigAooooAKKKKACiiigAooooAKKKKACiiigAooooAKKKKACiiigAooooAKKKKACiiigAooooAKKKKACv5bf+Dyb4gf8JP8A8FUdG0VZNy+GfBFhCVzkI0s1zMf0dTX9SVfx/wD/AAc6/EL/AIWB/wAFqvi+d4kj0VtP0lcHhfJsIAR/30Wz75oA+A6KD1ooAKKKKACiiigAooooAKKKKACiiigAooooAKKKKACiiigAooooAKKKKACiiigAooooAKKKKACiiigAooooAKKKKACiiigAooooAKKKKAPbP+Cbvj8/Cv8A4KA/BTxDv8tdK8b6RM7ZxtQXkQbn/dJr+5AdK/gX8FeIJPCnjDSdUibbJpt5DdKwOCCkiuOfwr+9LwD4jTxh4F0XVo2Vo9UsILtWXowkjVwR+dAGtRRRQAUUUUAFFFFABRRRQAUUUUAFFFFABRRRQAUUUUAFFFFABRRRQAUUUUAFFFFABRRRQAUUUUAFFFFABRRRQAUUUUANJycV/Er/AMFffiEPin/wVF+PmuBty3XjjVI0wc/JFcNEv6IK/ti1fUY9H0m6u5m2w2sTyufRVBJP6V/Bt8cfF7+P/jV4w16RmaTWtbvb9mJySZZ3kJ/8eoA5Y8GiiigAooooAKKKKACiiigAooooAKKKKACiiigAooooAKKKKACiiigAooooAKKKKACiiigAooooAKKKKACiiigAooooAKKKKACiiigAooooAcvvX9xH/BMz4h/8LU/4J3fA/wAQ7tzap4H0eR2BzlxZxK3/AI8DX8OucV/Y5/wbi+P1+If/AARe+Btx5jPJpukz6U+f4Tb3c0QH/fKrQB9wUUDpRQAUUUUAFFFFABRRRQAUUUUAFFFFABRRRQAUUUUAFFFFABRRRQAUUUUAFFFFABRRRQAUUUUAFFFFABRRRQAUUUUAeX/tseO1+F/7HXxX8SM/l/2H4P1W+DZxgx2crL+ZAr+FRmLMSeSTyT3r+z//AIL1+PP+Fcf8Eev2gNRV/Lkm8LS6ehzjLXMiW4A/7+1/F+etABRRRQAUUUUAFFFFABRRRQAUUUUAFFFFABRRRQAUUUUAFFFFABRRRQAUUUUAFFFFABRRRQAUUUUAFFFFABRRRQAUUUUAFFFFABRRRQAUUUUAFf1Xf8Gf3jxfFn/BIO20sybpPDPi/VLErnJRX8q5H4fvjX8qNf0g/wDBkf46/tL9lL40+GmcMdI8VWeoIueQLi12dPrb0Aft3RRRQAUUUUAFFFFABRRRQAUUUUAFFFFABRRRQAUUUUAFFFFABRRRQAUUUUAFFFFABRRRQAUUUUAFFFFABRRRQAUUUUAfmr/wdk+Pf+EK/wCCMvjK1VgsniPXNJ0tQT97NyJ2H/fMJP4V/Jaetf0y/wDB6v4//sP9gT4aeHVfDeIPG4ndP7yW9nPk49mlX86/maoAKKKKACiiigAooooAKKKKACiiigAooooAKKKKACiiigAooooAKKKKACiiigAooooAKKKKACiiigAooooAKKKKACiiigAooooAKKKKACiiigAr91P+DITx99l+Nvx38LswAvtD03VETPXyZ5YmOP8Atuv51+FdfrN/wZu+Pz4Y/wCCq2q6Mz7Y/E3gjUIMf33imt5gP++UY/hQB/UsOBRRRQAUUUUAFFFFABRRRQAUUUUAFFFFABRRRQAUUUUAFFFFABRRRQAUUUUAFFFFABRRRQAUUUUAFFFFABRRRQAUUUUAfz9/8HwfxB3an+z74VV+Fi1jVnQHpk2sSkj3w2Poa/Aev2K/4PSviD/b/wDwUY8A+H1cY8PeBoXKg/dae7uW5+qqtfjqaACiiigAooooAKKKKACiiigAooooAKKKKACiiigAooooAKKKKACiiigAooooAKKKKACiiigAooooAKKKKACiiigAooooAKKKKACiiigAooooAK++f+DZD4g/8K+/4LU/B1t/lprUuoaUxJ4PnWM4A/FgoHuRXwNX0Z/wSL+IP/Crv+Cn/wAA9cLBFtfHOlRuScALJcpG36OaAP7cKKBRQAUUUUAFFFFABRRRQAUUUUAFFFFABRRRQAUUUUAFFFFABRRRQAUUUUAFFFFABRRRQAUUUUAFFFFABRRRQAUUU0jNAH8kf/B1h8QB45/4LR/ECFGDR+HtM0rSV5+6VtI5WH/fUzGvzhPWvrD/AILk+Pl+JX/BXb9oLVFfzI/+EwurNGHOUt8W4/SICvk+gAooooAKKKKACiiigAooooAKKKKACiiigAooooAKKKKACiiigAooooAKKKKACiiigAooooAKKKKACiiigAooooAKKKKACiiigAooooAKKKKACuq+Cni1vAXxi8I67G22TRdZs79TnGDFOkmf/Ha5WnKdoBH8qAP78NF1OPWtGtLyHmG7hSZMf3WUEfoatV5X+w/47X4ofsZfCbxIsnmf214P0q8Zs5yz2cRb/wAezXqg6UAFFFFABRRRQAUUUUAFFFFABRRRQAUUUUAFFFFABRRRQAUUUUAFFFFABRRRQAUUUUAFFFFABRRRQAUUUUAFRyusEbSOwVVG5iegA7/lUlcX+0Z4xX4dfs++O/EDsFTQ/D1/qDEnGBFbyPnP/AaAP4ef2tvHLfE39qj4leImfzG13xTqeobs5z5t3K45/wCBV57Ul5dSX15LNI26SZy7H1JOTUdABRRRQAUUUUAFFFFABRRRQAUUUUAFFFFABRRRQAUUUUAFFFFABRRRQAUUUUAFFFFABRRRQAUUUUAFFFFABRRRQAUUUUAFFFFABRRRQAUUUUAFAODRRQB/Z5/wQM8d/wDCyP8Agjp+z/ftJ5slv4Wj05zncc20klvg/hEK+wB0r80f+DS/x4fGf/BGTwjZs4d/Devatpbc5wPtJnA/75nFfpcOlABRRRQAUUUUAFFFFABRRRQAUUUUAFFFFABRRRQAUUUUAFFFFABRRRQAUUUUAFFFFABRRRQAUUUUAFFFFABXzD/wWg+IJ+F3/BKL9oHWlbZJF4K1C3jOcfPPEYF/8ekA/Gvp6vz0/wCDpH4hf8K//wCCLHxSVZNj69PpmkqM/f8AMvoWI/75Rj+FAH8h1FB60UAFFFFABRRRQAUUUUAFFFFABRRRQAUUUUAFFFFABRRRQAUUUUAFFFFABRRRQAUUUUAFFFFABRRRQAUUUUAFFFFABRRRQAUUUUAFFFFABRRRQAUUUUAf0wf8GUvxBbXP2C/if4bZst4f8a/aEXP3UubOH+bQt+Vfs4Olfz6/8GPvxDK63+0B4TaTAkg0fVkTPXDXUTH8NyfnX9BQ6UAFFFFABRRRQAUUUUAFFFFABRRRQAUUUUAFFFFABRRRQAUUUUAFFFFABRRRQAUUUUAFFFFABRRRQAUUUUAFfkT/AMHmvxB/4Rv/AIJjeFtCEgVvEnjm0Urnl0gtrmU/gDt/HFfrtX4M/wDB7/4+EXgD4BeFg2GuNQ1fVnXPaOO2iU4/7aN+dAH89J60UGigAooooAKKKKACiiigAooooAKKKKACiiigAooooAKKKKACiiigAooooAKKKKACiiigAooooAKKKKACiiigAooooAKKKKACiiigAooooAKKKKACiiigD9hv+DLn4g/8I7/wUd8c+H2kCr4i8CzsFJ++8F3bOMD12s361/TtX8jf/Bqr49XwN/wWi+HULOFXxBp+q6ScnGS9lLIo/wC+oh+Vf1yA5FABRRRQAUUUUAFFFFABRRRQAUUUUAFFFFABRRRQAUUUUAFFFFABRRRQAUUUUAFFFFABRRRQAUUUUAFFFFABX81n/B7J49XVv21vhL4cWTcND8HS3jLn7rXF5IOnuIFr+lOv5P8A/g7m8e/8Jj/wWO16wWXzI/DXhrSdNABzsYxNcEfnPQB+YZ60UHrRQAUUUUAFFFFABRRRQAUUUUAFFFFABRRRQAUUUUAFFFFABRRRQAUUUUAFFFFABRRRQAUUUUAFFFFABRRRQAUUUUAFFFFABRRRQAUUUUAFFFFABRRRQB9V/wDBD7x8vw0/4K3/ALP2qtJ5cY8Y2dm7Zx8twTbt+kpr+1EDAr+EP9lPxu3w0/af+HHiJX8ttD8T6bf7s4x5V1E//stf3dQTrcwJJGwaORQysOjA8g0AOooooAKKKKACiiigAooooAKKKKACiiigAooooAKKKKACiiigAooooAKKKKACiiigAooooAKKKKACiiigBM8/jX8aX/Bwn4/PxF/4LLfHq88wSJZ+IBpiEHhRa28UBH5xmv7LCN3uO4r+Gb/goJ8QD8VP26/jJ4i8wSLrPjTV7pD1yjXku3n/AHcUAePUUHrRQAUUUUAFFFFABRRRQAUUUUAFFFFABRRRQAUUUUAFFFFABRRRQAUUUUAFFFFABRRRQAUUUUAFFFFABRRRQAUUUUAFFFFABRRRQAUUUUAFFFFABRRRQBNZXT2V3DNGxSSFw6MD90g5Br+779mrxqvxI/Zz8A+Io2V113w5p+oBl6HzbaOT/wBmr+D1T+Ff2s/8EVvH3/Cz/wDgk5+z/rDNukk8F2FtI2c5eCP7O36xmgD6hooByKKACiiigAooooAKKKKACiiigAooooAKKKKACiiigAooooAKKKKACiiigAooooAKKKKACiiigAooooAwfif4mj8FfDbxFrMreXHpGm3N67H+FYomcn9K/gv8Ta1J4j8SahqMv+tv7mS5f/edix/nX9uH/BU/4hf8Kq/4Jt/HbX/M8ptP8Dau0b56O1pIi/8AjzAV/ECetABRRRQAUUUUAFFFFABRRRQAUUUUAFFFFABRRRQAUUUUAFFFFABRRRQAUUUUAFFFFABRRRQAUUUUAFFFFABRRRQAUUUUAFFFFABRRRQAUUUUAFFFFABRRRQAZr+u3/g1n+IH/Cef8EVvhijPvk0G51TSmGc7fLvpnUf98yKfxr+RKv6gP+DMX4h/8JJ/wTL8W6CZN0nhvxzdAJn7iTWttIPzbdQB+vlFFFABRRRQAUUUUAFFFFABRRRQAUUUUAFFFFABRRRQAUUUUAFFFFABRRRQAUUUUAFFFFABRRRQAUUUUAfCv/Byf8Qv+Fef8EWvjZMJBHJqljaaSuT1+0XsEZH4qW/Ov47T1r+qT/g8P8eDwr/wSUj0kPtk8TeMtNtMZxuWNJ5z+sQr+Vs9aACiiigAooooAKKKKACiiigAooooAKKKKACiiigAooooAKKKKACiiigAooooAKKKKACiiigAooooAKKKKACiiigAooooAKKKKACiiigAooooAKKKKACiiigAr+hT/gyA+IXm+Bvj/wCFWk/4977SdWRM8jfHcxMcf9s1/IV/PXX7Tf8ABk949XSP22/ix4dZ8Lrng2O7Vc/ea3vIhwPpMaAP6Vh0ooHSigAooooAKKKKACiiigAooooAKKKKACiiigAooooAKKKKACiiigAooooAKKKKACiiigAooooAKKKKAPw5/wCD3bx6LD9m/wCB/hlZBu1PxJf6lImeogtkjU4/7eG/M+tfzk1+5H/B7t49+3ftF/A3wysny6b4dv8AUnTP3TPcpGCR9Lc1+G9ABRRRQAUUUUAFFFFABRRRQAUUUUAFFFFABRRRQAUUUUAFFFFABRRRQAUUUUAFFFFABRRRQAUUUUAFFFFABRRRQAUUUUAFFFFABRRRQAUUUUAFFFFABRRRQAV+nH/Bo949/wCEP/4LH+HbFpPLj8SeHNW01gT98iEXCj84B+VfmPX2V/wb6ePT8Ov+CyXwDvvMEcd14i/s1yTgYuYZYMf+RBQB/ZkOlFA6UUAFFFFABRRRQAUUUUAFFFFABRRRQAUUUUAFFFFABRRRQAUUUUAFFFFABRRRQAUUUUAFFFFABRRRQB/K/wD8Hinj5vFP/BWi30kSbo/DPgvTbQKP4Xleedv0lWvyjPWvu7/g5X+IP/Cwf+C0/wAapA++PSbyz0lTnOPIsrdGH4NuFfCJ60AFFFFABRRRQAUUUUAFFFFABRRRQAUUUUAFFFFABRRRQAUUUUAFFFFABRRRQAUUUUAFFFFABRRRQAUUUUAFFFFABRRRQAUUUUAFFFFABRRRQAUUUUAFFFFABXr37Anj5vhb+3J8HfEQfy/7G8Z6RdMxPRFvIt3/AI7mvIaveG9Zk8O+ILDUIuJbG4juU7YZGDD+VAH99wOaKwPhT4oj8b/C7w3rUTb49Y0q1vUbP3hJCrg/+PVv0AFFFFABRRRQAUUUUAFFFFABRRRQAUUUUAFFFFABRRRQAUUUUAFFFFABRRRQAUUUUAFFFFABTcc/j+VOqj4k1ePw94e1DUJmCQ2NvJcOx6BUUsT+QNAH8SP/AAVW+IX/AAtT/gpZ8d9eWTzVvvHGreW2c7kS6kRf/HVFfP8AW/8AFTxVJ44+KHiTWpGLSaxqt1fMc9TLKzk/+PVgUAFFFFABRRRQAUUUUAFFFFABRRRQAUUUUAFFFFABRRRQAUUUUAFFFFABRRRQAUUUUAFFFFABRRRQAUUUUAFFFFABRRRQAUUUUAFFFFABRRRQAUUUUAFFFFABTs/LTaM0Af29f8EqPiD/AMLV/wCCaXwJ17zDI2oeBtJ3tuz86WqRtz7MpFfQVfCP/BtP8QB8Q/8Agit8F5PM8yTSbO80lxn7pgvbhAD/AMB2193UAFFFFABRRRQAUUUUAFFFFABRRRQAUUUUAFFFFABRRRQAUUUUAFFFFABRRRQAUUUUAFFFFABXkP7fvj4fCz9hv4xeIy/l/wBi+DNXuw2cYZbOUj9cV69Xxr/wcGePP+Fd/wDBG3493ok8uS78Pf2ahzjJuZ4rfH4iQigD+M0nJooooAKKKKACiiigAooooAKKKKACiiigAooooAKKKKACiiigAooooAKKKKACiiigAooooAKKKKACiiigAooooAKKKKACiiigAooooAKKKKACiiigAooooAKKKKACiiigD+qD/gzq8fjxV/wSZuNJL7m8MeM9StMZ+4siQXA/WU1+rgr8Nv8AgyI8efbv2dvjj4ZaTLab4hsNSRM9BPbPGTj3NuB+FfuSOlABRRRQAUUUUAFFFFABRRRQAUUUUAFFFFABRRRQAUUUUAFFFFABRRRQAUUUUAFFFFABRRRQAV+Y/wDwdw+PP+EP/wCCOXiKxWTZJ4l8SaTp23ON6rMbgj3/ANRX6cV+LP8AwexeP20f9iT4UeG1fB1zxlJeMoP3ktrOQf8AoU4oA/mpPFFFFABRRRQAUUUUAFFFFABRRRQAUUUUAFFFFABRRRQAUUUUAFFFFABRRRQAUUUUAFFFFABRRRQAUUUUAFFFFABRRRQAUUUUAFFFFABRRRQAUUUUAFFFFABRRRQAUUUUAfuJ/wAGRfjz7B+0j8b/AAy0mF1Tw3Y6iqZ+81vdMmcfS5r+jiv5Wv8Agzx8ft4U/wCCtUmk79q+KPBupWYBP3njaG4H6RNX9Uo4oAKKKKACiiigAooooAKKKKACiiigAooooAKKKKACiiigAooooAKKKKACiiigAooooAKKKKACv56/+D4H4g+b47+APhVW/wCPew1bVZE/35LeJD/5Df8AWv6FK/l//wCDzn4g/wDCR/8ABTTwloKuWXw34HtcgnhHmurmQ/8AjoQ/jQB+QdFFFABRRRQAUUUUAFFFFABRRRQAUUUUAFFFFABRRRQAUUUUAFFFFABRRRQAUUUUAFFFFABRRRQAUUUUAFFFFABRRRQAUUUUAFFFFABRRRQAUUUUAFFFFABRRRQAUUUUAfdX/Bth8QP+Fef8FpfgnKzbI9Wv7vSn/wBrz7KeNR+LFa/sSHSv4gP+CWPxB/4VZ/wUk+BOvFzGlh440newONqPdxo3/jrGv7fweKACiiigAooooAKKKKACiiigAooooAKKKKACiiigAooooAKKKKACiiigAooooAKKKKACiiigAr+RL/g6X+IP/Ce/8FqPihGsnmR6Ba6XpKkdB5djC7D8Gkb8a/rrJxX8U/8AwWo8f/8ACzf+CsX7QOrLJ5kbeNb+1VgcjbBJ5A/SMCgD5dPWiiigAooooAKKKKACiiigAooooAKKKKACiiigAooooAKKKKACiiigAooooAKKKKACiiigAooooAKKKKACiiigAooooAKKKKACiiigAooooAKKKKACiiigAooooAKKKKAN74YeKJPBHxI8Pa1GWWTR9Ttr5COxilVx/wCg1/eh4Y1mPxH4a0/UIWEkV/bR3CMOjK6hgf1r+BNWK8jtX9zP/BPrx+vxS/YU+DfiIP5n9s+CtIuiwOdzNZxE/rmgD2GigdKKACiiigAooooAKKKKACiiigAooooAKKKKACiiigAooooAKKKKACiiigAooooAKKKKAIb24WytZZpOI41LsfQAc1/CB+0t41b4j/tF+PvEDMXOueItQv8AdnO7zbmR/wD2av7hf2rfG6/DX9l/4jeIndo10PwxqV/vBwV8q1kfP6V/CNcTNPO8j/edizfU0AMooooAKKKKACiiigAooooAKKKKACiiigAooooAKKKKACiiigAooooAKKKKACiiigAooooAKKKKACiiigAooooAKKKKACiiigAooooAKKKKACiiigAooooAKKKKACiiigBQ2DX9ln/Bvb47/wCFi/8ABGr4C3m8yPaeHzprk84NtPNBj8BGK/jSr+sD/g0Y8ef8Jd/wRz0HT2kZ5PDfiXVdOIJ+4GlFwAPwnz+NAH6eUUDpRQAUUUUAFFFFABRRRQAUUUUAFFFFABRRRQAUUUUAFFFFABRRRQAUUUUAFFFFABRRRQB8qf8ABcPx63w1/wCCSH7QOqJJ5cn/AAh15ZI2cfNcAW4/9G1/Fcetf1yf8HVfj8+Bf+CLnxEhR9kniLUdK0oc43BryORh/wB8xNX8jZ60AFFFFABRRRQAUUUUAFFFFABRRRQAUUUUAFFFFABRRRQAUUUUAFFFFABRRRQAUUUUAFFFFABRRRQAUUUUAFFFFABRRRQAUUUUAFFFFABRRRQAUUUUAFFFFABRRRQAUUUUAFf0pf8ABk348bVv2Kvi14baTP8AYvjGK9RM/dW4s0XP5wGv5ra/eX/gx/8AHxi+IHx+8Ks/y3WnaTqqIT3jkuImOP8AtqlAH9C9FFFABRRRQAUUUUAFFFFABRRRQAUUUUAFFFFABRRRQAUUUUAFFFFABRRRQAUUUUAFFFFAH48/8HovxC/4R7/gnB4H0BW2v4i8cwFlz95ILS4c/kzJX8xJOTX9BX/B8F8Qtmh/s/8AhVXbL3Gr6tIufRbaJTj/AIE9fz60AFFFFABRRRQAUUUUAFFFFABRRRQAUUUUAFFFFABRRRQAUUUUAFFFFABRRRQAUUUUAFFFFABRRRQAUUUUAFFFFABRRRQAUUUUAFFFFABRRRQAUUUUAFFFFABRRRQAUUUUAFfrx/wZkfEL/hG/+Cm/irQmbaniTwNdgLn77wXNtIP/AB3f+tfkPX6F/wDBrd8Qv+EB/wCC0/wtVnKR69b6npLc9fMspmUf99ItAH9eNFA6UUAFFFFABRRRQAUUUUAFFFFABRRRQAUUUUAFFFFABRRRQAUUUUAFFFFABRRRQAUUUUAfzP8A/B618QP7b/bz+GPhxZNy6D4L+0sufuvcXk2f/HYV/Ovxjr9L/wDg7Q8fDxn/AMFmPF1mr7k8N6FpOmAZzg/ZhOR7czV+aFABRRRQAUUUUAFFFFABRRRQAUUUUAFFFFABRRRQAUUUUAFFFFABRRRQAUUUUAFFFFABRRRQAUUUUAFFFFABRRRQAUUUUAFFFFABRRRQAUUUUAFFFFABRRRQAUUUUAFFFFABX07/AMEX/iB/wrD/AIKt/ADWGk8uOPxrp9tIxOAEnlEDfpIa+Yq7X9nDxm3w5/aD8C+IVba2heIbDUM5xjyrmN+v4UAf3j0VFY3S31lDNGQ0cyK6kdwRkVLQAUUUUAFFFFABRRRQAUUUUAFFFFABRRRQAUUUUAFFFFABRRRQAUUUUAFFFFABTehp1Nc7VY9gM0Afxi/8F9fHn/Cxv+CxPx+1BZPMjg8TyaehBzgW0cdv+nl18f16r+3F48b4oftofFnxE0hk/tzxjq16HJzuV7yVgfyIryo0AFFFFABRRRQAUUUUAFFFFABRRRQAUUUUAFFFFABRRRQAUUUUAFFFFABRRRQAUUUUAFFFFABRRRQAUUUUAFFFFABRRRQAUUUUAFFFFABRRRQAUUUUAFFFFABRRRQAUUUUAFSW8rQzI6nDIwIPpjmo6cOMeuKAP7t/2S/HC/Ez9lf4a+IlfzBrnhfTL/cDncZLWNz/ADr0McV8o/8ABDbx63xJ/wCCRf7P2qNIZHHg+0snYnPNuDbkZ9vKx+FfVw6UAFFFFABRRRQAUUUUAFFFFABRRRQAUUUUAFFFFABRRRQAUUUUAFFFFABRRRQAVy/xq8XL4B+D3izXWYINF0e8vix6L5UDyZ/8drqK+c/+Cufj/wD4Vb/wTB+PmuBvLa18D6rGjZxh5bZ4l/8AHnFAH8TOt6m+s6zeXkhZpLqZ5mJOSSzEnP51VoooAKKKKACiiigAooooAKKKKACiiigAooooAKKKKACiiigAooooAKKKKACiiigAooooAKKKKACiiigAooooAKKKKACiiigAooooAKKKKACiiigAooooAKKKKACiiigAooooAKM0UUAf1vf8Gp/xAbxx/wAEXfh9bs/mN4e1LVdLIzkqFvJJQD+Ewx7V+j1fjr/wZbeP/wDhIP8AgnN488Ps25vD3jiaQDP3EntLdh/48j1+xQ4FABRRRQAUUUUAFFFFABRRRQAUUUUAFFFFABRRRQAUUUUAFFFFABRRRQAUUUUAFfA//Bzb8Qv+Fff8EWPjEQxSTWorDSU5xuM19ACP++Q1ffFfk1/weQePx4X/AOCVGl6OH2t4m8bafblc8skUVxMf1RaAP5aCeaKDwaKACiiigAooooAKKKKACiiigAooooAKKKKACiiigAooooAKKKKACiiigAooooAKKKKACiiigAooooAKKKKACiiigAooooAKKKKACiiigAooooAKKKKACiiigAooooAKKKKACiiigD+gX/gx9+IWdL/aA8KM5ysukatGmexF1ExA/BK/fev5m/8Agyp8fDQ/2+PiZ4dZ9q6/4JNwFz957e8hxj/gMrV/TIOlABRRRQAUUUUAFFFFABRRRQAUUUUAFFFFABRRRQAUUUUAFFFFABRRRQAUUUUAFfhX/wAHvXj77H8EPgT4XWTnUNc1LU3QHnEMEUYOPrO1fupX83//AAe4ePP7R/ar+C/hpXz/AGT4Wu9Qdc/dNxdbBx9LegD8Qycmig0UAFFFFABRRRQAUUUUAFFFFABRRRQAUUUUAFFFFABRRRQAUUUUAFFFFABRRRQAUUUUAFFFFABRRRQAUUUUAFFFFABRRRQAUUUUAFFFFABRRRQAUUUUAFFFFABRRRQAUUUUAFFFFAH6Vf8ABpr4+/4Qz/gsz4OtGkEcfiTQ9W0w5OAx+zGdR+cIr+tJelfxg/8ABBLx5/wrn/gsJ+z/AKgz+XHN4pi09znHFyj2/wD7UFf2fUAFFFFABRRRQAUUUUAFFFFABRRRQAUUUUAFFFFABRRRQAUUUUAFFFFABRRRQAV/Kj/wd/8Ajv8A4S3/AIK83WmrJvTwz4S0uxx/cZxLcEflKD+Nf1Wmv45f+Djvx83xE/4LQ/HG48zzF07VbfSkOc4FvaQREfgykfhQB8PE80UE0UAFFFFABRRRQAUUUUAFFFFABRRRQAUUUUAFFFFABRRRQAUUUUAFFFFABRRRQAUUUUAFFFFABRRRQAUUUUAFFFFABRRRQAUUUUAFFFFABRRRQAUUUUAFFFFABRRRQAUUUUAFFFFAHqH7E3jlvhj+2L8KvEe/yxoni7Sr0t/dVLuIk/lmv7q0cSIrL91hkV/Ado2pPo+rWt5HxJazJMh91II/lX95PwR8Wr4/+C/hHXkk8xda0Wzvg2c7vNgR8/8Aj1AHU0UUUAFFFFABRRRQAUUUUAFFFFABRRRQAUUUUAFFFFABRRRQAUUUUAFFFFADT1/nX8PP/BTX4hH4qf8ABRL44eIDJ5i6p441eRWznKi8kVcH0wAB7V/bp4212Pwv4O1bVJjti02ymunJPACIzH9BX8F/xA8RyeL/AB5rerStuk1S/nu3Oc5MkjOf1NAGPRRRQAUUUUAFFFFABRRRQAUUUUAFFFFABRRRQAUUUUAFFFFABRRRQAUUUUAFFFFABRRRQAUUUUAFFFFABRRRQAUUUUAFFFFABRRRQAUUUUAFFFFABRRRQAUUUUAFFFFABRRRQAUUUUAOXpX9tf8AwSF+IP8AwtH/AIJd/APXGfzGuvA2lxu2cktFbpE2ffKHNfxJBiK/sA/4NivH/wDwsD/giv8ACBi2+TRV1DSnwc7fKvpwo/75K0AfflFAPFFABRRRQAUUUUAFFFFABRRRQAUUUUAFFFFABRRRQAUUUUAFFFFABRRRQB4p/wAFIPiD/wAKq/4J/fGzxF5nltpPgjWJ0bOMOLOULz/vEV/DceDX9un/AAVp+FepfGz/AIJnfHXwvo8ck2qat4L1JLWOP70rrAzhB7sVx+NfxGMpViDwQcEUAJRRRQAUUUUAFFFFABRRRQAUUUUAFFFFABRRRQAUUUUAFFFFABRRRQAUUUUAFFFFABRRRQAUUUUAFFFFABRRRQAUUUUAFFFFABRRRQAUUUUAFFFFABRRRQAUUUUAFFFFABRRRQAUUUUAFf1Jf8GbPxA/4Sf/AIJW6xorSbpPDPje/gC5+4ksFtOPwLO/61/LbX9On/Bl/wDCvVPB/wDwTo8b+I7yKSKy8XeM5ZLAsCBIlvbQxM49jJvXI7oaAP2IHSigUUAFFFFABRRRQAUUUUAFFFFABRRRQAUUUUAFFFFABRRRQAUUUUAFFFFAEUqLIrKw3BuMEZHP+TX8wn/BwJ/wbq+Nv2YPjF4i+LHwb8N33in4T+IriTUrzT9Mgae78LTOS8iGJfma23ElXUHYDtbGAT/UARkUjIrDBUHtyKAP4CZrdreZo5FaORDhlKkFT3Bz0qI8Gv7oPH37AvwP+Keuyap4k+D/AMM9c1KUkyXV74as5ppCeSWdoyTz6msP/h17+zef+aD/AAj/APCUsv8A43QB/D3RX9wn/Drz9m//AKIN8I//AAk7L/43R/w68/Zv/wCiDfCP/wAJOy/+N0Afw90V/cJ/w68/Zv8A+iDfCP8A8JOy/wDjdH/Drz9m/wD6IN8I/wDwk7L/AON0Afw90V/cJ/w68/Zv/wCiDfCP/wAJOy/+N0f8OvP2b/8Aog3wj/8ACTsv/jdAH8PdFf3Cf8OvP2b/APog3wj/APCTsv8A43R/w68/Zv8A+iDfCP8A8JOy/wDjdAH8PdFf3Cf8OvP2b/8Aog3wj/8ACTsv/jdH/Drz9m//AKIN8I//AAk7L/43QB/D3RX9wn/Drz9m/wD6IN8I/wDwk7L/AON0f8OvP2b/APog3wj/APCTsv8A43QB/D3RX9wn/Drz9m//AKIN8I//AAk7L/43R/w68/Zv/wCiDfCP/wAJOy/+N0Afw90V/cJ/w68/Zv8A+iDfCP8A8JOy/wDjdH/Drz9m/wD6IN8I/wDwk7L/AON0Afw90V/cJ/w68/Zv/wCiDfCP/wAJOy/+N0f8OvP2b/8Aog3wj/8ACTsv/jdAH8PdFf3Cf8OvP2b/APog3wj/APCTsv8A43R/w68/Zv8A+iDfCP8A8JOy/wDjdAH8PdFf3Cf8OvP2b/8Aog3wj/8ACTsv/jdH/Drz9m//AKIN8I//AAk7L/43QB/D3RX9wn/Drz9m/wD6IN8I/wDwk7L/AON0f8OvP2b/APog3wj/APCTsv8A43QB/D3RX9wn/Drz9m//AKIN8I//AAk7L/43R/w68/Zv/wCiDfCP/wAJOy/+N0Afw90V/cJ/w68/Zv8A+iDfCP8A8JOy/wDjdH/Drz9m/wD6IN8I/wDwk7L/AON0Afw90V/cJ/w68/Zv/wCiDfCP/wAJOy/+N0f8OvP2b/8Aog3wj/8ACTsv/jdAH8PdFf3Cf8OvP2b/APog3wj/APCTsv8A43R/w68/Zv8A+iDfCP8A8JOy/wDjdAH8PdFf3Cf8OvP2b/8Aog3wj/8ACTsv/jdH/Drz9m//AKIN8I//AAk7L/43QB/D3RX9wn/Drz9m/wD6IN8I/wDwk7L/AON0f8OvP2b/APog3wj/APCTsv8A43QB/D3RX9wn/Drz9m//AKIN8I//AAk7L/43R/w68/Zv/wCiDfCP/wAJOy/+N0Afw90V/cJ/w68/Zv8A+iDfCP8A8JOy/wDjdH/Drz9m/wD6IN8I/wDwk7L/AON0Afw90V/cJ/w68/Zv/wCiDfCP/wAJOy/+N0f8OvP2b/8Aog3wj/8ACTsv/jdAH8PdFf3Cf8OvP2b/APog3wj/APCTsv8A43R/w68/Zv8A+iDfCP8A8JOy/wDjdAH8PdFf3Cf8OvP2b/8Aog3wj/8ACTsv/jdH/Drz9m//AKIN8I//AAk7L/43QB/D3RX9wn/Drz9m/wD6IN8I/wDwk7L/AON0f8OvP2b/APog3wj/APCTsv8A43QB/D3TtoxX9wX/AA68/Zv/AOiDfCP/AMJOy/8AjdWNM/4Jofs76PfxXVr8DfhLBcQMHjkTwpY7kI6EfuutAH8mP/BLb/gjF8Xv+CovxSsLLw1od7ongWOdf7X8W31syafYxAjcI2bHnTYyFjTPOM4GSP6+P2U/2ZvC37G37PPhH4Y+C7RrPw34PsEsLQMf3kpHLyuf4pJHLux9WNd5ouhWPhvSobHTrO1sLG3QJFb20KxRRKOgVVAAHsKtEZoAAciiiigAooooAKKKKACiiigAooooAKKKKACiiigAooooAKKKKACiiigAooooAKKKKACiiigAooooAKKKKACiiigAooooAKKKKACiiigAooooAKKKKACiiigAooooAKKKKACiiigAooooAKKKKACiiigAooooAKKKKACiiigAooooAKKKKACiiigAooooAKKKKACiiigAooooAKKKKACiiigAooooAKKKKACiiigAooooAKKKKAP/2Q==;" parent="1" vertex="1">
          <mxGeometry x="325.49" y="380" width="25.03" height="59.71" as="geometry" />
        </mxCell>
        <mxCell id="qRgVFrvN4o-EPye_5gww-23" value="" style="endArrow=classic;html=1;rounded=0;opacity=30;" parent="1" edge="1">
          <mxGeometry width="50" height="50" relative="1" as="geometry">
            <mxPoint x="103" y="180.70999999999998" as="sourcePoint" />
            <mxPoint x="700" y="180" as="targetPoint" />
          </mxGeometry>
        </mxCell>
        <mxCell id="qRgVFrvN4o-EPye_5gww-10" value="" style="shape=image;imageAspect=0;aspect=fixed;verticalLabelPosition=bottom;verticalAlign=top;image=data:image/png,iVBORw0KGgoAAAANSUhEUgAAA0MAAAFOCAYAAABEwcYYAAAgAElEQVR4nOzde3DdaXng+e/j0mo0WkVRFMU4jnEc4zim03Qap9NpmqZpmkt6uAcIQ5LJZCY3ctksSbEMlWKpFDW1xaay1EwqxbKZScLmQi4kQCCQEOjpbjpNA06ncRpjjHGMMUZRFKFohaJSqVR694/n9+tzrJZtybr8zuX7qfrVueqct9tHR7/nfZ/neaOUgiRJUtMi4hbgzcALgKFtfvkp4I3Ae0spC9v82pK61J6mByBJklSZAz4FLO/Aa48CzwdeuAOvLalLGQxJkqROMQecABaB1W1+7WHgVuC5EbE/Iga2+fUldSG/CCRJUkcopcwA90bENDBSHdvpKHnu8wXgt4HZbX59SV3GlSFJktRp/hh4bIde+wDweuD2iNi/Q+8hqUu4MiRJkjrNSeDpO/Tag8A+4CUAETFTStmJGiVJXcCVIUmS1GlOA5Nsf91Qu1cAzwLGdvA9JHU4gyFJktRRSikXyK5y9+3g20yQAdF/2cH3kNThDIYkSVInugg8ssPvsQ+4JSJeHBH7dvi9JHUga4YkSVInmgQ+Te45NMDOTOCOAIfI+qG5iFhwQ1apvxgMSZKkjlNKOR8RS2T763Gy8cFOGAR+Cvgyuc/RqR16H0kdyDQ5SZLUqZaADwMzu/BePw78fESMRoTnR1Kf8JddkiR1qiXgfnZnc9R9wM3AS4GhXXg/SR3AYEiSJHWqZeAhYBpY2eH3GgIOAz8MjEeEpQRSHzAYkiRJHamUslJKOU8GRCd34S0ngHuA1wK37sL7SWqYwZAkSep0nwHO7OL7vRp4XkQc3cX3lNQAgyFJktTpzgCfJ2uIdsNR4BnAnRExYEMFqXf5yy1JkjpaKeUUmSY3B6zu0tveAfwcuReR50tSj/KXW5IkdYMp4IPsfCOF2jBwBPh14IZdek9Ju8xgSJIkdYNpss32bgVDe8gOc7cCt0fEsV16X0m7yLaRDWhr17laStmt5X5JkrrZDPAwsAAMsjvnMANk/dBzgIWIuFBK2a26JUm7wJWhZuyrjtGmByJJUjcopSyWUi4A9wEXdvntXw38OHCL+w9JvcVf6B0SEUNksLOXnFXaDzwZOFTdtwrMRcQvArOllIWGhipJUjf5GDmheGSX3/cG4M3Aj0bEbClleZffX9IOMBjaoqrd5gAZ4IxUxzi5cdtYdfkUWqtBB6vnrAKLwIuBT0bEmVLK4q7/B0iS1F0eBZ4JLJPpcrtljKp+qBrDhV18b0k7xGBo6/aQHWduIVeAngIcr65fKw1ukJxlehuZC31x54YpSVL3K6WciIgvAPPkhONuGayOnwR+A4MhqSdEKaXpMXSNiDgIHANuBL4XOEyu9oyRgWVdg9V+/VpWgVngFPAm4DFT5iRJurKIeAXwA8BrGnj7FbLF9/tKKb/bwPtL2kauDK0jIkbJ2aaDZPrbBPAksu5nojr2k0HQMNl683rtIVeQjgGvA369Spmb2cJrSpLUy84Bn6KZYGgAuAlYiYiHgEk7zEndy2CoEhGD5CrPMK3anqeRDQ8OkqtA4+xMB776vV8NfKYaz2OllPkdeC9JkrrdReAk2WZ7iN0/nzlMni/cCjwQEdNulSF1J9PkKhFxhKzduYvmW17fC/z3Usq7Gx6HJEkdKSIOAG8H7iAnK3fbClnv+yPAwzZBkrqT+wy1LAKPVZdNuwV4S0Q8LyL2Nz0YSZI60CLwUWCuofcfIIOwHwde2tAYJG2RwVDLAvBx4FJ1vUljZDe6HwBuj4jDDY9HkqROswicIFdnmtrzZ5CcwHxmRNxYbbchqYtYM1Sp6nM+HBE/QmvPoCbtAX6KVqe6880OR5KkzlE1LTgREVNkYLSbew61O0LuPfQl4HRDY5B0nQyGnuhtwDTwC00PpPJq4JYqN/q3SymzTQ9IkqQOcj/ZzOB5DY7hOHAz8EjVEXaqwbFI2gSXc5/oIvBZsn6oU+wFXgm8JiJubnowkiR1kEeBM00Pgjyn+kngeERsZcsNSbvIlaE1SikzEXEWeJjcR6ATjAC3URWJRsRMKeVSs0OSJKkjnAE+T6bKDTc8lnuqsZynMwI0SdfgytD6TgK/3vQg1nEPOev0uqYHIklSJyilTAMX6Ix6nXEyk+O1TQ9E0sYYDK1vgfxi/aPqspMcA34oIn7NlDlJkgA4B/wO0Akbnx4FXhAR/z4imtj/SNImGAyto9pFegn4c7LVdicZAvYBdwP3RMRtEdFUBx1JkjrBNJnevkBuhtqkIWA/8P3AwYhoOnVP0lUYDF1BFRD9BdlQoekv1rX2ADeS+xB9PzAWEdZ/SZL61RyZ4r5Ac3sOtRsDXg4covmtOiRdhSfQV1FKmYuIdwHzwE83PZ51HCf3N7gb+OGIuFjtuyBJUj85SDYa2ocTvZI2wS+MazsJ/DU569QJuchrDQGHyaYKd7scL0nqJ1Vdzm3Az9E55zXLZEe5SXJCVVKHcmXoGkopkxFxGjgF3EIGH51kkOxecw+ZzrcYESeApSrVT5KknlSliN8MPAu4o+HhtFsiW2vPmrEhdbZOmUHpdJPA26n2+elQh4EfI1uC76fzgjZJkrZNROwh63FeD/xQw8NZawG4v7qU1MEMhjZmFvggucv1VMNjuZphsoboD8m2nnsbHo8kSTtlL/Cr5MrQaMNjWWsOeDd5/iCpg5kmtwGllBVgISLuJwOOfQ0P6Ur2kGlzx2h1mbsXmDRlTpLUKyLiINlE6Hayc1snTe5Ok/VC03ReN1pJaxgMbc69wJPJL99O3dunTht4KTlrNg3MRoQ1RJKkrlfVCd0APLe67DSXgNPWCkndoZNmUjpeKeUkmQN8X9Nj2YAxsqnCh4C7yDoiSZK63S3AjwL/S9MDuYLHyHMFSV3AYGjzTgHvanoQm/Rm4FURcaTpgUiSdD0iYigi9gG/SAZEneoLZI2xpC5gmtzmTQEngAtkGlo37OtzG1nEuRQRi8BMKaUTduiWJGmjJsi/Z3eQW0p0ommyTne66YFI2hhXhjaplLJA5gN/kGy53S1eCPwycCeZQidJUjc5BryRnIjs1O0jTpABkaQuYTB0fZaAXwEeobP3HlprL/AO4A0RcXfTg5EkaSMi4j8ArwVuorOzWn6DTKeX1CU6+QulY5VSViNiBvg0cJDsLtcN9pCrQncDeyJiCfikXeYkSZ0oIgaBo8Czyf2EOrWT6wo5UXoa9xaSuorB0HUqpSxFxEngW8gc5m5aZTtO/kFZAs5GxIItQCVJnaRqoT1CdkS9jdxUvFMtkelxl6zJlbqLwdAWlFI+EhErwKvJFLRuCohurI5x4A+BB5sdjiRJl9lPdo379aYHsgGXyL0IzbSQukw3nbx3qovAfwMWmh7IdXox8KMR8eqmByJJEkBEDAPPA17X9Fg2aBr4GAZDUtcxGNq6GeCvyC/Cbkw1O0CmH7woIm6PiJGmByRJ6nt30KoT6nTL5DnAKWtwpe5jmtwWlVLmgIcj4iy559D+hod0PW4gg6Ix4PXAuWaHI0nqc79Ido4bbXogG7AATJVSzjQ9EEmb58rQ9nkrcF/Tg9iCUXIvordHxE80PRhJUv+JiGMR8atkl9Z9TY9ng94LfLTpQUi6PgZD2+cc8FngbNMD2YIBcpXoJRHxv0bEUNXNR5KkHRURh4FbyVqhYbrnHOXzwIWmByHp+niiu01KKVMRcYrcffpo0+PZggPkH6FDwAPApYiYMw9akrRTqv2EbgSeSXfUCUE2S1gGzgOTDY9F0nXqllmXbnEvmS7X7cbJXO3fAl5ABkeSJG27iNhDbmD+w8CrGh7OZiwDp4DzpZSZpgcj6foYDG2vZbK73HuBqYbHsh2OAW8A3hoRB0yZkyRtp2pFaC/wFjJFrhsaJtQWyVrhuaYHIun6eXK7jUopqxGxAHyITDMbBwYbHdTWjJAB0SCZE/2BiJgupXRjC3FJUuc5CBwnGybspbvOS5aAjwPzTQ9E0vVzZWj7LZErQ+fJWaNuN0zWQL2punQfIknSdrkJ+I/kBGK3pWQvAg9iMCR1NYOhbVZKWa32Hvpj4INNj2ebDJItTt8FvKnq+CNJ0nWLiB8jA6EXND2W63AauLeUMldKWWl6MJKun8HQznmUXD6/SHac6QWj5K7gvxgRRyLCVSJJ0qZU2zYcAV5Crgx147nIJeAzTQ9C0tZ14xdQVyilnAdOkkFRr8waDZGtT18B3AkcjIihZockSeoWVee4cbJG6HayZqgbXQQea3oQkrbOYGhnnQPeRnaZ6xVDwH6y7fargCPNDkeS1EXqSbVfIYOibvX5UspDTQ9C0tYZDO2sOXJ16AFySb3X/AzZdvseV4gkSRvwH4A3AhN0V+e4dg/Tm3/Tpb5kMLSDSikrpZQF4KNkd7les49sifpvgVsjYl/D45EkdaCI2BMRdwDPIleGujUQAniITJOT1AO6+cuom3wA+E6y+UCvBaD7yZm+aWBPRMzYWUeStMYg8IPkBNrehseyVfcDF5oehKTtEaWUpsfQFyLi5cArgX/X9Fh20CPAR0opb2p6IJKkzhARR4HbgN9peixbtESmvz+12kJDUg/otVWKTvYY8FdND2KHHQLuiYhfcC8iSVJE1J3jXtv0WLbBLHCC3ukQKwnT5HbTJbKZwnkytawXGw5MkHsRvRKYiQiAi6bNSVL/iYgBMi3uWWRA1O3mgL/FYEjqKa4M7ZJSyjIwCbyjuuxVg2Rt1C8DrwNGqn0lJEl9ogqERoA3kdsw9IJp4D4MhqSe4knq7poDfhs4Cyw0PJaddhB4OfBO4FhEjDY8HknS7jlA7iV0AxkUdbt5soPcI2Y7SL3FYGgXlVJWSymzwCeAU02PZ4cNkh2DbgF+hGy9bUAkST0uIg4Bt5JZAqP0xrnGGeBzpZSlpgciaXtZM9SMB4BvJAOFXv43GCJnB3+C/GM4FRFngNVSymqjI5MkbbsqPe5G4LnkqlCvOEk2QpLUY3phtqbrlFIeJDvLnQT6ISiYAP4T+d98GzlTKEnqPbcBPwn8VNMD2WafAh5tehCStp/BUHPOkfU0/RAM1caB/wy8tNp3QpLUAyJiOCL2Aa8Hbmp6PNtohfx7fYms+5XUY3o5RavTTQMPVpdjwHCzw9kVQ8BdwBQwGBHLZOvtfgoIJakX1TWid9IbDRNqK2S90Iz1QlJvcmWoIaWUuVLKKeCTZEDUT14D/BzZbtXPoCR1v5uAN5IZAIMNj2U7LQMfIzdcldSDopTS9Bj6WkQcB36J3tmHYaOWgSXg/wbeX0r5ZMPjkSRdh4j4CeAlwD30ViAEmcnw3cCsK0NSbzJNrnkXgL8DjpEdePrFYHU8D9gTEePkZnbLps1JUueLiGHgZuD55N+vXguEZsh9AWfJCTxJPchgqGGllNmIOAl8K9mGtN/Sxm4h88v3kn90JiNiyYBIkjpX1UJ7HPg3wO3kNgq9Zgo45YqQ1NsMhjrDfeTM04vJNtT99u9yDDhIziz+PLmXw2KjI5IkXc1BMgj635seyA46Q24JIamH9dsqRKdaAiaB99K/RZpDwFHgLcBPR8T+hscjSVpHlR53D/Dapseywy6STY4k9TCDoQ5QpYTNkTNQM2Qrz36zh9yM9Xbg+4AXRsRERAw1OyxJ0hp3As+it/YTWmsa+Eoppd+6vUp9x2CoQ1Sttj9AbuzWzyliI8Ad5Oasx8g9mCRJneOXgLvJCaxedZLM2JDU4wyGOs/bgQ80PYiGDZMNFf4S+KWIuKvZ4UiSIuKmiPgVsvHNRNPj2WHvBE40PQhJO6/fCvW7wWNk7cxd9GZ3no3aQ64S3QUMRcQq8EgppZ9XzSSpERFxGLiN3A5hiN6dTF0hszPOkmnrknqcwVCHKaVciIjTwCn6Oxiq3UTOQM4BMxFxsZSy0PCYJKlvRMQgcJysEzre8HB22jJZLzRZSplvejCSdl6UUpoeg9aIiH1kvcz9TY+lw/wB8J5SynubHogk9YNqP6FDwO+QDW563UUyVf3NpZS5pgcjaef16jJ3t5sl0+UeImeolJ4H/ExEvKXpgUhSr6tWhPYDvwwcbng4u2UG+B/klheS+oBpch2olLIcEXWr7RGymYDy/8NNwGhEfIpMJZwspfRjK3JJ2mmHgFvJDp/90NlzmZyMPE1/bnEh9SVXhjpUtffQHwHnmx5Lh9lLdjJ6S3XpPkSStDNuAX6UDIr64bt2EZgupZx1kk3qHwZDHayUcg54P/BnTY+lw+whi3jfCvxaRByp8tolSdsgIn6KDITubnosu+iD5N9cSX3EYKjzPUo2UpgHVhseSyfZA+wjUzheDxyOiJFmhyRJ3S0ihqs22t8P3EB/nSdcAM41PQhJu8vZ9M53jtzl+wK5/1A/pCps1Cj5/2Qf8DfAIxFxzr2IJGnzImIPuZXB7dUx2uyIdtUi8EWym5ykPtJPMz5dqZSyRH45/x65OqTLDZJ/vH8LeANwY7PDkaSuNUymIP8q2bynX6yQTRMulFLcaFXqMwZD3WEa+H0yZc5W21f2QuAdEfGCiLADnyRtzk8BryMnmPrp/GAFuBf/vkp9yTS5LlBKWQamIuKvsdX21YyTM5v/FhiOiMdKKXbjk6SrqBrQ3AY8k6wT6rdzgxXg4+QeQ5L6TL994XW7DwPfTOZy99Os3WYMAT9GfrYHIuJC1aZckrS+YeAHyRS5fpxsWyY3ObfeVOpDUUppegzahIh4OfCTZEqYrm4KOAH8aCllrunBSFKniYgbyE1Vf6PpsTTkHHCilPLDTQ9EUjNcXeg+Z4D3ND2ILjEG3Az8UkTcExETTQ9IkjpF9Z14B7mfUL+aIruRSupTpsl1n0vAw8AkWSNjq+0rGwIOAq8g00CIiIeBRXcXl9TPqjqh48CzydTrfjVJNidSj6haxO+hSpenNfE/uOapg6y/KLD2ebS9VrtVMsWy3drbi8ASsOx5R+cyTa4LRcQQ2fr0HuBIw8PpFgvAeeDngFOmzUnqV1UgNAJ8FDhGf7XRXuv/KqW8oelBaPtU50gjZHbIOK3g5sCap+7liYHPEPCkdV52gmpStc0KGUy3+zIZJNVOk9ujXPK8o3O5MtSdloFfIwMhg6GNGSY3aH0X8PsR8dFSygObfZGIGCG/XLdigVydWtri60jS9TgM/GJ1ufYEr598EvhC04PoJ1WgMkwrAK+v1407Bmn9jR1pe9430sqEqVu/71nzc/UmwfVqz0Db8+rb7dY7B25//trnrnf/2pWgtas/y9WxEhHT5H6RM8Dnq8spMuNnBpgtpSys8x7aYQZDXaiUshoRl4BHgP3ATQ0PqRvsoZU2dzcwVC2lP7jRpetq76I6rWQr/hI4S34JStKuiYjDZBvtO8kTzX6uHT5BZgxoHdUK4gD5t3OIDDjq4Hmwuq8OVgbWeWy47bHBtscGgX+95rmjbc+tX7N+X6r7Btuu10FL/dxBOr9sYD+ZNrdATkQsAHNkILQAfC0i5oHZ6nnz1VE/b8FgaWcYDHWpUspSRHycnEG5kf7+g7ZZt5GzSSPAyYhYqPZyupYjwEuAn93i+/8jGQgZDEnaNRExSDaVeQ65n1A/WyX3Fjrb9EB2QjXZB5efG2z2vjqgGWs76lWbUeAbgH3V7eE1j43RWrVpD3b6Wb3StZcMhtazQHY4nCbT675IniucByYjYopcfVqtjhW3D9k6a4a6XETcBfwh+ctlQLR5jwJvB/60lDK/3hPa8uvfR64MbfVL/ZXAh0sp7mkhaVdU32OvAn6e/m6YAJm2NAs8sxc35o6IYVpBzAStie8DZMAyRu5ZCPn3bJxWUDNU/YznFJ2n/tyeJAOmz5P7T056PrE1rgx1v0ngd4GfxpmX63EY+I/AUyPit4AL69TyjAMvJ1PstpJfv0pryXsjK1GStGXVyfEE2UL7SjPS/WSerBfquLrNakWnTj9rD2pGaaWJjbc9DvB1tFYdRml1PqtT0tpXeur76pSygSvcNhDqPAO0tgw5QrbFfxEwExEzwD+QK50XyIYNMw2Ns+sYDHW/GbIG5VV0R85spxmjtev6PwAfiYiL9SpRRIySJw8v4vIZtuuxSi5929pb0m7aD9wC3Ep/d46rLZB7C21bMNTWznmQy4MR2m7Xf5/r5w22PR8uD0zqYGeEbB7QHgxNVLfrYGiUVjC01QY/6lx1oLxvzf0L5IrRJNm97u+Bi1Vt+QJZf7RI1h0tbrAsoK8YDHW5Usos8EBEnCZ/SfY3PKRuVHeaexvwy+Sy84nqsaNkw4WXbsP7LJOb5loAKWk33QK8AU+Ua/PAg+QJ4napGwjUgUp7zUzd5vlbq9uD5AntXlq1OFSXTmhqs+pA+CBZEw1ZVzRDnnPUKXUnsHnTugyGesevkeleP9T0QLrcLwLPj4j7gHcCP0hu2rodlsnZyHVrkyRpu0XEW4DnkY12lN+/F8lurMtVU4n1UtH20Qpq6n1n6iYBdWvnAVoBTf1ze9Yc7fe1n3PVt9c+T9oO7Z/NW8jgaBmYrVLqzgKfJVPqLpZSHmlonB3BYKh3nCY/2OcxJ3wrxsjVoDp14XZas3tbtULO0FjoKGlHVXui3UR+hx3hiZtL9qtVMtD5WTK4+Z9otYweonVeNEKrm1p72+c6da29tfMwBjLqPHVaXbtR8pxmgjxXnCUDpHtodbm9QE4Y9E1Kv8FQjyilTFapcicxGNqqvdVxiPzi2K60hRXyS6bjinYl9Y6qc9wE8G/IgGi7JnR6wR4yneiN5CqP50HqJ/XeTePAsTWPnaqOj5EpdTMRUdccrQCrvdrG29baPSQi6g/3x5sei9Z1CXgauXFaX8y2SNp9EXGErHX8jabHIqlrnSMn2N9TXV7q1U1fnRHpLQvk0uYHya5BzgZ2jiWqHaTJNA1J2nZVetxLyf3MJOl67SfTQI+QtXazEXER+BQZKF0opUw3OL5tYzDUQ0opyxExC3yI3FytvahTzVoApl0RkrTD7gSeRabHSdL1qve5qlt5L5Ltu/eS9elfjIhz1X2z3byvkcFQ71kC/gh4DlnzYjDUGWbIeiFJ2klvIb/73U9I0nYaJleJjlS3l4HHgPeRreofamhcW2Yw1GNKKasRMU9+OFeB1zQ8JKVLwN82PQhJvSkibgF+gNyd3s5mknbaIPl9cwPwuqpl9zuB+0opjzY6sk0yGOpBVUD0KJnv+WKcIewEs2Q9lyRdU0QMkScbg7Q2VaxbPdebc9adLvcC3wEcx7/rknbPQHXU7elfBnxHRHyO3MvrsVLKXIPj2xC/NHtUKeVsRJwkU7OO4b910+bI1SFJfSIi1m7AWZ84rN1oc4AnbsJZ718zQrbBHSdb/X8DmcM/Rmui60j1uBNfkpowQH7/3EFOykwBfwqsRMQFYL6TO9HZWruHRcQB8oP53/GPZNP+T+CtpZT5pgciaedVe/2MkEHLaHW5n1Zg86TqqaPV7X3k3kBj1SFJ3W4W+CTwe8C7O3WfIlcLets0cB9wmtbMoXbfHPDPZCcWSV0iIgbJVLQRMmipLyeqy+Hqqd9IK5VtglZKW/tqUJ1KMth2m7b72y8lqReMAreRTV2+KyL+CjhRSumo8yG/dHtYKWUZmI6Ih8g/sgZDzdgDfAtwY9WGcskW29LuqFZo6kCjvQ6nrrcZoFWLM7jm8cG2x0aA/5nWas9I22uM0WpDO972WpLUzwZorYYvk9+LYxHxMNmOuyPOhQyG+sOfkCkYNzc9kD5Vz4wsAr9F9uTviC8AqQ/UgcwI2Wig/sM8UT3+9dXtA9XlWPXYXuzKJknb5WbgMHA78AbgJLkHY+OsGeoDVRHvvwd+FLir2dH0rdXqWAFOAP8D+H1yB+eOzKGVOklE1PU2o2TtTZ2Cthf4ZjKIGa8eG2u73W7PFa5f6zFJ0vZYJhss/BrwYCnlkYbHYzDULyLiOPA84FeaHouYIjvLnQE+Q7bcvkjOkiwZHKlXRUTdFrq93qa9XXTdQW2Y7JoGrc5qdVpa3Wq6fqx+/lDba7WnuEmSOscqsESe85wBPge8F5hpqsmUwVCfiIgxcmOs95MnHaZIdoYzZIOLU8BHyaYXC2RK3QKwanCkTlGtMsPlLaIH1twebLvOmueNkCm7dToawNeRwVGdwjZKq0lB/XN2V5Ok3lNvO/I28nzoUnXf4m6e+xgM9ZGImAB+GXg5mR+vzvMQuVHZp4CPAAtVIwypcVV3tWFa3dTGyCBmL9lRbRw4SKuhAGTwUwc4kiSt5yTZhvtdwKO72XHOYKiPVCcyR8k8zVtx76FOtEBrZWgOOEsuIX8SOE8uI3f8bs7qXBFRp5LVnc/a20W3b+xJ9ZzRtvsHeeLmoe2totvbQ6+3iiRJ0nrqjJhZ4EHgY2RN0Y5vWG+qVH9ZIU+oT5IzuTc2Oxyto66NqO0lZ9qfTNYa/XNELJDpdMvkl8dsdSyQS8uuJPW4amKjDjrWtoWuPz/rPbb2+tfRCozqmp32z2D983WNj38zJEk7of5bVHfyHAcORsSDZPrczE6tFrky1Ici4tXAy4Afanosui6rwKPkytEU2YThJPllMQlcVoBozVF3aavLuZr2wKVuA13X4Ty5es4QrRS2+rG92z1eSZJ2yDLw34C/Is9zJnfinMZgqE9FxD3AfwaOY/pKL1klV43OkYHRNPAVWqtHU/X1UspUU4Psd9VGoCO00s/GyNqaOlXtm6qn1u2h66Cm7sQmSVI/uQT8GdlsYaqUsrRdL2zKQ/+aIgv0b8ZgqJfsIU+Wj5D7rSyRqXTLtNLqloGliFgkV5EWgX+prte367zdWarOLtj2+zJtqWr1pp7tdTiQ3691oNPeLrpOVavT2Orr7e2hB6vXaG8R3X6/JEn9ZAy4m5wYPBMRfwd8mG04N3FlqE9FxD6yZuj3yA+Y+3H0p7rWaJ4MemZpBUX/SAbNM7SaOtRfOMtkDVr77drSVR5b+3Mr7ED78CrVbO0mmmsL+gfabtePtSrFBvIAACAASURBVAcb7b8Ta5sC1IHQEK1OaaNkUPSktueM0eq8Vqe0jWBQI0nS9TpDbmD/TjITZnYr9UQGQ30uIv6ETJU73PRY1FXqdLv6y2eaVpBzCfintsem2h6brH6uDpBmyaYP27bcDY9v7tkecNQrM5ABSh2kwOVtn59EKwg6QKtzWp2mVr/mvu0cryRJ2pS6LOCtwL2llNPX+0IGQ30uIm4HXg+8oumxqKvUwU37Cg/V7RWeuPrT/nNrb7evCs3RSvXbirWpn+0rQ3WAs2edx9a2hF77/LWPSZKkZqyQ2SsXyD0a/w9ylWhTXXX9g66zwCkyZe5ow2NR99ip745FMuAwbVOSJF3NAJmpUdfufhl4LCLOllLOb/RFLJzvc6WUGeDT5KaeUtPqJgKSJEkbMUpO6r8B+EHgeEQMRcTARrarME1OdX3FceCvmx6LJEmStAWLwL3AO4CT19pKxJUhQRazTwJ/QBa0S5IkSd1oELgF+HngdRHx4mp/v3VZMyRKKSsRMQt8iFwhGsXPhiRJkrrPALnX4gjZGXYcuBARl0opc2ufbJqcgMf3ZRkF/gS4FXe5lyRJUm/4f4A/LqU8sPYBgyE9rgqIXgG8EnhNw8ORJEmStsMC8CjwIPCr5B6HK2DNkNqUUlaBk2R3uasWm0mSJEldYgQ4BtwF/Dtgf11HZF2ILlNKORcRp4EzZO92SZIkqdvtJctARsjz3HlgzjQ5PUFE7CM3YP1Y02ORJEmSttmfAu8ppfyRK0NazxxwGjgBHAYmmh2OJEmStG1uB2Yj4jFrhvQEpZQlcr+he8n9hyRJkqResR+4EbjTYEjrqpopvBM42/RYJEmSpG12FPhxgyFdzQVyI9YPNjwOSZIkaTsNA/sNhnRFVf/1k8D9ZH/21WZHJEmSJG2LQWDUBgq6ljNkC8JLZDOFwWaHI0mSJG3ZHmDIlSFdVdVM4TzwW2RTBUmSJKnbLQEzBkPaiBng3eTq0GLDY5EkSZK2ymBIG1NKWS6lXAQeIZsqSJIkSd1sHjhrMKTN+HPg0aYHIUmSJG3RNPAJGyhoMz4CjJObVN3c8FgkSZKk6zELPAz8V1eGtGFVq+2zwAeaHoskSZJ0nR4BPltKWTEY0mZdAD5K5lmuNDsUSZIkacNWyWZgJ8jtYzAY0qaUUqbJaPoBMtdSkiRJ6gZLwGngQ1R18AZDuh4rwK+RKXOSJElSp1skz13fXF0uAdhAQRsWERPAaNuxCiwDg02OS5IkSbqKRXIl6IHqcr6UsgoGQ9qcg8Dh6ngyGRAtkB3mJEmSpE40T6bG/UFV8vE4gyFdUUT8b8D3kq20jzU8HEmSJGkzloA54PnApVLK3NonGAxpXRGxB/hGYD+wr+HhSJIkSZsxRabEvQ+YJFPlnsBgSFfzNWAIGGt6IJIkSdIGrAAzZPvsjwJ/VEpZuNKTDYa0rlLKakS8G3g6cLzp8UiSJEkbsAj8KfDrpZRrdj42GNLVXCSXGOdwdUiSJEmd7SHgr4DfJleHrslgSFdUSlmOiK+QQZHBkCRJkjrNMjlxfx/wCeBEKWVyoz9sMKRruQCcAW5qeBySJElSuxUyEDoL/ApwYb2OcVdjMKRreYRcFXp10wORJEmS2nwYeH8p5Tev9wUMhnQtU8B5MuoeBfY0OxxJkiT1sSVgFvhN4FPkqtB1MxjSVZVSFiJiiqwbOkq22pYkSZJ22xRwiSzh+BPgYillfisvaDCkjZgHHgQOYDAkSZKkZnwE+HPgI1sNgmoGQ3qCiBgkg547gZuBp5F7DY00OS5JkiT1nXlyJehdwJ+RKXKL2/XiBkN9LiKGgAlgHNhXXZ8Avgk4Ahys7t+LnxdJkiTtjlXgHPAw8DfkHkJTpZTl7XwTT277SETsIf/N62MPGfgcrY6nAcfIAOhAQ8OUJElS/1oh9w5aBE4Av0PuHbRtq0HtDIb6RLUCNEoGPXcB30mu/BzHDnGSJEnqDGfI2qD3lFIe3uk3MxjqMdXqzzC54nOAXOn5dmB/dd9I2+UIBkKSJElq1iLZJe6DwP3kti5Tu/HGBkNdLCLqdLdhsqanDnDqGp8nk8HQkeq+sWZGKkmSJK3rNBkInQbeDzyyUylx6zEY6m6DZOODQ8BLyBS4w8BNDY5JkiRJ2ohV4J3kFi6nSykLuz0Ag6EuEhE3kYHPIeBF1eU4meo2VF36bypJkqRO9gHgo2Rt0CWyYcJqEwPxxLkDRURd13OgOvYCT6KV6jZOrgKN4yaokiRJ6mwLZB3QeTId7tPAWeBiKWWpyYEZDDWs6vLWXvszQAY9h4Cnkylvx8j0N0mSJKkbrNJqkX2e3C/o48CHgYVSSiMrQWsZDDXvOBnoPBV4AXADGRRJkiRJ3WoOeAz4EPBfSykrDY9nXQZDuyQi9pHtrY+Qqz7fVl0fI1PdRjDtTZIkSd1rBrhIrv78TXV9hobqgTbCYGibVfv8jJMbnI5Ul/vJup9vJgOhg2Qt0KFGBilJkiRt3TIwTzZBmKouvwg8AJwqpcw3N7SNMRjafgNkjU+92ekx4B6yDbYkSZLUKxaBM+T+QH8BTJZS5pod0uYYDG1BRNT7+hwFvoes9zlKtrhuP/z/LEmSpG43Q3aDO0nWAp0GZoEVYKVTmiJshifpGxARA2Rtz1Ey3W0CeDKZ6jZBpsXV9480NExJkiRpO82TdT8XyY5wnwOmyZS488Bs062xt8pgaI0q8BmqjmEyvW2YrPt5Jq2anxvIeiDT3zZmtTr8zEmSJHWWZXJ1Z6k6lqtjilwF+izwCFkHtNzUIHeCJ6ZPtJ+s87mZDH4OV/eNNzmoHrBI/nJNND0QSZIkXWaSyzdEPU9uiHq+0VHtgr4NhiJimAxw2psdHCbT3UbajiFc/dmoJXI59Sz5SzQJfIn8xVoi66cOAs8mN5O9AYNMSZKk3bBI7v1znjxXmwS+Ut2eAxaq59QT2D21AnQlfREMRcQgWfMzRp587yNXKCbI/X4OkfU/B8gAaE8jA+0ui+QvzTz5C3SJLKCbJQOgSTKndBo4X0pZqdqOn69+5nPAU8ig6AAZhI7t8n+DJElSN6vT2ZbI5gZ1ENMe0NTtr5fIc7cv09r/Z5o8Z1vu1E1Rd1qUUpoew46LiDFy9ecG4OnAXeQKxWiDw+pmq+QvzzkyuPkM8BHgUilldjMvFBGvAp4P3EH++0iSJGljZslJ6VmypmcG+CpZ6zNNNWldSjnX2Ag7XE8FQxExRK4u3AU8FThSHcdprfa46rM58+Qv02ngL8ll1bqjCABbbaNYrRgNkgHqq4FnkP9m+7byupIkSV1ohsy4uVBd/hMZ8MyQqzh1Vs6F9X64G9tbN6lrg6G2mp99ZMBzEHgSmW61nwyKRmmlxhkEXd0quXR6htZswpfIX7x6xuFSdX1hu3cUrgKiEbJuq05jfDa5WlTfJ0mS1I0u0qrHqYOZ+vYcuZqzQCvlbaHtWGq7f7G+XkpZ2N3/hN7UFcFQW7vr4eoYIYOefWQQ9HQyDW4/divbiPa2ie3FcvUS6xfJwOc02T9+sYlBRsQLgFuB7yL3eBol/+3rz4EkSdJuWrnKsbzm9mrbcZpWrfVXycnm+eq+usZ6rqlzrn7WLcHQGHAj2e766WQK1c2NDqq71d3ezgGfAE4BF7Z7tWe7VOmPB4C7ge8h//2PNzooSZLUj6ZpZczUQcwsmco2SauGp86sWTTA6WwdFwxFxDFand3aV3zqlaH2S13dPK0Vnotk2tuj5C9qvTr0eLeRTs0xrVLoBmitCo0At5ErRjeQgZGpkJIk6VpWaAUz9epNHbjM0wps5ttu16lqi20/s3ZVaJVcGVpdc99qp55fKTUWDFXtrofJepD22p5vJ1PgJqrHDmDL5Y2ol1vrhgfT1X1f4fL2iefJPNOu/cWsgqND1XGQ1h5RB6rbB5samyRJ2hWrtCZ262Oh7bG1++W0314AvkYGLNBKV6vreeo21Itt15dLKX2x706/2bVgqDqBrWfuB8gAaC/wYlons8fIIKgv9j/agvYc1Pr2KTLQuQD8LbkCNNkvS7MRcRy4E3gO8ALys9Z+SJKkzrW6yesr5ERvvapT73kIGfz8Q/VYnbY2Bcx0akmAmrMrwdA6+/zcTc7iu8/P5k2RAc8jwMfJ7m8XgPluXu3ZLlXQPUqmzt0GfD9ZX2aALUlSZ6lXXuDyWpu69uar1fX2gGeWrMNZ2vXRqidtezBUdX47TNb51ClMR8gUuNHqci+ZIje4rW/ee85Xx6Xq+CKtVoz1bMg82erapdtKlYI5Tq4yHiA70X0r+bm8i6w5MjiSJOn6rdJKL6tTzKguF8jzFWilm80C/9J2u66/qc9fltuOx9tHc3kH3PpYcQJY22VLwVA1Cz9EnlxOVNdHyc5v30bWdNxAnoyaqrS+9l/29n7yi2TXt8/RSn8760zI5kXEPlppmC8iW7KP0apTG8TPpySpP9QF/sttt+uW0HWAscTl7aLX/lx9vV6tqc9fIGtx6sYD0AqOZmgFTQvk6o4BjRq31WBohFwBOk6mI9Wbn7rXz8bVaW/ngU+TtT/nSinnmhxUL4uIG4GbgGcALycDIvctkiT1g2UyUJmiFQBNkcFKvbrzFVppa5PVfUuYpqYetKlgqDqJPEiu+Dy/uqxn1uvUI2fZ11cvGZ8l63y+RHZ5O0FrRqZeBl4x7W3nVGl0g7RWNes9rJ5DBvZ2L5QkdZplWvU17W2fZ2it3kwC/x+toKZejZknz0EeP8/g8kZMV7tdd1yj/barOuoV6wZDVd1Pe+3PRHV8e9v1G2ilxqmlbudYz6jMkpub1oWAU7RmYGZLKReaGaZqEbGfrC06BnwHrRbdx8i0T1eNJElbVafB1we06mPqFLOVttvt9TN1etq/VM9bm15fByxzXP76dW3Ocv28Ukp7cCP1vcuCoSoIGqa1seVdwPeSJ4VHyeDHVZ+W9hmUOod2mdzP5xyZ/vYF4CPAdCllbp3XUAepUj+PArcDLyNXPyfIlaR6ksDfAUnqH2tbO69e4b4rPbe+Pk1rY8+Z6v46a+Qr1e0lWilsdXOCOi3NIEbaAY8HQxExStZRvLG6dOPKa6v71p8F3k8GQBdd7ekdEbGX/F24C/g+MlDyd0OS+kMdxEAr62OquqxT1v6xuj1La5+beg+cOTKQ6Ys9/6RuFKUUIuKFwLPJfVmOYmrQWivk7MyjZD7uFNnmup7lWajuX8QvvZ5S1RcNk6tDe8lOdPvIFdM6MNrf2AAlSVczz+VpaO1tn2dprd7MVvd/jdbeN3WaWp1yttp2u667gctbPi/RWg2yDbTUBQYi4jDwLOCFZCF5v6vbPi7SWs6ul6n/lpz1mSK7v83aTaW3VY0slsnPwrmIGCabhkyR6aPfRnZRnCAbL4ziZsKStN3q4OOyvWa4fP+Z+nZd/L9C6294PUlZBzx1MFQ/t17pqYOleWDZZkZS7xsAXgHcjYFQ7SKtzU4/ATxGpr4tXPWn1BeqVb9FqlSIiBgiGy48D/geshvdzY0NUJJ6U/tqTp2mNkvW2kyveWyB3Izcv9uSrinIFoxDZIF4P6lzex8lU97OA4+QX6jtM1ArwKpL3LqSqvFIe7vuw2RQ9DQy9fQGcuJBkvrd2pbQ7UHMV9c81r5B5+omD1s/S9qQIJeLh+jtk7X2WaQpMgj6R/LL9hKXFz4u+wWq6xURe8h0uf3VcZBs172frDU6RqbZ2ZJeUrdbodVcoK6XqVPN6qO9nfRX257X/lh9fXHN7WVMVZO0wwL4e7LeoRfqHOrc3/rLdqU6TpHpb18ETpOrQTPW+2g3RES9h9GNwHPJGqMxMiAaxnbdkprTPvm30nbZvsqy9nb9M4tkN1VoBUKTwD+TKz4z1TEPzJdSLu7Yf4UkXacAfp2sGbqh4bFsh0lyb59HgY+RX9IX3d9HnaRtL6O7ge8n0+r2NTooSf2q3rQTLk9bq7Mm6s3C68fqIGfJCUVJvWAAeDs5u7NK9zRRWCX39DlNBj9fBs7QWnKfp9Xy2i9rdZol8vM7CzxIrhLtJdvb30w2ZDA4krQTpqrjIvBX5CRiPWHYXi+7xPrd29o3GZekrjdQSjkTEffT2iDsJjJlrlNqiOqZqPYAZ54Mgj5PfqFPAufcnVndoPqc1kXEF6q9jMaq218EnkwGQ4er++uW3ZK0VXvIv++DwAiZqjtHtV0EueLj31JJfSNKKXklYpQMhN5G1jd0ysnXo2TNz2eAk2TQc6HREUk7qG2j1x8j23XfRG+ksUrqPFNkSvk7qDYWtyW1pH7yeDAEj7cIHiLrGY6TJ2Lj5Mz0BJnKM0rOJm2neXJV6gy5r88XyZWfT7JOAafd3tQPqqConsEdBW4lmy88BbiF7FQ33tgAJfWC+m9snfp2GngX8JvVvmqS1NMuC4YevzNinAx89pPBUX2M0NpLZQj4V7Q6Yo2uuV4/F1pL8fXtaVpdZk6RBZp1e+t687S5Usrkdv7HSt2oatc9SP4+1mlz+8jf0W8ig6IDtNp5b/dkhaT+MUv+Xf5j4ARwykYJknrZusHQNX8oT85GaAU5o7RWjerr30Qr+JkgT+CGq9vnyFqfLwH3ArMuy0ubExFD5O9WnUb3VDLFdR+tTWCHyUmKPdi+W9LGPQS8D/gLsp5oxawMSb3ouoIhSZ2pmqg4TKbTHQOeQ3aoG8cVI0mbM0mmrv88WUtk2pyknmMwJPWYasWoTlmtV2Tr1NfDwDeQK7hj1Y+MtN0eo7XqK6m/LZNp6/cCby2lnGp4PJK07QyGpD5QbfQ6StYWjdJKb6W6Xt/+elqpdaO00u3qAKu+Ttv1Oh2vbvggqXeskBuwvgF4sJQy3fB4JGlbeeIi9YGqJm+BTHvZkIg4QmvFaG91fCOtDnbj1TFB1inVNYOSescAcAh4Ovn9YTAkqacYDElaVynlHDxeh3Qlax+ra5bqjWInqvtHycDpW6r76pb9+9mZdv2SttdPAfsi4nQpZa7pwUjSdjEYknRV1+gg9YTHImKSbM+7NqWu3vG+PeVuhCem4v1rLq93ak/pW1sLVbf8v17za24vkGlBtUWybqJ+7trH2lsO12M5RAZ8w0i9Y4Rs439HRHy4lLJyrR+QpG5gMCRpW5VS5nlikHFV1erTMK3mDSNc3q6/Ts0bJuua2jeAHqPVOrzekwlamzXX11fbrtdm19yeoxX8QAZHdQetr7Y9NtB2/eu5vAlFvZWA1EuGyJXcZwIfaXgskrRtbKAgqetFRHtTiL3V3ctksAMZ0NRBzcJWZ7UjYgy4kWxb/nzgLqyXUu+bJfccerZttiX1CoMhSV2vWlnaQ67Y1Cve7StD9W02Gwi1rVrdRO7d9DTgblope/UKlZvaqtetkJMMTyE3S1++xvMlqeOZJiep61V1TWuDn+tSBT8DZH1E3UXvCPBt1X0HycBI6jf1ZMMh8ndtptHRSNI2MBiSJC5bXaobO9wKfDdwC3Bng0OTOs0NZH2dwZCkrmcwJKmvRcQQ2aDhTuC5wPHqkLS+7yVrh840PRBJ2iqDIUl9pQp+9pINEI4D31zd3lcd41f+aUnk7839TQ9CkraDwZCknlYFP3Xb7vHqOEjObt9Btgs2AJI27jCwNyKGSilL13y2JHUwgyFJvW4fWeNwHHgZ2QzBfYCk6zcOPIlcUb3Y8FgkaUsMhiT1jKoJwgGy29sN5OrPjeSq0GDbpaStOQrchsGQpC5nMCSpa0XEABngHKJV9/OdZEB0gEzn2YffddJ2a9/gWJK6licIkrpKtfozSH5/DZNBz53A04GbcQ8gaTeMYLqppB5gMCSpa0REPRv9clopcMcaHZTUnw4AT2t6EJK0VQZDkjpWFfzsI7u+fRcZCI2THeDGyFQdSbvPlSFJPcFgSFLHiIgRMsAZIwOfCXIG+jlkCtwEmRonqXl7mh6AJG2VwZCkTnKYTH17BvAKMigy+JE6zwIw2/QgJGmrDIYkNSYijpPBz3cBd9Na+RnEIKgbLALnyH+3UTJ1ajNmgPnqmCZPrutNPH8I26B3MoMhST3BYEjSrqjaYO8HDlaXB4CnVtf3k5uhDmPqTSebByaB02TwMg18Gfh2clPb27h6QLQAXGr72QvA18gAaAFYJdMjn74jo9d2WgTmmh6EJG2VwZCkHVG1wB4Ahmit9NxCdoG7iTx5nsDgp1OtAsvVsQSskIHMKeDPgTPApVLKQkTcCPwzraB2gMv/XevXugicAD4LnK1eY7l6zmD186NkuqSfi862AHy16UFI0lYZDEnaKaNkCtxLyCDoRtyksZvMACeBR4C/BB4rpcxf4bkXgHcDnwR+ldwEd6Lt8Wky+HkTGRDNllIW6gcjYhC4FfhxcnXpyDb+d2hnXCJXCCWpqxkMSdoWEXEAOFodT6WVDjdBNkLYbD2Jds8KcJ5c9TkHfJ4MWubI1LgZMi3qSpaAqeq5vwE8m1z5u6F6/CzwfvLkebF6PwAiYi8Z/LyJ3DPKgLnzzQGfIVf5JKmrGQxJui4RMU7u+bOXXAU6RAZBR8mT230YAHWqJbL4fZIMYObIIOizZFB0Dpgupaxu5MVKKSvASkQsAQ+RaXGLZOrbGBlYnSylXFZwX32GjgG306o38u9S57tApkjOND0QSdoq/+hIul5HyNSm55M1QOO4CWq3mCfT395HrgadvUoK3IZVwdOZiJglA6plcn+oL5An0GsdIT8/L8UNPLvJCTKQlqSuF6WUpscgqYNVjRBGyMDnZuC7gXvIAveBtsOC9840Q6apPQb8bXV5iQyIloHVamVn21SfmXpVaIJcJZotpcxVjw+QDTV+Afg+8rPl5Fz3+F7gvCtDknqBf3wkXaY6UR0g090O0mqBfYBMiduHs/id7BIZAE2TqzNfIOt56mMaWCilLF/xFbaolLIaEctk+l3dia79/YbIerLvri79W9QdFsn0yktkNzlJ6nr+AZL6XDWLv4ecqR8mV4HGgDuAp5Fd4G5tbIC6mro2Z4lWC+yTZI3OF8jubqdLKUtXfIUdUqXMLdHaRBV4/PM2TNaY2TChu8yTTTDmmvhMSdJOMBiSNEjW+9wJPJfsAna80RFpo+aBB8n0t1Nkk4LzzQ7pmobIFccXkatCw80OR5twAXgnl6/ySVJXMxiS+kxEDJGz8UeA55DpcIfI5ge2wO5cdYvrSeA+4ItkutIkmbK0SHekLo2QqZY34N+gbjJPpl3eR65ISlJP8A+R1OOqDS3rFtgHyIL2fcC3kpuhHsJUpU5Ut7+uazQukfU+/0Smv10CZrowXWkPuTo0yvpNN5bJE2/IwGlol8alq5sELpZSppseiCRtJ4MhqfcNkbPwdwAvIVeCbIHd+ebJ1LdHgL8EHtuO9tddYJFWG+4DZOCu5p0h69AkqafYWlvqIVVx+mFyxefpZAB0E63Z9bpZgjrLMhn41PU/j5Kbn9Ytr1c3ugFqN4iI/cBdwMvImqEVcuXhc2QgdI5crfwZ4DWNDFK1VXJF8ieBB0op3ZCKKUkb5sqQ1MWqFLhRsivXwep4GnkiOUGrQN0AqHMskqs+0+SeP5PAP9Cq/5mmO9PfNmOO3LizDvCWyXqnqeqx+epyqrrfOrbmLADvJYPUXv5MSupTBkNSF2nbzHKUDHLGyADoe8lUuGPVoc6xQp5ELpIn+DPkSf5F4H5yFeRiP824l1IWgXMRsUj+/1msHlpq3wA2Ir5A/v+5efdHKfJzOw38OTC53ZvzSlInMBiSussouerzUjIAuhGDn043R6v25/3kvj+zzQ6pM5RSJq/xlL8g//+9axeGoye6ADxUSvlw0wORpJ1iMCR1sIgYJwvIjwPPIOuBDtBqgW2nrc6yShaan6ouP02uANWtr+cw1WgzJskg8kGy9m2s2eH0lQ+QK0IfaXogkrSTDIakDhIRI2StzwEy8BkHnkR2gLuBXBUab2yAWmuZquUwrTbYXyCbH1ysLmd6qfnBbiqlLEfENPAe8vdimEwT1c6ZIwP59wEnSikXGx6PJO0ogyGpYVUdEGSTgwmyPuL5wCto1Qapc6y2Xc4DJ6laXwNnSilzTQ2sR80Dvws8l2wIYjC0M+rP9SXgT4B3V7VdktTTbK0tNSgibiPbYH8P8AJy1ceTvc40C5wl07Y+Ts6an292SP0jIu4GXgn8bNNj6UHLwIeBd5Kf62vVcklSz3BlSNolETFApr4dBQ4B3w4cIQOgCXIVyN/JznGBTHWrjy9Qtb2ujunGRtafzpANKOaA/4S/K9thgVzRrJt7nCP//0pS3/CPibRDquBnmAx2Rsji75vIzVCPkp3gxnAPoE6wSp4ELlbHApn+9nnyBPEccM60oeaUUiarVtxTwD1kXd04/h27HstkQH8a+GtyM9UHmx2SJDXDNDlph1Sd4G4AXkZ2g7uRbICgzrMI3Et2gfsMOVN+3sYHnSkibgdeC7yQXFXV5lwC/gz4L+T+QXY4lNS3DIakbRIR+8j0t7uB7yY3Q91LqwX2IM5id4J58mTwJPB35KrPBTLtbYmcNV8qpSw3NUBdXUQMky3njwI/Qq4U2WXx6laBB8h22SfIToezwIpBv6R+5omZdJ0iYj85Kz1BBkH7gW8hV4AOkSdndoJr3gyZAjdHBj6XgK+QAdAlMu1qxtnx7lFKWYyIS2Q64xD5b3iEnIA4ihMPkMHPEvn5v0R+3j8KPApcKKXMNzc0SeocrgxJG1TVAA2QNT4DwK1k4PNU4Hm0VoHUrBXyRLC+fIw8ETwPfAjbX/eciDhAtqR/NvBSshZvmNbv6h6eWJvXRK3e6prL9R5b7/bVxrq65np9u70u6BNkXdCJjQ9VkvqDwZC0QRFxDxkAfQ/ZDnuMnJVW51gB/oLsPPZZ4GFyFnyl0VFpV0XEXnKl9hjZsOQIrdVbyJWj3U6rWyVTMWfJGrXaArlqeWnN879c/cwAueK8nmXgH6rri9VrXyJTZzQKdAAADTBJREFUQWdLKWtfU5K0Rr+nEUhPUK0ADZIzzUeAp5CNEPaRJ1Bj1eF+QM2qT/5OkSs/XyZPBM+RJ5jz5My49RD9Z54MFGbJlZERcqWonrzYQ+v3d4Rsaz9a3f5X1fXNdHqcJz9zX6tuL5IpanV3wvozWNektX8mV6r71nYqXKqet4crT7rUqXD19fp16teUJF2DK0PqexFRnxiN0drzZ4JcATpKqw22mrVAK8iZIwOdSeDTZAB0EbhUSllobITqOhFRt70fq+4aJIOhcTYeDM3R+nxSXdaB0KINCiSpcxkMqe9FxBAZ/NwBPJ9sg31zo4PSek6Tq0B/A3wSOFtKceNTSZJ03UyTU9+p2vLuJ1PfXlRdHiZnhOsW2GrefWT763rfnznaWl+TqUCSJEnXzWBIPa9a+Rknu70dJQOfbyFrgNprgdSMZTKtqE51q4vMP0emwU1W9y+bbiRJkraTwZB6TlsNUH2Mk40QjgHfR3aCM/hpzgqtAu8lsgZomtwQ8uNk6+vzjY1OkiT1DYMh9ZQqEBoFXgA8g6wDuhk/653kAln783GyDfak+/5IkqQmeIKorhYRg2Tzg5vJFLinVJcTtNpgN7G5onL1Z54Mfs5Vx9+RXeDmqmOaVmtgSZKkXWUwpK5S7QE0RKvOZ4LcTPG7yFS4w9Vt7b469W2KrPmZqa7/PXC+Oh4ja39sfiBJkhpnMKRuM0IGQi8m0+BuJFeC1Lx6k8u/IFPgTpVSTjU7JEmSpCszGFJHi4gJ4CBwO/AccvXnINkYYQA/w026SKa+fQx4ELhErgYtk6tEdn6TJEkdzRPJq6hOxCFrTobJVYlhMk2r3q18Bni0lGLdwzaIiDEy9W0/cBPZAns/GQAdIlPjRpsaX59aBRbJlLcpWkHQP5I1PxfJuqCFUspiQ2OUJEnatJ4NhqquYnto/TfW19vvg9bqwtrnQ56AQ65C1Cfpo8A3kKlakHUQCxFxDlhyH5TNqWqA6gBzGDhA1v18J/BCMhCyDfbuWqXV9rreA2gaOEvu/fMY8BD5eV9uapCSJElbFaWUpsewIyJihDyJrgOaserYB3wzGeBQPV4/tpcMeDYTJNZ1Eq8k90eZ3fLg+0hEHAbuAp5NtsMep/Vvo2bMkCs9J4C/AU6WUk42OiJJkqQd0FPBUETsJTfWfAutFZ+h6uH6dr0RZ91ueXDNYwNsrhXzKlkf8RBwP3BfKeXhLf2H9KiqDfYxMv3tqdX1euVntLrc7P9/bd0FcoXzLNn6+hIwSbbFXiDT3xYaG50kSdIO6bU0uTq9Z5nWXjM7vcqwp3qPW6rLr4+IZeBsKWV+h9+7o1XBzxiZ+la3wf5OMgg6XB1jV3wB7YQlMuVtjgx2pshg6Eu0AqLpfv/sSpKk/tBTK0Pw+An4rcCbq8vdPtleAP5f4B2llNO7/N4dJSLGgRuAl5HB4o1kQKRmrJKB0EP8/+3dX2jdZx3H8fdTSglhhFBKGaWMOrohVTad25hDp/hndIrinXohCP65Ea+8FBGvhteCXg2U4XQXOoRtik4dY2yzlnVqiV1ss9JlMYYYQgghhJDHi8+TJpNs/ZOc80ty3i84nDQlOU+bXpxvv9/v54Exsv/zHOn8GAAiSZIGzr4rhuBqeMJtZAH/e2QXqJ+jV6vABXLfyqPAwiAEK5RSjpOO3OeAB9hIfzuw6aH+WSCpb68B59rzWVIUrQFrg/DvUpIk6Z3sy2IIrgYo3Al8CvgGKYj6Gck8T96IvgA8BkzVWuf7+Po913a0jpG7f06RGOyjZPztGIkiH3rHb6CdNkv2fS6TuOs32/NM+72ZWutMZ6eTJEnaZfbbztBVtdbFUsoF8ibwfcA95E17v96cj5KggBPAv4CzpZQ9vUdUShkhe1FDpLA82R73AR8hXaDhzg44WFbJ3T/L7bFIiqALJAThPDBp8SNJkvTO9m1naLN2kec3ga+QvZUuPAH8vNb6bEevv22llM+Q8IM7gC+Qgs/OTzemSfT1eeAfpAM55+6PJEnS9RuUYuggWdw/BXwf+AD9HZmD3EV0GfgF8Mta62SfX/+GlVIeJn9nd5DRtxNsXJC6eRdIvbVMkt7OAG+Q2OuzpBu0TDpEi8CqO0CSJEnXb9+OyW1Wa10Fpkspy8CTJHr7FNlr6ZfDpIj4LLBUSnkVGNsNY3OtWBwiF9JujsG+jxRAx9nYAbL46b1FMt45QYroORJ9PUY6QrO11ovdHU+SJGl/GIhiaF0LMPhxi9+GvPnv55v7YeDj7XV/B/yklLLY5f/mt+S9Q6T4uR/4NNmvuqurMw2ozf8GZkny25OkAJrw0lNJkqSdNxBjclsppbwfOA38kG66Hcskce7L5ILWqX69cEvau40UPF9sz7f36/X1NjNsRF7/Fvj7bugWSpIkDYJBLoZGyfjXt4CHyNhcP62Scb0XgD8CL9VaX+rFC5VShtkYgbuLpOsdJeNwJ0hX6JZevLbeZpVEX4+T/bE3SPT1LBux2PO11pWuDihJkjRIBmpMbrM2MjdfSvkV6QwN0d/uyMH2OE3G54ZLKXPkzfHydkbn2g7QLe37jpAi6AQJQniQJOqNbufwuqZVNuKv59gIObhALkAdJyNwU4YeSJIkdWNgO0OblVJOku7QYx0eYwF4nqTdjddal27mm7QdoBHgXpKa91FScB16t6/TjpsnYQfjwFMkAntP3zMlSZK031gMAS1Q4QjwCeA75CLRfo+NrZHOwUXgaeCxWuuVa31R6wINk4LnbnIP0CnS6Rpiozuk3poj6W/nydjjRTL6tkIK3WVgxS6QJEnS7jGwY3Kb1VpXSimzwEtknOxjZJxsuI/HWO/ovJe8cT5QSnkcmN7cTSilrBc4t5M9oKPt+YMkFGE9Blu9NUPu+1l/ngLeIns/58nP7aa6e5IkSeoPi6GmLa1PlFJ+Sjo0J0lx0e+kuWFSiD0AXAJeafcjQX5eo6TYeRj4MCmeTvb5jINmrT1WNz1fIAlw50gRfaXdZyVJkqQ9wjG5LZRSRkjB8WdSfAx1eJznSPTyf4BHgDtJ90f9sUC6P2O06GtyWe58p6eSJEnStlkMbaHtEA0BXyL38NxPd9HT02QZf5kUaOspceqN9dG3aeBlMvY2TYqi9Z/FgvHXkiRJe59jcltob3RXSilPk7t4DpDRtS4S2W5tD/XGLIm9Xo/AHicF0b9Jut9UrXWus9NJkiSpZ+wMXUO7sPRB4HGSOGcBub88SwqgfwJ/AiZrrcvv/iWSJEnaDyyGrqHd2zNMwhQeJzs7XY3M6eYtkS7Q88DrJAZ7jIzErbTHMrBm/LUkSdJgsBi6Dq0gOgR8HfgkSXpzdG13myPFzyQZe5smo2/jpACaIfHXdoEkSZIGlCNf16F1CpZb7PY8SZg7QnaJ+h29ra2tkMjr1fbxBIm//gtJgJuotU51dzxJkiTtNnaGblC79PQI8BS532e02xOpeY50fV4ne0DTtdbFbo8kSZKk3cxi6Aa1kbkh4CHgayRc4Vinhxosy+RS3FfI+NubwEXgCom/XqTtAXkJqiRJkt6NY3I3qI3MLZVSXgRuJ4XRYbq9mHU/WyIFziwpdmZJsfMyKYamSDG0ZPCBJEmSboTF0E2qtS6WUn5NdojuBY7i/lAvzJDxtz+Q3Z+LtdaJbo8kSZKk/cAxuW1oI3NHgXuAn5FdIm3PK8BrwDly788iGY27GpBgB0iSJEk7wc7QNtRa10op86Rj8XvgfhKqoGtbJUXOGBvx12+1j6fbryfJ7o/FjyRJknacxdA2tXtqJkspz5C7iG7FS1m3sh57vcRGCMI8KSL/BozVWse6O54kSZIGjcXQDqm1PlFKmSNv8r/a8XF2o2kSdPAM8CJwudY63e2RJEmSNMgshnbWGdLteBA4Dgx3e5xOrJG/g0ngMhkhPAfMsZEGN0+6Q5IkSVJnDFDYYaWUEeC7wOdJ9Pahbk/Uc2sk3GCKFDyzpAha3/8ZB86T6Gvv/ZEkSdKuYWdo5y0Cj5JC6Fb2fzG0Sjo9zwN/BV6ttZ7p9ESSJEnSdbAz1COllBPAaeAHJHJ7v9xBNEM6P78BXiV7QFOkKFoD1kx/kyRJ0l5gMdQjpZRbSHfoIeDbpEs00umhbtwCGX2bJuNul8gY3CwpgmaA+VrrYmcnlCRJkm6SxVAPlVIOkhCFHwF3ASdI7PYBdl+naI2Ny02XSQT2FbL3MwG8TC5DnW9x4pIkSdKeZjHUBy1U4TTwSHs+zO7bJVoiF6CeJ/f+nK21vtjtkSRJkqTesRjqg9YhGgFG2+MB4EMkgvtOuukSzQAXSPHzOun+XCZF0RKw6PibJEmS9jPT5PqgRUrPtQellCUyfnYJeA8wRMbpRknYwtCmz0GKpfXPrRdOS1u81CoZc/v/Xy/y9vG3WRJ6cIns/lwBpmutc9v+w0qSJEl7hJ2hXaCUcgQ4BpwC7iZhC4fb5yAjdUdJoXSQ7PfMbPGtFtpj3TIpwCbb839JGMIZUvxsVVBJkiRJA+F/lz26JU9z/C8AAAAASUVORK5CYII=;rotation=5;" parent="1" vertex="1">
          <mxGeometry x="113" y="157" width="120" height="48" as="geometry" />
        </mxCell>
        <mxCell id="qRgVFrvN4o-EPye_5gww-11" value="" style="shape=image;html=1;verticalAlign=top;verticalLabelPosition=bottom;labelBackgroundColor=#ffffff;imageAspect=0;aspect=fixed;image=https://cdn2.iconfinder.com/data/icons/web-development-and-studio/512/44_satellite_antenna_radar_space_dish_space-128.png;rotation=135;flipV=0;flipH=1;" parent="1" vertex="1">
          <mxGeometry x="166.5" y="187" width="23" height="23" as="geometry" />
        </mxCell>
        <mxCell id="qRgVFrvN4o-EPye_5gww-18" value="" style="shape=image;imageAspect=0;aspect=fixed;verticalLabelPosition=bottom;verticalAlign=top;image=data:image/png,iVBORw0KGgoAAAANSUhEUgAAA0MAAAFOCAYAAABEwcYYAAAgAElEQVR4nOzde3DdaXng+e/j0mo0WkVRFMU4jnEc4zim03Qap9NpmqZpmkt6uAcIQ5LJZCY3ctksSbEMlWKpFDW1xaay1EwqxbKZScLmQi4kQCCQEOjpbjpNA06ncRpjjHGMMUZRFKFohaJSqVR694/n9+tzrJZtybr8zuX7qfrVueqct9tHR7/nfZ/neaOUgiRJUtMi4hbgzcALgKFtfvkp4I3Ae0spC9v82pK61J6mByBJklSZAz4FLO/Aa48CzwdeuAOvLalLGQxJkqROMQecABaB1W1+7WHgVuC5EbE/Iga2+fUldSG/CCRJUkcopcwA90bENDBSHdvpKHnu8wXgt4HZbX59SV3GlSFJktRp/hh4bIde+wDweuD2iNi/Q+8hqUu4MiRJkjrNSeDpO/Tag8A+4CUAETFTStmJGiVJXcCVIUmS1GlOA5Nsf91Qu1cAzwLGdvA9JHU4gyFJktRRSikXyK5y9+3g20yQAdF/2cH3kNThDIYkSVInugg8ssPvsQ+4JSJeHBH7dvi9JHUga4YkSVInmgQ+Te45NMDOTOCOAIfI+qG5iFhwQ1apvxgMSZKkjlNKOR8RS2T763Gy8cFOGAR+Cvgyuc/RqR16H0kdyDQ5SZLUqZaADwMzu/BePw78fESMRoTnR1Kf8JddkiR1qiXgfnZnc9R9wM3AS4GhXXg/SR3AYEiSJHWqZeAhYBpY2eH3GgIOAz8MjEeEpQRSHzAYkiRJHamUslJKOU8GRCd34S0ngHuA1wK37sL7SWqYwZAkSep0nwHO7OL7vRp4XkQc3cX3lNQAgyFJktTpzgCfJ2uIdsNR4BnAnRExYEMFqXf5yy1JkjpaKeUUmSY3B6zu0tveAfwcuReR50tSj/KXW5IkdYMp4IPsfCOF2jBwBPh14IZdek9Ju8xgSJIkdYNpss32bgVDe8gOc7cCt0fEsV16X0m7yLaRDWhr17laStmt5X5JkrrZDPAwsAAMsjvnMANk/dBzgIWIuFBK2a26JUm7wJWhZuyrjtGmByJJUjcopSyWUi4A9wEXdvntXw38OHCL+w9JvcVf6B0SEUNksLOXnFXaDzwZOFTdtwrMRcQvArOllIWGhipJUjf5GDmheGSX3/cG4M3Aj0bEbClleZffX9IOMBjaoqrd5gAZ4IxUxzi5cdtYdfkUWqtBB6vnrAKLwIuBT0bEmVLK4q7/B0iS1F0eBZ4JLJPpcrtljKp+qBrDhV18b0k7xGBo6/aQHWduIVeAngIcr65fKw1ukJxlehuZC31x54YpSVL3K6WciIgvAPPkhONuGayOnwR+A4MhqSdEKaXpMXSNiDgIHANuBL4XOEyu9oyRgWVdg9V+/VpWgVngFPAm4DFT5iRJurKIeAXwA8BrGnj7FbLF9/tKKb/bwPtL2kauDK0jIkbJ2aaDZPrbBPAksu5nojr2k0HQMNl683rtIVeQjgGvA369Spmb2cJrSpLUy84Bn6KZYGgAuAlYiYiHgEk7zEndy2CoEhGD5CrPMK3anqeRDQ8OkqtA4+xMB776vV8NfKYaz2OllPkdeC9JkrrdReAk2WZ7iN0/nzlMni/cCjwQEdNulSF1J9PkKhFxhKzduYvmW17fC/z3Usq7Gx6HJEkdKSIOAG8H7iAnK3fbClnv+yPAwzZBkrqT+wy1LAKPVZdNuwV4S0Q8LyL2Nz0YSZI60CLwUWCuofcfIIOwHwde2tAYJG2RwVDLAvBx4FJ1vUljZDe6HwBuj4jDDY9HkqROswicIFdnmtrzZ5CcwHxmRNxYbbchqYtYM1Sp6nM+HBE/QmvPoCbtAX6KVqe6880OR5KkzlE1LTgREVNkYLSbew61O0LuPfQl4HRDY5B0nQyGnuhtwDTwC00PpPJq4JYqN/q3SymzTQ9IkqQOcj/ZzOB5DY7hOHAz8EjVEXaqwbFI2gSXc5/oIvBZsn6oU+wFXgm8JiJubnowkiR1kEeBM00Pgjyn+kngeERsZcsNSbvIlaE1SikzEXEWeJjcR6ATjAC3URWJRsRMKeVSs0OSJKkjnAE+T6bKDTc8lnuqsZynMwI0SdfgytD6TgK/3vQg1nEPOev0uqYHIklSJyilTAMX6Ix6nXEyk+O1TQ9E0sYYDK1vgfxi/aPqspMcA34oIn7NlDlJkgA4B/wO0Akbnx4FXhAR/z4imtj/SNImGAyto9pFegn4c7LVdicZAvYBdwP3RMRtEdFUBx1JkjrBNJnevkBuhtqkIWA/8P3AwYhoOnVP0lUYDF1BFRD9BdlQoekv1rX2ADeS+xB9PzAWEdZ/SZL61RyZ4r5Ac3sOtRsDXg4covmtOiRdhSfQV1FKmYuIdwHzwE83PZ51HCf3N7gb+OGIuFjtuyBJUj85SDYa2ocTvZI2wS+MazsJ/DU569QJuchrDQGHyaYKd7scL0nqJ1Vdzm3Az9E55zXLZEe5SXJCVVKHcmXoGkopkxFxGjgF3EIGH51kkOxecw+ZzrcYESeApSrVT5KknlSliN8MPAu4o+HhtFsiW2vPmrEhdbZOmUHpdJPA26n2+elQh4EfI1uC76fzgjZJkrZNROwh63FeD/xQw8NZawG4v7qU1MEMhjZmFvggucv1VMNjuZphsoboD8m2nnsbHo8kSTtlL/Cr5MrQaMNjWWsOeDd5/iCpg5kmtwGllBVgISLuJwOOfQ0P6Ur2kGlzx2h1mbsXmDRlTpLUKyLiINlE6Hayc1snTe5Ok/VC03ReN1pJaxgMbc69wJPJL99O3dunTht4KTlrNg3MRoQ1RJKkrlfVCd0APLe67DSXgNPWCkndoZNmUjpeKeUkmQN8X9Nj2YAxsqnCh4C7yDoiSZK63S3AjwL/S9MDuYLHyHMFSV3AYGjzTgHvanoQm/Rm4FURcaTpgUiSdD0iYigi9gG/SAZEneoLZI2xpC5gmtzmTQEngAtkGlo37OtzG1nEuRQRi8BMKaUTduiWJGmjJsi/Z3eQW0p0ommyTne66YFI2hhXhjaplLJA5gN/kGy53S1eCPwycCeZQidJUjc5BryRnIjs1O0jTpABkaQuYTB0fZaAXwEeobP3HlprL/AO4A0RcXfTg5EkaSMi4j8ArwVuorOzWn6DTKeX1CU6+QulY5VSViNiBvg0cJDsLtcN9pCrQncDeyJiCfikXeYkSZ0oIgaBo8Czyf2EOrWT6wo5UXoa9xaSuorB0HUqpSxFxEngW8gc5m5aZTtO/kFZAs5GxIItQCVJnaRqoT1CdkS9jdxUvFMtkelxl6zJlbqLwdAWlFI+EhErwKvJFLRuCohurI5x4A+BB5sdjiRJl9lPdo379aYHsgGXyL0IzbSQukw3nbx3qovAfwMWmh7IdXox8KMR8eqmByJJEkBEDAPPA17X9Fg2aBr4GAZDUtcxGNq6GeCvyC/Cbkw1O0CmH7woIm6PiJGmByRJ6nt30KoT6nTL5DnAKWtwpe5jmtwWlVLmgIcj4iy559D+hod0PW4gg6Ix4PXAuWaHI0nqc79Ido4bbXogG7AATJVSzjQ9EEmb58rQ9nkrcF/Tg9iCUXIvordHxE80PRhJUv+JiGMR8atkl9Z9TY9ng94LfLTpQUi6PgZD2+cc8FngbNMD2YIBcpXoJRHxv0bEUNXNR5KkHRURh4FbyVqhYbrnHOXzwIWmByHp+niiu01KKVMRcYrcffpo0+PZggPkH6FDwAPApYiYMw9akrRTqv2EbgSeSXfUCUE2S1gGzgOTDY9F0nXqllmXbnEvmS7X7cbJXO3fAl5ABkeSJG27iNhDbmD+w8CrGh7OZiwDp4DzpZSZpgcj6foYDG2vZbK73HuBqYbHsh2OAW8A3hoRB0yZkyRtp2pFaC/wFjJFrhsaJtQWyVrhuaYHIun6eXK7jUopqxGxAHyITDMbBwYbHdTWjJAB0SCZE/2BiJgupXRjC3FJUuc5CBwnGybspbvOS5aAjwPzTQ9E0vVzZWj7LZErQ+fJWaNuN0zWQL2punQfIknSdrkJ+I/kBGK3pWQvAg9iMCR1NYOhbVZKWa32Hvpj4INNj2ebDJItTt8FvKnq+CNJ0nWLiB8jA6EXND2W63AauLeUMldKWWl6MJKun8HQznmUXD6/SHac6QWj5K7gvxgRRyLCVSJJ0qZU2zYcAV5Crgx147nIJeAzTQ9C0tZ14xdQVyilnAdOkkFRr8waDZGtT18B3AkcjIihZockSeoWVee4cbJG6HayZqgbXQQea3oQkrbOYGhnnQPeRnaZ6xVDwH6y7fargCPNDkeS1EXqSbVfIYOibvX5UspDTQ9C0tYZDO2sOXJ16AFySb3X/AzZdvseV4gkSRvwH4A3AhN0V+e4dg/Tm3/Tpb5kMLSDSikrpZQF4KNkd7les49sifpvgVsjYl/D45EkdaCI2BMRdwDPIleGujUQAniITJOT1AO6+cuom3wA+E6y+UCvBaD7yZm+aWBPRMzYWUeStMYg8IPkBNrehseyVfcDF5oehKTtEaWUpsfQFyLi5cArgX/X9Fh20CPAR0opb2p6IJKkzhARR4HbgN9peixbtESmvz+12kJDUg/otVWKTvYY8FdND2KHHQLuiYhfcC8iSVJE1J3jXtv0WLbBLHCC3ukQKwnT5HbTJbKZwnkytawXGw5MkHsRvRKYiQiAi6bNSVL/iYgBMi3uWWRA1O3mgL/FYEjqKa4M7ZJSyjIwCbyjuuxVg2Rt1C8DrwNGqn0lJEl9ogqERoA3kdsw9IJp4D4MhqSe4knq7poDfhs4Cyw0PJaddhB4OfBO4FhEjDY8HknS7jlA7iV0AxkUdbt5soPcI2Y7SL3FYGgXlVJWSymzwCeAU02PZ4cNkh2DbgF+hGy9bUAkST0uIg4Bt5JZAqP0xrnGGeBzpZSlpgciaXtZM9SMB4BvJAOFXv43GCJnB3+C/GM4FRFngNVSymqjI5MkbbsqPe5G4LnkqlCvOEk2QpLUY3phtqbrlFIeJDvLnQT6ISiYAP4T+d98GzlTKEnqPbcBPwn8VNMD2WafAh5tehCStp/BUHPOkfU0/RAM1caB/wy8tNp3QpLUAyJiOCL2Aa8Hbmp6PNtohfx7fYms+5XUY3o5RavTTQMPVpdjwHCzw9kVQ8BdwBQwGBHLZOvtfgoIJakX1TWid9IbDRNqK2S90Iz1QlJvcmWoIaWUuVLKKeCTZEDUT14D/BzZbtXPoCR1v5uAN5IZAIMNj2U7LQMfIzdcldSDopTS9Bj6WkQcB36J3tmHYaOWgSXg/wbeX0r5ZMPjkSRdh4j4CeAlwD30ViAEmcnw3cCsK0NSbzJNrnkXgL8DjpEdePrFYHU8D9gTEePkZnbLps1JUueLiGHgZuD55N+vXguEZsh9AWfJCTxJPchgqGGllNmIOAl8K9mGtN/Sxm4h88v3kn90JiNiyYBIkjpX1UJ7HPg3wO3kNgq9Zgo45YqQ1NsMhjrDfeTM04vJNtT99u9yDDhIziz+PLmXw2KjI5IkXc1BMgj635seyA46Q24JIamH9dsqRKdaAiaB99K/RZpDwFHgLcBPR8T+hscjSVpHlR53D/Dapseywy6STY4k9TCDoQ5QpYTNkTNQM2Qrz36zh9yM9Xbg+4AXRsRERAw1OyxJ0hp3As+it/YTWmsa+Eoppd+6vUp9x2CoQ1Sttj9AbuzWzyliI8Ad5Oasx8g9mCRJneOXgLvJCaxedZLM2JDU4wyGOs/bgQ80PYiGDZMNFf4S+KWIuKvZ4UiSIuKmiPgVsvHNRNPj2WHvBE40PQhJO6/fCvW7wWNk7cxd9GZ3no3aQ64S3QUMRcQq8EgppZ9XzSSpERFxGLiN3A5hiN6dTF0hszPOkmnrknqcwVCHKaVciIjTwCn6Oxiq3UTOQM4BMxFxsZSy0PCYJKlvRMQgcJysEzre8HB22jJZLzRZSplvejCSdl6UUpoeg9aIiH1kvcz9TY+lw/wB8J5SynubHogk9YNqP6FDwO+QDW563UUyVf3NpZS5pgcjaef16jJ3t5sl0+UeImeolJ4H/ExEvKXpgUhSr6tWhPYDvwwcbng4u2UG+B/klheS+oBpch2olLIcEXWr7RGymYDy/8NNwGhEfIpMJZwspfRjK3JJ2mmHgFvJDp/90NlzmZyMPE1/bnEh9SVXhjpUtffQHwHnmx5Lh9lLdjJ6S3XpPkSStDNuAX6UDIr64bt2EZgupZx1kk3qHwZDHayUcg54P/BnTY+lw+whi3jfCvxaRByp8tolSdsgIn6KDITubnosu+iD5N9cSX3EYKjzPUo2UpgHVhseSyfZA+wjUzheDxyOiJFmhyRJ3S0ihqs22t8P3EB/nSdcAM41PQhJu8vZ9M53jtzl+wK5/1A/pCps1Cj5/2Qf8DfAIxFxzr2IJGnzImIPuZXB7dUx2uyIdtUi8EWym5ykPtJPMz5dqZSyRH45/x65OqTLDZJ/vH8LeANwY7PDkaSuNUymIP8q2bynX6yQTRMulFLcaFXqMwZD3WEa+H0yZc5W21f2QuAdEfGCiLADnyRtzk8BryMnmPrp/GAFuBf/vkp9yTS5LlBKWQamIuKvsdX21YyTM5v/FhiOiMdKKXbjk6SrqBrQ3AY8k6wT6rdzgxXg4+QeQ5L6TL994XW7DwPfTOZy99Os3WYMAT9GfrYHIuJC1aZckrS+YeAHyRS5fpxsWyY3ObfeVOpDUUppegzahIh4OfCTZEqYrm4KOAH8aCllrunBSFKniYgbyE1Vf6PpsTTkHHCilPLDTQ9EUjNcXeg+Z4D3ND2ILjEG3Az8UkTcExETTQ9IkjpF9Z14B7mfUL+aIruRSupTpsl1n0vAw8AkWSNjq+0rGwIOAq8g00CIiIeBRXcXl9TPqjqh48CzydTrfjVJNidSj6haxO+hSpenNfE/uOapg6y/KLD2ebS9VrtVMsWy3drbi8ASsOx5R+cyTa4LRcQQ2fr0HuBIw8PpFgvAeeDngFOmzUnqV1UgNAJ8FDhGf7XRXuv/KqW8oelBaPtU50gjZHbIOK3g5sCap+7liYHPEPCkdV52gmpStc0KGUy3+zIZJNVOk9ujXPK8o3O5MtSdloFfIwMhg6GNGSY3aH0X8PsR8dFSygObfZGIGCG/XLdigVydWtri60jS9TgM/GJ1ufYEr598EvhC04PoJ1WgMkwrAK+v1407Bmn9jR1pe9430sqEqVu/71nzc/UmwfVqz0Db8+rb7dY7B25//trnrnf/2pWgtas/y9WxEhHT5H6RM8Dnq8spMuNnBpgtpSys8x7aYQZDXaiUshoRl4BHgP3ATQ0PqRvsoZU2dzcwVC2lP7jRpetq76I6rWQr/hI4S34JStKuiYjDZBvtO8kTzX6uHT5BZgxoHdUK4gD5t3OIDDjq4Hmwuq8OVgbWeWy47bHBtscGgX+95rmjbc+tX7N+X6r7Btuu10FL/dxBOr9sYD+ZNrdATkQsAHNkILQAfC0i5oHZ6nnz1VE/b8FgaWcYDHWpUspSRHycnEG5kf7+g7ZZt5GzSSPAyYhYqPZyupYjwEuAn93i+/8jGQgZDEnaNRExSDaVeQ65n1A/WyX3Fjrb9EB2QjXZB5efG2z2vjqgGWs76lWbUeAbgH3V7eE1j43RWrVpD3b6Wb3StZcMhtazQHY4nCbT675IniucByYjYopcfVqtjhW3D9k6a4a6XETcBfwh+ctlQLR5jwJvB/60lDK/3hPa8uvfR64MbfVL/ZXAh0sp7mkhaVdU32OvAn6e/m6YAJm2NAs8sxc35o6IYVpBzAStie8DZMAyRu5ZCPn3bJxWUDNU/YznFJ2n/tyeJAOmz5P7T056PrE1rgx1v0ngd4GfxpmX63EY+I/AUyPit4AL69TyjAMvJ1PstpJfv0pryXsjK1GStGXVyfEE2UL7SjPS/WSerBfquLrNakWnTj9rD2pGaaWJjbc9DvB1tFYdRml1PqtT0tpXeur76pSygSvcNhDqPAO0tgw5QrbFfxEwExEzwD+QK50XyIYNMw2Ns+sYDHW/GbIG5VV0R85spxmjtev6PwAfiYiL9SpRRIySJw8v4vIZtuuxSi5929pb0m7aD9wC3Ep/d46rLZB7C21bMNTWznmQy4MR2m7Xf5/r5w22PR8uD0zqYGeEbB7QHgxNVLfrYGiUVjC01QY/6lx1oLxvzf0L5IrRJNm97u+Bi1Vt+QJZf7RI1h0tbrAsoK8YDHW5Usos8EBEnCZ/SfY3PKRuVHeaexvwy+Sy84nqsaNkw4WXbsP7LJOb5loAKWk33QK8AU+Ua/PAg+QJ4napGwjUgUp7zUzd5vlbq9uD5AntXlq1OFSXTmhqs+pA+CBZEw1ZVzRDnnPUKXUnsHnTugyGesevkeleP9T0QLrcLwLPj4j7gHcCP0hu2rodlsnZyHVrkyRpu0XEW4DnkY12lN+/F8lurMtVU4n1UtH20Qpq6n1n6iYBdWvnAVoBTf1ze9Yc7fe1n3PVt9c+T9oO7Z/NW8jgaBmYrVLqzgKfJVPqLpZSHmlonB3BYKh3nCY/2OcxJ3wrxsjVoDp14XZas3tbtULO0FjoKGlHVXui3UR+hx3hiZtL9qtVMtD5WTK4+Z9otYweonVeNEKrm1p72+c6da29tfMwBjLqPHVaXbtR8pxmgjxXnCUDpHtodbm9QE4Y9E1Kv8FQjyilTFapcicxGNqqvdVxiPzi2K60hRXyS6bjinYl9Y6qc9wE8G/IgGi7JnR6wR4yneiN5CqP50HqJ/XeTePAsTWPnaqOj5EpdTMRUdccrQCrvdrG29baPSQi6g/3x5sei9Z1CXgauXFaX8y2SNp9EXGErHX8jabHIqlrnSMn2N9TXV7q1U1fnRHpLQvk0uYHya5BzgZ2jiWqHaTJNA1J2nZVetxLyf3MJOl67SfTQI+QtXazEXER+BQZKF0opUw3OL5tYzDUQ0opyxExC3yI3FytvahTzVoApl0RkrTD7gSeRabHSdL1qve5qlt5L5Ltu/eS9elfjIhz1X2z3byvkcFQ71kC/gh4DlnzYjDUGWbIeiFJ2klvIb/73U9I0nYaJleJjlS3l4HHgPeRreofamhcW2Yw1GNKKasRMU9+OFeB1zQ8JKVLwN82PQhJvSkibgF+gNyd3s5mknbaIPl9cwPwuqpl9zuB+0opjzY6sk0yGOpBVUD0KJnv+WKcIewEs2Q9lyRdU0QMkScbg7Q2VaxbPdebc9adLvcC3wEcx7/rknbPQHXU7elfBnxHRHyO3MvrsVLKXIPj2xC/NHtUKeVsRJwkU7OO4b910+bI1SFJfSIi1m7AWZ84rN1oc4AnbsJZ718zQrbBHSdb/X8DmcM/Rmui60j1uBNfkpowQH7/3EFOykwBfwqsRMQFYL6TO9HZWruHRcQB8oP53/GPZNP+T+CtpZT5pgciaedVe/2MkEHLaHW5n1Zg86TqqaPV7X3k3kBj1SFJ3W4W+CTwe8C7O3WfIlcLets0cB9wmtbMoXbfHPDPZCcWSV0iIgbJVLQRMmipLyeqy+Hqqd9IK5VtglZKW/tqUJ1KMth2m7b72y8lqReMAreRTV2+KyL+CjhRSumo8yG/dHtYKWUZmI6Ih8g/sgZDzdgDfAtwY9WGcskW29LuqFZo6kCjvQ6nrrcZoFWLM7jm8cG2x0aA/5nWas9I22uM0WpDO972WpLUzwZorYYvk9+LYxHxMNmOuyPOhQyG+sOfkCkYNzc9kD5Vz4wsAr9F9uTviC8AqQ/UgcwI2Wig/sM8UT3+9dXtA9XlWPXYXuzKJknb5WbgMHA78AbgJLkHY+OsGeoDVRHvvwd+FLir2dH0rdXqWAFOAP8D+H1yB+eOzKGVOklE1PU2o2TtTZ2Cthf4ZjKIGa8eG2u73W7PFa5f6zFJ0vZYJhss/BrwYCnlkYbHYzDULyLiOPA84FeaHouYIjvLnQE+Q7bcvkjOkiwZHKlXRUTdFrq93qa9XXTdQW2Y7JoGrc5qdVpa3Wq6fqx+/lDba7WnuEmSOscqsESe85wBPge8F5hpqsmUwVCfiIgxcmOs95MnHaZIdoYzZIOLU8BHyaYXC2RK3QKwanCkTlGtMsPlLaIH1twebLvOmueNkCm7dToawNeRwVGdwjZKq0lB/XN2V5Ok3lNvO/I28nzoUnXf4m6e+xgM9ZGImAB+GXg5mR+vzvMQuVHZp4CPAAtVIwypcVV3tWFa3dTGyCBmL9lRbRw4SKuhAGTwUwc4kiSt5yTZhvtdwKO72XHOYKiPVCcyR8k8zVtx76FOtEBrZWgOOEsuIX8SOE8uI3f8bs7qXBFRp5LVnc/a20W3b+xJ9ZzRtvsHeeLmoe2totvbQ6+3iiRJ0nrqjJhZ4EHgY2RN0Y5vWG+qVH9ZIU+oT5IzuTc2Oxyto66NqO0lZ9qfTNYa/XNELJDpdMvkl8dsdSyQS8uuJPW4amKjDjrWtoWuPz/rPbb2+tfRCozqmp32z2D983WNj38zJEk7of5bVHfyHAcORsSDZPrczE6tFrky1Ici4tXAy4Afanosui6rwKPkytEU2YThJPllMQlcVoBozVF3aavLuZr2wKVuA13X4Ty5es4QrRS2+rG92z1eSZJ2yDLw34C/Is9zJnfinMZgqE9FxD3AfwaOY/pKL1klV43OkYHRNPAVWqtHU/X1UspUU4Psd9VGoCO00s/GyNqaOlXtm6qn1u2h66Cm7sQmSVI/uQT8GdlsYaqUsrRdL2zKQ/+aIgv0b8ZgqJfsIU+Wj5D7rSyRqXTLtNLqloGliFgkV5EWgX+prte367zdWarOLtj2+zJtqWr1pp7tdTiQ3691oNPeLrpOVavT2Orr7e2hB6vXaG8R3X6/JEn9ZAy4m5wYPBMRfwd8mG04N3FlqE9FxD6yZuj3yA+Y+3H0p7rWaJ4MemZpBUX/SAbNM7SaOtRfOMtkDVr77drSVR5b+3Mr7ED78CrVbO0mmmsL+gfabtePtSrFBvIAACAASURBVAcb7b8Ta5sC1IHQEK1OaaNkUPSktueM0eq8Vqe0jWBQI0nS9TpDbmD/TjITZnYr9UQGQ30uIv6ETJU73PRY1FXqdLv6y2eaVpBzCfintsem2h6brH6uDpBmyaYP27bcDY9v7tkecNQrM5ABSh2kwOVtn59EKwg6QKtzWp2mVr/mvu0cryRJ2pS6LOCtwL2llNPX+0IGQ30uIm4HXg+8oumxqKvUwU37Cg/V7RWeuPrT/nNrb7evCs3RSvXbirWpn+0rQ3WAs2edx9a2hF77/LWPSZKkZqyQ2SsXyD0a/w9ylWhTXXX9g66zwCkyZe5ow2NR99ip745FMuAwbVOSJF3NAJmpUdfufhl4LCLOllLOb/RFLJzvc6WUGeDT5KaeUtPqJgKSJEkbMUpO6r8B+EHgeEQMRcTARrarME1OdX3FceCvmx6LJEmStAWLwL3AO4CT19pKxJUhQRazTwJ/QBa0S5IkSd1oELgF+HngdRHx4mp/v3VZMyRKKSsRMQt8iFwhGsXPhiRJkrrPALnX4gjZGXYcuBARl0opc2ufbJqcgMf3ZRkF/gS4FXe5lyRJUm/4f4A/LqU8sPYBgyE9rgqIXgG8EnhNw8ORJEmStsMC8CjwIPCr5B6HK2DNkNqUUlaBk2R3uasWm0mSJEldYgQ4BtwF/Dtgf11HZF2ILlNKORcRp4EzZO92SZIkqdvtJctARsjz3HlgzjQ5PUFE7CM3YP1Y02ORJEmSttmfAu8ppfyRK0NazxxwGjgBHAYmmh2OJEmStG1uB2Yj4jFrhvQEpZQlcr+he8n9hyRJkqResR+4EbjTYEjrqpopvBM42/RYJEmSpG12FPhxgyFdzQVyI9YPNjwOSZIkaTsNA/sNhnRFVf/1k8D9ZH/21WZHJEmSJG2LQWDUBgq6ljNkC8JLZDOFwWaHI0mSJG3ZHmDIlSFdVdVM4TzwW2RTBUmSJKnbLQEzBkPaiBng3eTq0GLDY5EkSZK2ymBIG1NKWS6lXAQeIZsqSJIkSd1sHjhrMKTN+HPg0aYHIUmSJG3RNPAJGyhoMz4CjJObVN3c8FgkSZKk6zELPAz8V1eGtGFVq+2zwAeaHoskSZJ0nR4BPltKWTEY0mZdAD5K5lmuNDsUSZIkacNWyWZgJ8jtYzAY0qaUUqbJaPoBMtdSkiRJ6gZLwGngQ1R18AZDuh4rwK+RKXOSJElSp1skz13fXF0uAdhAQRsWERPAaNuxCiwDg02OS5IkSbqKRXIl6IHqcr6UsgoGQ9qcg8Dh6ngyGRAtkB3mJEmSpE40T6bG/UFV8vE4gyFdUUT8b8D3kq20jzU8HEmSJGkzloA54PnApVLK3NonGAxpXRGxB/hGYD+wr+HhSJIkSZsxRabEvQ+YJFPlnsBgSFfzNWAIGGt6IJIkSdIGrAAzZPvsjwJ/VEpZuNKTDYa0rlLKakS8G3g6cLzp8UiSJEkbsAj8KfDrpZRrdj42GNLVXCSXGOdwdUiSJEmd7SHgr4DfJleHrslgSFdUSlmOiK+QQZHBkCRJkjrNMjlxfx/wCeBEKWVyoz9sMKRruQCcAW5qeBySJElSuxUyEDoL/ApwYb2OcVdjMKRreYRcFXp10wORJEmS2nwYeH8p5Tev9wUMhnQtU8B5MuoeBfY0OxxJkiT1sSVgFvhN4FPkqtB1MxjSVZVSFiJiiqwbOkq22pYkSZJ22xRwiSzh+BPgYillfisvaDCkjZgHHgQOYDAkSZKkZnwE+HPgI1sNgmoGQ3qCiBgkg547gZuBp5F7DY00OS5JkiT1nXlyJehdwJ+RKXKL2/XiBkN9LiKGgAlgHNhXXZ8Avgk4Ahys7t+LnxdJkiTtjlXgHPAw8DfkHkJTpZTl7XwTT277SETsIf/N62MPGfgcrY6nAcfIAOhAQ8OUJElS/1oh9w5aBE4Av0PuHbRtq0HtDIb6RLUCNEoGPXcB30mu/BzHDnGSJEnqDGfI2qD3lFIe3uk3MxjqMdXqzzC54nOAXOn5dmB/dd9I2+UIBkKSJElq1iLZJe6DwP3kti5Tu/HGBkNdLCLqdLdhsqanDnDqGp8nk8HQkeq+sWZGKkmSJK3rNBkInQbeDzyyUylx6zEY6m6DZOODQ8BLyBS4w8BNDY5JkiRJ2ohV4J3kFi6nSykLuz0Ag6EuEhE3kYHPIeBF1eU4meo2VF36bypJkqRO9gHgo2Rt0CWyYcJqEwPxxLkDRURd13OgOvYCT6KV6jZOrgKN4yaokiRJ6mwLZB3QeTId7tPAWeBiKWWpyYEZDDWs6vLWXvszQAY9h4Cnkylvx8j0N0mSJKkbrNJqkX2e3C/o48CHgYVSSiMrQWsZDDXvOBnoPBV4AXADGRRJkiRJ3WoOeAz4EPBfSykrDY9nXQZDuyQi9pHtrY+Qqz7fVl0fI1PdRjDtTZIkSd1rBrhIrv78TXV9hobqgTbCYGibVfv8jJMbnI5Ul/vJup9vJgOhg2Qt0KFGBilJkiRt3TIwTzZBmKouvwg8AJwqpcw3N7SNMRjafgNkjU+92ekx4B6yDbYkSZLUKxaBM+T+QH8BTJZS5pod0uYYDG1BRNT7+hwFvoes9zlKtrhuP/z/LEmSpG43Q3aDO0nWAp0GZoEVYKVTmiJshifpGxARA2Rtz1Ey3W0CeDKZ6jZBpsXV9480NExJkiRpO82TdT8XyY5wnwOmyZS488Bs062xt8pgaI0q8BmqjmEyvW2YrPt5Jq2anxvIeiDT3zZmtTr8zEmSJHWWZXJ1Z6k6lqtjilwF+izwCFkHtNzUIHeCJ6ZPtJ+s87mZDH4OV/eNNzmoHrBI/nJNND0QSZIkXWaSyzdEPU9uiHq+0VHtgr4NhiJimAxw2psdHCbT3UbajiFc/dmoJXI59Sz5SzQJfIn8xVoi66cOAs8mN5O9AYNMSZKk3bBI7v1znjxXmwS+Ut2eAxaq59QT2D21AnQlfREMRcQgWfMzRp587yNXKCbI/X4OkfU/B8gAaE8jA+0ui+QvzTz5C3SJLKCbJQOgSTKndBo4X0pZqdqOn69+5nPAU8ig6AAZhI7t8n+DJElSN6vT2ZbI5gZ1ENMe0NTtr5fIc7cv09r/Z5o8Z1vu1E1Rd1qUUpoew46LiDFy9ecG4OnAXeQKxWiDw+pmq+QvzzkyuPkM8BHgUilldjMvFBGvAp4P3EH++0iSJGljZslJ6VmypmcG+CpZ6zNNNWldSjnX2Ag7XE8FQxExRK4u3AU8FThSHcdprfa46rM58+Qv02ngL8ll1bqjCABbbaNYrRgNkgHqq4FnkP9m+7byupIkSV1ohsy4uVBd/hMZ8MyQqzh1Vs6F9X64G9tbN6lrg6G2mp99ZMBzEHgSmW61nwyKRmmlxhkEXd0quXR6htZswpfIX7x6xuFSdX1hu3cUrgKiEbJuq05jfDa5WlTfJ0mS1I0u0qrHqYOZ+vYcuZqzQCvlbaHtWGq7f7G+XkpZ2N3/hN7UFcFQW7vr4eoYIYOefWQQ9HQyDW4/divbiPa2ie3FcvUS6xfJwOc02T9+sYlBRsQLgFuB7yL3eBol/+3rz4EkSdJuWrnKsbzm9mrbcZpWrfVXycnm+eq+usZ6rqlzrn7WLcHQGHAj2e766WQK1c2NDqq71d3ezgGfAE4BF7Z7tWe7VOmPB4C7ge8h//2PNzooSZLUj6ZpZczUQcwsmco2SauGp86sWTTA6WwdFwxFxDFand3aV3zqlaH2S13dPK0Vnotk2tuj5C9qvTr0eLeRTs0xrVLoBmitCo0At5ErRjeQgZGpkJIk6VpWaAUz9epNHbjM0wps5ttu16lqi20/s3ZVaJVcGVpdc99qp55fKTUWDFXtrofJepD22p5vJ1PgJqrHDmDL5Y2ol1vrhgfT1X1f4fL2iefJPNOu/cWsgqND1XGQ1h5RB6rbB5samyRJ2hWrtCZ262Oh7bG1++W0314AvkYGLNBKV6vreeo21Itt15dLKX2x706/2bVgqDqBrWfuB8gAaC/wYlons8fIIKgv9j/agvYc1Pr2KTLQuQD8LbkCNNkvS7MRcRy4E3gO8ALys9Z+SJKkzrW6yesr5ERvvapT73kIGfz8Q/VYnbY2Bcx0akmAmrMrwdA6+/zcTc7iu8/P5k2RAc8jwMfJ7m8XgPluXu3ZLlXQPUqmzt0GfD9ZX2aALUlSZ6lXXuDyWpu69uar1fX2gGeWrMNZ2vXRqidtezBUdX47TNb51ClMR8gUuNHqci+ZIje4rW/ee85Xx6Xq+CKtVoz1bMg82erapdtKlYI5Tq4yHiA70X0r+bm8i6w5MjiSJOn6rdJKL6tTzKguF8jzFWilm80C/9J2u66/qc9fltuOx9tHc3kH3PpYcQJY22VLwVA1Cz9EnlxOVNdHyc5v30bWdNxAnoyaqrS+9l/29n7yi2TXt8/RSn8760zI5kXEPlppmC8iW7KP0apTG8TPpySpP9QF/sttt+uW0HWAscTl7aLX/lx9vV6tqc9fIGtx6sYD0AqOZmgFTQvk6o4BjRq31WBohFwBOk6mI9Wbn7rXz8bVaW/ngU+TtT/nSinnmhxUL4uIG4GbgGcALycDIvctkiT1g2UyUJmiFQBNkcFKvbrzFVppa5PVfUuYpqYetKlgqDqJPEiu+Dy/uqxn1uvUI2fZ11cvGZ8l63y+RHZ5O0FrRqZeBl4x7W3nVGl0g7RWNes9rJ5DBvZ2L5QkdZplWvU17W2fZ2it3kwC/x+toKZejZknz0EeP8/g8kZMV7tdd1yj/barOuoV6wZDVd1Pe+3PRHV8e9v1G2ilxqmlbudYz6jMkpub1oWAU7RmYGZLKReaGaZqEbGfrC06BnwHrRbdx8i0T1eNJElbVafB1we06mPqFLOVttvt9TN1etq/VM9bm15fByxzXP76dW3Ocv28Ukp7cCP1vcuCoSoIGqa1seVdwPeSJ4VHyeDHVZ+W9hmUOod2mdzP5xyZ/vYF4CPAdCllbp3XUAepUj+PArcDLyNXPyfIlaR6ksDfAUnqH2tbO69e4b4rPbe+Pk1rY8+Z6v46a+Qr1e0lWilsdXOCOi3NIEbaAY8HQxExStZRvLG6dOPKa6v71p8F3k8GQBdd7ekdEbGX/F24C/g+MlDyd0OS+kMdxEAr62OquqxT1v6xuj1La5+beg+cOTKQ6Ys9/6RuFKUUIuKFwLPJfVmOYmrQWivk7MyjZD7uFNnmup7lWajuX8QvvZ5S1RcNk6tDe8lOdPvIFdM6MNrf2AAlSVczz+VpaO1tn2dprd7MVvd/jdbeN3WaWp1yttp2u667gctbPi/RWg2yDbTUBQYi4jDwLOCFZCF5v6vbPi7SWs6ul6n/lpz1mSK7v83aTaW3VY0slsnPwrmIGCabhkyR6aPfRnZRnCAbL4ziZsKStN3q4OOyvWa4fP+Z+nZd/L9C6294PUlZBzx1MFQ/t17pqYOleWDZZkZS7xsAXgHcjYFQ7SKtzU4/ATxGpr4tXPWn1BeqVb9FqlSIiBgiGy48D/geshvdzY0NUJJ6U/tqTp2mNkvW2kyveWyB3Izcv9uSrinIFoxDZIF4P6lzex8lU97OA4+QX6jtM1ArwKpL3LqSqvFIe7vuw2RQ9DQy9fQGcuJBkvrd2pbQ7UHMV9c81r5B5+omD1s/S9qQIJeLh+jtk7X2WaQpMgj6R/LL9hKXFz4u+wWq6xURe8h0uf3VcZBs172frDU6RqbZ2ZJeUrdbodVcoK6XqVPN6qO9nfRX257X/lh9fXHN7WVMVZO0wwL4e7LeoRfqHOrc3/rLdqU6TpHpb18ETpOrQTPW+2g3RES9h9GNwHPJGqMxMiAaxnbdkprTPvm30nbZvsqy9nb9M4tkN1VoBUKTwD+TKz4z1TEPzJdSLu7Yf4UkXacAfp2sGbqh4bFsh0lyb59HgY+RX9IX3d9HnaRtL6O7ge8n0+r2NTooSf2q3rQTLk9bq7Mm6s3C68fqIGfJCUVJvWAAeDs5u7NK9zRRWCX39DlNBj9fBs7QWnKfp9Xy2i9rdZol8vM7CzxIrhLtJdvb30w2ZDA4krQTpqrjIvBX5CRiPWHYXi+7xPrd29o3GZekrjdQSjkTEffT2iDsJjJlrlNqiOqZqPYAZ54Mgj5PfqFPAufcnVndoPqc1kXEF6q9jMaq218EnkwGQ4er++uW3ZK0VXvIv++DwAiZqjtHtV0EueLj31JJfSNKKXklYpQMhN5G1jd0ysnXo2TNz2eAk2TQc6HREUk7qG2j1x8j23XfRG+ksUrqPFNkSvk7qDYWtyW1pH7yeDAEj7cIHiLrGY6TJ2Lj5Mz0BJnKM0rOJm2neXJV6gy5r88XyZWfT7JOAafd3tQPqqConsEdBW4lmy88BbiF7FQ33tgAJfWC+m9snfp2GngX8JvVvmqS1NMuC4YevzNinAx89pPBUX2M0NpLZQj4V7Q6Yo2uuV4/F1pL8fXtaVpdZk6RBZp1e+t687S5Usrkdv7HSt2oatc9SP4+1mlz+8jf0W8ig6IDtNp5b/dkhaT+MUv+Xf5j4ARwykYJknrZusHQNX8oT85GaAU5o7RWjerr30Qr+JkgT+CGq9vnyFqfLwH3ArMuy0ubExFD5O9WnUb3VDLFdR+tTWCHyUmKPdi+W9LGPQS8D/gLsp5oxawMSb3ouoIhSZ2pmqg4TKbTHQOeQ3aoG8cVI0mbM0mmrv88WUtk2pyknmMwJPWYasWoTlmtV2Tr1NfDwDeQK7hj1Y+MtN0eo7XqK6m/LZNp6/cCby2lnGp4PJK07QyGpD5QbfQ6StYWjdJKb6W6Xt/+elqpdaO00u3qAKu+Ttv1Oh2vbvggqXeskBuwvgF4sJQy3fB4JGlbeeIi9YGqJm+BTHvZkIg4QmvFaG91fCOtDnbj1TFB1inVNYOSescAcAh4Ovn9YTAkqacYDElaVynlHDxeh3Qlax+ra5bqjWInqvtHycDpW6r76pb9+9mZdv2SttdPAfsi4nQpZa7pwUjSdjEYknRV1+gg9YTHImKSbM+7NqWu3vG+PeVuhCem4v1rLq93ak/pW1sLVbf8v17za24vkGlBtUWybqJ+7trH2lsO12M5RAZ8w0i9Y4Rs439HRHy4lLJyrR+QpG5gMCRpW5VS5nlikHFV1erTMK3mDSNc3q6/Ts0bJuua2jeAHqPVOrzekwlamzXX11fbrtdm19yeoxX8QAZHdQetr7Y9NtB2/eu5vAlFvZWA1EuGyJXcZwIfaXgskrRtbKAgqetFRHtTiL3V3ctksAMZ0NRBzcJWZ7UjYgy4kWxb/nzgLqyXUu+bJfccerZttiX1CoMhSV2vWlnaQ67Y1Cve7StD9W02Gwi1rVrdRO7d9DTgblope/UKlZvaqtetkJMMTyE3S1++xvMlqeOZJiep61V1TWuDn+tSBT8DZH1E3UXvCPBt1X0HycBI6jf1ZMMh8ndtptHRSNI2MBiSJC5bXaobO9wKfDdwC3Bng0OTOs0NZH2dwZCkrmcwJKmvRcQQ2aDhTuC5wPHqkLS+7yVrh840PRBJ2iqDIUl9pQp+9pINEI4D31zd3lcd41f+aUnk7839TQ9CkraDwZCknlYFP3Xb7vHqOEjObt9Btgs2AJI27jCwNyKGSilL13y2JHUwgyFJvW4fWeNwHHgZ2QzBfYCk6zcOPIlcUb3Y8FgkaUsMhiT1jKoJwgGy29sN5OrPjeSq0GDbpaStOQrchsGQpC5nMCSpa0XEABngHKJV9/OdZEB0gEzn2YffddJ2a9/gWJK6licIkrpKtfozSH5/DZNBz53A04GbcQ8gaTeMYLqppB5gMCSpa0REPRv9clopcMcaHZTUnw4AT2t6EJK0VQZDkjpWFfzsI7u+fRcZCI2THeDGyFQdSbvPlSFJPcFgSFLHiIgRMsAZIwOfCXIG+jlkCtwEmRonqXl7mh6AJG2VwZCkTnKYTH17BvAKMigy+JE6zwIw2/QgJGmrDIYkNSYijpPBz3cBd9Na+RnEIKgbLALnyH+3UTJ1ajNmgPnqmCZPrutNPH8I26B3MoMhST3BYEjSrqjaYO8HDlaXB4CnVtf3k5uhDmPqTSebByaB02TwMg18Gfh2clPb27h6QLQAXGr72QvA18gAaAFYJdMjn74jo9d2WgTmmh6EJG2VwZCkHVG1wB4Ahmit9NxCdoG7iTx5nsDgp1OtAsvVsQSskIHMKeDPgTPApVLKQkTcCPwzraB2gMv/XevXugicAD4LnK1eY7l6zmD186NkuqSfi862AHy16UFI0lYZDEnaKaNkCtxLyCDoRtyksZvMACeBR4C/BB4rpcxf4bkXgHcDnwR+ldwEd6Lt8Wky+HkTGRDNllIW6gcjYhC4FfhxcnXpyDb+d2hnXCJXCCWpqxkMSdoWEXEAOFodT6WVDjdBNkLYbD2Jds8KcJ5c9TkHfJ4MWubI1LgZMi3qSpaAqeq5vwE8m1z5u6F6/CzwfvLkebF6PwAiYi8Z/LyJ3DPKgLnzzQGfIVf5JKmrGQxJui4RMU7u+bOXXAU6RAZBR8mT230YAHWqJbL4fZIMYObIIOizZFB0Dpgupaxu5MVKKSvASkQsAQ+RaXGLZOrbGBlYnSylXFZwX32GjgG306o38u9S57tApkjOND0QSdoq/+hIul5HyNSm55M1QOO4CWq3mCfT395HrgadvUoK3IZVwdOZiJglA6plcn+oL5An0GsdIT8/L8UNPLvJCTKQlqSuF6WUpscgqYNVjRBGyMDnZuC7gXvIAveBtsOC9840Q6apPQb8bXV5iQyIloHVamVn21SfmXpVaIJcJZotpcxVjw+QDTV+Afg+8rPl5Fz3+F7gvCtDknqBf3wkXaY6UR0g090O0mqBfYBMiduHs/id7BIZAE2TqzNfIOt56mMaWCilLF/xFbaolLIaEctk+l3dia79/YbIerLvri79W9QdFsn0yktkNzlJ6nr+AZL6XDWLv4ecqR8mV4HGgDuAp5Fd4G5tbIC6mro2Z4lWC+yTZI3OF8jubqdLKUtXfIUdUqXMLdHaRBV4/PM2TNaY2TChu8yTTTDmmvhMSdJOMBiSNEjW+9wJPJfsAna80RFpo+aBB8n0t1Nkk4LzzQ7pmobIFccXkatCw80OR5twAXgnl6/ySVJXMxiS+kxEDJGz8UeA55DpcIfI5ge2wO5cdYvrSeA+4ItkutIkmbK0SHekLo2QqZY34N+gbjJPpl3eR65ISlJP8A+R1OOqDS3rFtgHyIL2fcC3kpuhHsJUpU5Ut7+uazQukfU+/0Smv10CZrowXWkPuTo0yvpNN5bJE2/IwGlol8alq5sELpZSppseiCRtJ4MhqfcNkbPwdwAvIVeCbIHd+ebJ1LdHgL8EHtuO9tddYJFWG+4DZOCu5p0h69AkqafYWlvqIVVx+mFyxefpZAB0E63Z9bpZgjrLMhn41PU/j5Kbn9Ytr1c3ugFqN4iI/cBdwMvImqEVcuXhc2QgdI5crfwZ4DWNDFK1VXJF8ieBB0op3ZCKKUkb5sqQ1MWqFLhRsivXwep4GnkiOUGrQN0AqHMskqs+0+SeP5PAP9Cq/5mmO9PfNmOO3LizDvCWyXqnqeqx+epyqrrfOrbmLADvJYPUXv5MSupTBkNSF2nbzHKUDHLGyADoe8lUuGPVoc6xQp5ELpIn+DPkSf5F4H5yFeRiP824l1IWgXMRsUj+/1msHlpq3wA2Ir5A/v+5efdHKfJzOw38OTC53ZvzSlInMBiSussouerzUjIAuhGDn043R6v25/3kvj+zzQ6pM5RSJq/xlL8g//+9axeGoye6ADxUSvlw0wORpJ1iMCR1sIgYJwvIjwPPIOuBDtBqgW2nrc6yShaan6ouP02uANWtr+cw1WgzJskg8kGy9m2s2eH0lQ+QK0IfaXogkrSTDIakDhIRI2StzwEy8BkHnkR2gLuBXBUab2yAWmuZquUwrTbYXyCbH1ysLmd6qfnBbiqlLEfENPAe8vdimEwT1c6ZIwP59wEnSikXGx6PJO0ogyGpYVUdEGSTgwmyPuL5wCto1Qapc6y2Xc4DJ6laXwNnSilzTQ2sR80Dvws8l2wIYjC0M+rP9SXgT4B3V7VdktTTbK0tNSgibiPbYH8P8AJy1ceTvc40C5wl07Y+Ts6an292SP0jIu4GXgn8bNNj6UHLwIeBd5Kf62vVcklSz3BlSNolETFApr4dBQ4B3w4cIQOgCXIVyN/JznGBTHWrjy9Qtb2ujunGRtafzpANKOaA/4S/K9thgVzRrJt7nCP//0pS3/CPibRDquBnmAx2Rsji75vIzVCPkp3gxnAPoE6wSp4ELlbHApn+9nnyBPEccM60oeaUUiarVtxTwD1kXd04/h27HstkQH8a+GtyM9UHmx2SJDXDNDlph1Sd4G4AXkZ2g7uRbICgzrMI3Et2gfsMOVN+3sYHnSkibgdeC7yQXFXV5lwC/gz4L+T+QXY4lNS3DIakbRIR+8j0t7uB7yY3Q91LqwX2IM5id4J58mTwJPB35KrPBTLtbYmcNV8qpSw3NUBdXUQMky3njwI/Qq4U2WXx6laBB8h22SfIToezwIpBv6R+5omZdJ0iYj85Kz1BBkH7gW8hV4AOkSdndoJr3gyZAjdHBj6XgK+QAdAlMu1qxtnx7lFKWYyIS2Q64xD5b3iEnIA4ihMPkMHPEvn5v0R+3j8KPApcKKXMNzc0SeocrgxJG1TVAA2QNT4DwK1k4PNU4Hm0VoHUrBXyRLC+fIw8ETwPfAjbX/eciDhAtqR/NvBSshZvmNbv6h6eWJvXRK3e6prL9R5b7/bVxrq65np9u70u6BNkXdCJjQ9VkvqDwZC0QRFxDxkAfQ/ZDnuMnJVW51gB/oLsPPZZ4GFyFnyl0VFpV0XEXnKl9hjZsOQIrdVbyJWj3U6rWyVTMWfJGrXaArlqeWnN879c/cwAueK8nmXgH6rri9VrXyJTZzQKdAAADTBJREFUQWdLKWtfU5K0Rr+nEUhPUK0ADZIzzUeAp5CNEPaRJ1Bj1eF+QM2qT/5OkSs/XyZPBM+RJ5jz5My49RD9Z54MFGbJlZERcqWonrzYQ+v3d4Rsaz9a3f5X1fXNdHqcJz9zX6tuL5IpanV3wvozWNektX8mV6r71nYqXKqet4crT7rUqXD19fp16teUJF2DK0PqexFRnxiN0drzZ4JcATpKqw22mrVAK8iZIwOdSeDTZAB0EbhUSllobITqOhFRt70fq+4aJIOhcTYeDM3R+nxSXdaB0KINCiSpcxkMqe9FxBAZ/NwBPJ9sg31zo4PSek6Tq0B/A3wSOFtKceNTSZJ03UyTU9+p2vLuJ1PfXlRdHiZnhOsW2GrefWT763rfnznaWl+TqUCSJEnXzWBIPa9a+Rknu70dJQOfbyFrgNprgdSMZTKtqE51q4vMP0emwU1W9y+bbiRJkraTwZB6TlsNUH2Mk40QjgHfR3aCM/hpzgqtAu8lsgZomtwQ8uNk6+vzjY1OkiT1DYMh9ZQqEBoFXgA8g6wDuhk/653kAln783GyDfak+/5IkqQmeIKorhYRg2Tzg5vJFLinVJcTtNpgN7G5onL1Z54Mfs5Vx9+RXeDmqmOaVmtgSZKkXWUwpK5S7QE0RKvOZ4LcTPG7yFS4w9Vt7b469W2KrPmZqa7/PXC+Oh4ja39sfiBJkhpnMKRuM0IGQi8m0+BuJFeC1Lx6k8u/IFPgTpVSTjU7JEmSpCszGFJHi4gJ4CBwO/AccvXnINkYYQA/w026SKa+fQx4ELhErgYtk6tEdn6TJEkdzRPJq6hOxCFrTobJVYlhMk2r3q18Bni0lGLdwzaIiDEy9W0/cBPZAns/GQAdIlPjRpsaX59aBRbJlLcpWkHQP5I1PxfJuqCFUspiQ2OUJEnatJ4NhqquYnto/TfW19vvg9bqwtrnQ56AQ65C1Cfpo8A3kKlakHUQCxFxDlhyH5TNqWqA6gBzGDhA1v18J/BCMhCyDfbuWqXV9rreA2gaOEvu/fMY8BD5eV9uapCSJElbFaWUpsewIyJihDyJrgOaserYB3wzGeBQPV4/tpcMeDYTJNZ1Eq8k90eZ3fLg+0hEHAbuAp5NtsMep/Vvo2bMkCs9J4C/AU6WUk42OiJJkqQd0FPBUETsJTfWfAutFZ+h6uH6dr0RZ91ueXDNYwNsrhXzKlkf8RBwP3BfKeXhLf2H9KiqDfYxMv3tqdX1euVntLrc7P9/bd0FcoXzLNn6+hIwSbbFXiDT3xYaG50kSdIO6bU0uTq9Z5nWXjM7vcqwp3qPW6rLr4+IZeBsKWV+h9+7o1XBzxiZ+la3wf5OMgg6XB1jV3wB7YQlMuVtjgx2pshg6Eu0AqLpfv/sSpKk/tBTK0Pw+An4rcCbq8vdPtleAP5f4B2llNO7/N4dJSLGgRuAl5HB4o1kQKRmrJKB0EP8/+3dX2jdZx3H8fdTSglhhFBKGaWMOrohVTad25hDp/hndIrinXohCP65Ea+8FBGvhteCXg2U4XQXOoRtik4dY2yzlnVqiV1ss9JlMYYYQgghhJDHi8+TJpNs/ZOc80ty3i84nDQlOU+bXpxvv9/v54Exsv/zHOn8GAAiSZIGzr4rhuBqeMJtZAH/e2QXqJ+jV6vABXLfyqPAwiAEK5RSjpOO3OeAB9hIfzuw6aH+WSCpb68B59rzWVIUrQFrg/DvUpIk6Z3sy2IIrgYo3Al8CvgGKYj6Gck8T96IvgA8BkzVWuf7+Po913a0jpG7f06RGOyjZPztGIkiH3rHb6CdNkv2fS6TuOs32/NM+72ZWutMZ6eTJEnaZfbbztBVtdbFUsoF8ibwfcA95E17v96cj5KggBPAv4CzpZQ9vUdUShkhe1FDpLA82R73AR8hXaDhzg44WFbJ3T/L7bFIiqALJAThPDBp8SNJkvTO9m1naLN2kec3ga+QvZUuPAH8vNb6bEevv22llM+Q8IM7gC+Qgs/OTzemSfT1eeAfpAM55+6PJEnS9RuUYuggWdw/BXwf+AD9HZmD3EV0GfgF8Mta62SfX/+GlVIeJn9nd5DRtxNsXJC6eRdIvbVMkt7OAG+Q2OuzpBu0TDpEi8CqO0CSJEnXb9+OyW1Wa10Fpkspy8CTJHr7FNlr6ZfDpIj4LLBUSnkVGNsNY3OtWBwiF9JujsG+jxRAx9nYAbL46b1FMt45QYroORJ9PUY6QrO11ovdHU+SJGl/GIhiaF0LMPhxi9+GvPnv55v7YeDj7XV/B/yklLLY5f/mt+S9Q6T4uR/4NNmvuqurMw2ozf8GZkny25OkAJrw0lNJkqSdNxBjclsppbwfOA38kG66Hcskce7L5ILWqX69cEvau40UPF9sz7f36/X1NjNsRF7/Fvj7bugWSpIkDYJBLoZGyfjXt4CHyNhcP62Scb0XgD8CL9VaX+rFC5VShtkYgbuLpOsdJeNwJ0hX6JZevLbeZpVEX4+T/bE3SPT1LBux2PO11pWuDihJkjRIBmpMbrM2MjdfSvkV6QwN0d/uyMH2OE3G54ZLKXPkzfHydkbn2g7QLe37jpAi6AQJQniQJOqNbufwuqZVNuKv59gIObhALkAdJyNwU4YeSJIkdWNgO0OblVJOku7QYx0eYwF4nqTdjddal27mm7QdoBHgXpKa91FScB16t6/TjpsnYQfjwFMkAntP3zMlSZK031gMAS1Q4QjwCeA75CLRfo+NrZHOwUXgaeCxWuuVa31R6wINk4LnbnIP0CnS6Rpiozuk3poj6W/nydjjRTL6tkIK3WVgxS6QJEnS7jGwY3Kb1VpXSimzwEtknOxjZJxsuI/HWO/ovJe8cT5QSnkcmN7cTSilrBc4t5M9oKPt+YMkFGE9Blu9NUPu+1l/ngLeIns/58nP7aa6e5IkSeoPi6GmLa1PlFJ+Sjo0J0lx0e+kuWFSiD0AXAJeafcjQX5eo6TYeRj4MCmeTvb5jINmrT1WNz1fIAlw50gRfaXdZyVJkqQ9wjG5LZRSRkjB8WdSfAx1eJznSPTyf4BHgDtJ90f9sUC6P2O06GtyWe58p6eSJEnStlkMbaHtEA0BXyL38NxPd9HT02QZf5kUaOspceqN9dG3aeBlMvY2TYqi9Z/FgvHXkiRJe59jcltob3RXSilPk7t4DpDRtS4S2W5tD/XGLIm9Xo/AHicF0b9Jut9UrXWus9NJkiSpZ+wMXUO7sPRB4HGSOGcBub88SwqgfwJ/AiZrrcvv/iWSJEnaDyyGrqHd2zNMwhQeJzs7XY3M6eYtkS7Q88DrJAZ7jIzErbTHMrBm/LUkSdJgsBi6Dq0gOgR8HfgkSXpzdG13myPFzyQZe5smo2/jpACaIfHXdoEkSZIGlCNf16F1CpZb7PY8SZg7QnaJ+h29ra2tkMjr1fbxBIm//gtJgJuotU51dzxJkiTtNnaGblC79PQI8BS532e02xOpeY50fV4ne0DTtdbFbo8kSZKk3cxi6Aa1kbkh4CHgayRc4Vinhxosy+RS3FfI+NubwEXgCom/XqTtAXkJqiRJkt6NY3I3qI3MLZVSXgRuJ4XRYbq9mHU/WyIFziwpdmZJsfMyKYamSDG0ZPCBJEmSboTF0E2qtS6WUn5NdojuBY7i/lAvzJDxtz+Q3Z+LtdaJbo8kSZKk/cAxuW1oI3NHgXuAn5FdIm3PK8BrwDly788iGY27GpBgB0iSJEk7wc7QNtRa10op86Rj8XvgfhKqoGtbJUXOGBvx12+1j6fbryfJ7o/FjyRJknacxdA2tXtqJkspz5C7iG7FS1m3sh57vcRGCMI8KSL/BozVWse6O54kSZIGjcXQDqm1PlFKmSNv8r/a8XF2o2kSdPAM8CJwudY63e2RJEmSNMgshnbWGdLteBA4Dgx3e5xOrJG/g0ngMhkhPAfMsZEGN0+6Q5IkSVJnDFDYYaWUEeC7wOdJ9Pahbk/Uc2sk3GCKFDyzpAha3/8ZB86T6Gvv/ZEkSdKuYWdo5y0Cj5JC6Fb2fzG0Sjo9zwN/BV6ttZ7p9ESSJEnSdbAz1COllBPAaeAHJHJ7v9xBNEM6P78BXiV7QFOkKFoD1kx/kyRJ0l5gMdQjpZRbSHfoIeDbpEs00umhbtwCGX2bJuNul8gY3CwpgmaA+VrrYmcnlCRJkm6SxVAPlVIOkhCFHwF3ASdI7PYBdl+naI2Ny02XSQT2FbL3MwG8TC5DnW9x4pIkSdKeZjHUBy1U4TTwSHs+zO7bJVoiF6CeJ/f+nK21vtjtkSRJkqTesRjqg9YhGgFG2+MB4EMkgvtOuukSzQAXSPHzOun+XCZF0RKw6PibJEmS9jPT5PqgRUrPtQellCUyfnYJeA8wRMbpRknYwtCmz0GKpfXPrRdOS1u81CoZc/v/Xy/y9vG3WRJ6cIns/lwBpmutc9v+w0qSJEl7hJ2hXaCUcgQ4BpwC7iZhC4fb5yAjdUdJoXSQ7PfMbPGtFtpj3TIpwCbb839JGMIZUvxsVVBJkiRJA+F/lz26JU9z/C8AAAAASUVORK5CYII=;rotation=5;" parent="1" vertex="1">
          <mxGeometry x="273" y="157" width="120" height="48" as="geometry" />
        </mxCell>
        <mxCell id="qRgVFrvN4o-EPye_5gww-19" value="" style="shape=image;html=1;verticalAlign=top;verticalLabelPosition=bottom;labelBackgroundColor=#ffffff;imageAspect=0;aspect=fixed;image=https://cdn2.iconfinder.com/data/icons/web-development-and-studio/512/44_satellite_antenna_radar_space_dish_space-128.png;rotation=135;flipV=0;flipH=1;" parent="1" vertex="1">
          <mxGeometry x="326.5" y="187" width="23" height="23" as="geometry" />
        </mxCell>
        <mxCell id="qRgVFrvN4o-EPye_5gww-20" value="" style="shape=image;imageAspect=0;aspect=fixed;verticalLabelPosition=bottom;verticalAlign=top;image=data:image/png,iVBORw0KGgoAAAANSUhEUgAAA0MAAAFOCAYAAABEwcYYAAAgAElEQVR4nOzde3DdaXng+e/j0mo0WkVRFMU4jnEc4zim03Qap9NpmqZpmkt6uAcIQ5LJZCY3ctksSbEMlWKpFDW1xaay1EwqxbKZScLmQi4kQCCQEOjpbjpNA06ncRpjjHGMMUZRFKFohaJSqVR694/n9+tzrJZtybr8zuX7qfrVueqct9tHR7/nfZ/neaOUgiRJUtMi4hbgzcALgKFtfvkp4I3Ae0spC9v82pK61J6mByBJklSZAz4FLO/Aa48CzwdeuAOvLalLGQxJkqROMQecABaB1W1+7WHgVuC5EbE/Iga2+fUldSG/CCRJUkcopcwA90bENDBSHdvpKHnu8wXgt4HZbX59SV3GlSFJktRp/hh4bIde+wDweuD2iNi/Q+8hqUu4MiRJkjrNSeDpO/Tag8A+4CUAETFTStmJGiVJXcCVIUmS1GlOA5Nsf91Qu1cAzwLGdvA9JHU4gyFJktRRSikXyK5y9+3g20yQAdF/2cH3kNThDIYkSVInugg8ssPvsQ+4JSJeHBH7dvi9JHUga4YkSVInmgQ+Te45NMDOTOCOAIfI+qG5iFhwQ1apvxgMSZKkjlNKOR8RS2T763Gy8cFOGAR+Cvgyuc/RqR16H0kdyDQ5SZLUqZaADwMzu/BePw78fESMRoTnR1Kf8JddkiR1qiXgfnZnc9R9wM3AS4GhXXg/SR3AYEiSJHWqZeAhYBpY2eH3GgIOAz8MjEeEpQRSHzAYkiRJHamUslJKOU8GRCd34S0ngHuA1wK37sL7SWqYwZAkSep0nwHO7OL7vRp4XkQc3cX3lNQAgyFJktTpzgCfJ2uIdsNR4BnAnRExYEMFqXf5yy1JkjpaKeUUmSY3B6zu0tveAfwcuReR50tSj/KXW5IkdYMp4IPsfCOF2jBwBPh14IZdek9Ju8xgSJIkdYNpss32bgVDe8gOc7cCt0fEsV16X0m7yLaRDWhr17laStmt5X5JkrrZDPAwsAAMsjvnMANk/dBzgIWIuFBK2a26JUm7wJWhZuyrjtGmByJJUjcopSyWUi4A9wEXdvntXw38OHCL+w9JvcVf6B0SEUNksLOXnFXaDzwZOFTdtwrMRcQvArOllIWGhipJUjf5GDmheGSX3/cG4M3Aj0bEbClleZffX9IOMBjaoqrd5gAZ4IxUxzi5cdtYdfkUWqtBB6vnrAKLwIuBT0bEmVLK4q7/B0iS1F0eBZ4JLJPpcrtljKp+qBrDhV18b0k7xGBo6/aQHWduIVeAngIcr65fKw1ukJxlehuZC31x54YpSVL3K6WciIgvAPPkhONuGayOnwR+A4MhqSdEKaXpMXSNiDgIHANuBL4XOEyu9oyRgWVdg9V+/VpWgVngFPAm4DFT5iRJurKIeAXwA8BrGnj7FbLF9/tKKb/bwPtL2kauDK0jIkbJ2aaDZPrbBPAksu5nojr2k0HQMNl683rtIVeQjgGvA369Spmb2cJrSpLUy84Bn6KZYGgAuAlYiYiHgEk7zEndy2CoEhGD5CrPMK3anqeRDQ8OkqtA4+xMB776vV8NfKYaz2OllPkdeC9JkrrdReAk2WZ7iN0/nzlMni/cCjwQEdNulSF1J9PkKhFxhKzduYvmW17fC/z3Usq7Gx6HJEkdKSIOAG8H7iAnK3fbClnv+yPAwzZBkrqT+wy1LAKPVZdNuwV4S0Q8LyL2Nz0YSZI60CLwUWCuofcfIIOwHwde2tAYJG2RwVDLAvBx4FJ1vUljZDe6HwBuj4jDDY9HkqROswicIFdnmtrzZ5CcwHxmRNxYbbchqYtYM1Sp6nM+HBE/QmvPoCbtAX6KVqe6880OR5KkzlE1LTgREVNkYLSbew61O0LuPfQl4HRDY5B0nQyGnuhtwDTwC00PpPJq4JYqN/q3SymzTQ9IkqQOcj/ZzOB5DY7hOHAz8EjVEXaqwbFI2gSXc5/oIvBZsn6oU+wFXgm8JiJubnowkiR1kEeBM00Pgjyn+kngeERsZcsNSbvIlaE1SikzEXEWeJjcR6ATjAC3URWJRsRMKeVSs0OSJKkjnAE+T6bKDTc8lnuqsZynMwI0SdfgytD6TgK/3vQg1nEPOev0uqYHIklSJyilTAMX6Ix6nXEyk+O1TQ9E0sYYDK1vgfxi/aPqspMcA34oIn7NlDlJkgA4B/wO0Akbnx4FXhAR/z4imtj/SNImGAyto9pFegn4c7LVdicZAvYBdwP3RMRtEdFUBx1JkjrBNJnevkBuhtqkIWA/8P3AwYhoOnVP0lUYDF1BFRD9BdlQoekv1rX2ADeS+xB9PzAWEdZ/SZL61RyZ4r5Ac3sOtRsDXg4covmtOiRdhSfQV1FKmYuIdwHzwE83PZ51HCf3N7gb+OGIuFjtuyBJUj85SDYa2ocTvZI2wS+MazsJ/DU569QJuchrDQGHyaYKd7scL0nqJ1Vdzm3Az9E55zXLZEe5SXJCVVKHcmXoGkopkxFxGjgF3EIGH51kkOxecw+ZzrcYESeApSrVT5KknlSliN8MPAu4o+HhtFsiW2vPmrEhdbZOmUHpdJPA26n2+elQh4EfI1uC76fzgjZJkrZNROwh63FeD/xQw8NZawG4v7qU1MEMhjZmFvggucv1VMNjuZphsoboD8m2nnsbHo8kSTtlL/Cr5MrQaMNjWWsOeDd5/iCpg5kmtwGllBVgISLuJwOOfQ0P6Ur2kGlzx2h1mbsXmDRlTpLUKyLiINlE6Hayc1snTe5Ok/VC03ReN1pJaxgMbc69wJPJL99O3dunTht4KTlrNg3MRoQ1RJKkrlfVCd0APLe67DSXgNPWCkndoZNmUjpeKeUkmQN8X9Nj2YAxsqnCh4C7yDoiSZK63S3AjwL/S9MDuYLHyHMFSV3AYGjzTgHvanoQm/Rm4FURcaTpgUiSdD0iYigi9gG/SAZEneoLZI2xpC5gmtzmTQEngAtkGlo37OtzG1nEuRQRi8BMKaUTduiWJGmjJsi/Z3eQW0p0ommyTne66YFI2hhXhjaplLJA5gN/kGy53S1eCPwycCeZQidJUjc5BryRnIjs1O0jTpABkaQuYTB0fZaAXwEeobP3HlprL/AO4A0RcXfTg5EkaSMi4j8ArwVuorOzWn6DTKeX1CU6+QulY5VSViNiBvg0cJDsLtcN9pCrQncDeyJiCfikXeYkSZ0oIgaBo8Czyf2EOrWT6wo5UXoa9xaSuorB0HUqpSxFxEngW8gc5m5aZTtO/kFZAs5GxIItQCVJnaRqoT1CdkS9jdxUvFMtkelxl6zJlbqLwdAWlFI+EhErwKvJFLRuCohurI5x4A+BB5sdjiRJl9lPdo379aYHsgGXyL0IzbSQukw3nbx3qovAfwMWmh7IdXox8KMR8eqmByJJEkBEDAPPA17X9Fg2aBr4GAZDUtcxGNq6GeCvyC/Cbkw1O0CmH7woIm6PiJGmByRJ6nt30KoT6nTL5DnAKWtwpe5jmtwWlVLmgIcj4iy559D+hod0PW4gg6Ix4PXAuWaHI0nqc79Ido4bbXogG7AATJVSzjQ9EEmb58rQ9nkrcF/Tg9iCUXIvordHxE80PRhJUv+JiGMR8atkl9Z9TY9ng94LfLTpQUi6PgZD2+cc8FngbNMD2YIBcpXoJRHxv0bEUNXNR5KkHRURh4FbyVqhYbrnHOXzwIWmByHp+niiu01KKVMRcYrcffpo0+PZggPkH6FDwAPApYiYMw9akrRTqv2EbgSeSXfUCUE2S1gGzgOTDY9F0nXqllmXbnEvmS7X7cbJXO3fAl5ABkeSJG27iNhDbmD+w8CrGh7OZiwDp4DzpZSZpgcj6foYDG2vZbK73HuBqYbHsh2OAW8A3hoRB0yZkyRtp2pFaC/wFjJFrhsaJtQWyVrhuaYHIun6eXK7jUopqxGxAHyITDMbBwYbHdTWjJAB0SCZE/2BiJgupXRjC3FJUuc5CBwnGybspbvOS5aAjwPzTQ9E0vVzZWj7LZErQ+fJWaNuN0zWQL2punQfIknSdrkJ+I/kBGK3pWQvAg9iMCR1NYOhbVZKWa32Hvpj4INNj2ebDJItTt8FvKnq+CNJ0nWLiB8jA6EXND2W63AauLeUMldKWWl6MJKun8HQznmUXD6/SHac6QWj5K7gvxgRRyLCVSJJ0qZU2zYcAV5Crgx147nIJeAzTQ9C0tZ14xdQVyilnAdOkkFRr8waDZGtT18B3AkcjIihZockSeoWVee4cbJG6HayZqgbXQQea3oQkrbOYGhnnQPeRnaZ6xVDwH6y7fargCPNDkeS1EXqSbVfIYOibvX5UspDTQ9C0tYZDO2sOXJ16AFySb3X/AzZdvseV4gkSRvwH4A3AhN0V+e4dg/Tm3/Tpb5kMLSDSikrpZQF4KNkd7les49sifpvgVsjYl/D45EkdaCI2BMRdwDPIleGujUQAniITJOT1AO6+cuom3wA+E6y+UCvBaD7yZm+aWBPRMzYWUeStMYg8IPkBNrehseyVfcDF5oehKTtEaWUpsfQFyLi5cArgX/X9Fh20CPAR0opb2p6IJKkzhARR4HbgN9peixbtESmvz+12kJDUg/otVWKTvYY8FdND2KHHQLuiYhfcC8iSVJE1J3jXtv0WLbBLHCC3ukQKwnT5HbTJbKZwnkytawXGw5MkHsRvRKYiQiAi6bNSVL/iYgBMi3uWWRA1O3mgL/FYEjqKa4M7ZJSyjIwCbyjuuxVg2Rt1C8DrwNGqn0lJEl9ogqERoA3kdsw9IJp4D4MhqSe4knq7poDfhs4Cyw0PJaddhB4OfBO4FhEjDY8HknS7jlA7iV0AxkUdbt5soPcI2Y7SL3FYGgXlVJWSymzwCeAU02PZ4cNkh2DbgF+hGy9bUAkST0uIg4Bt5JZAqP0xrnGGeBzpZSlpgciaXtZM9SMB4BvJAOFXv43GCJnB3+C/GM4FRFngNVSymqjI5MkbbsqPe5G4LnkqlCvOEk2QpLUY3phtqbrlFIeJDvLnQT6ISiYAP4T+d98GzlTKEnqPbcBPwn8VNMD2WafAh5tehCStp/BUHPOkfU0/RAM1caB/wy8tNp3QpLUAyJiOCL2Aa8Hbmp6PNtohfx7fYms+5XUY3o5RavTTQMPVpdjwHCzw9kVQ8BdwBQwGBHLZOvtfgoIJakX1TWid9IbDRNqK2S90Iz1QlJvcmWoIaWUuVLKKeCTZEDUT14D/BzZbtXPoCR1v5uAN5IZAIMNj2U7LQMfIzdcldSDopTS9Bj6WkQcB36J3tmHYaOWgSXg/wbeX0r5ZMPjkSRdh4j4CeAlwD30ViAEmcnw3cCsK0NSbzJNrnkXgL8DjpEdePrFYHU8D9gTEePkZnbLps1JUueLiGHgZuD55N+vXguEZsh9AWfJCTxJPchgqGGllNmIOAl8K9mGtN/Sxm4h88v3kn90JiNiyYBIkjpX1UJ7HPg3wO3kNgq9Zgo45YqQ1NsMhjrDfeTM04vJNtT99u9yDDhIziz+PLmXw2KjI5IkXc1BMgj635seyA46Q24JIamH9dsqRKdaAiaB99K/RZpDwFHgLcBPR8T+hscjSVpHlR53D/Dapseywy6STY4k9TCDoQ5QpYTNkTNQM2Qrz36zh9yM9Xbg+4AXRsRERAw1OyxJ0hp3As+it/YTWmsa+Eoppd+6vUp9x2CoQ1Sttj9AbuzWzyliI8Ad5Oasx8g9mCRJneOXgLvJCaxedZLM2JDU4wyGOs/bgQ80PYiGDZMNFf4S+KWIuKvZ4UiSIuKmiPgVsvHNRNPj2WHvBE40PQhJO6/fCvW7wWNk7cxd9GZ3no3aQ64S3QUMRcQq8EgppZ9XzSSpERFxGLiN3A5hiN6dTF0hszPOkmnrknqcwVCHKaVciIjTwCn6Oxiq3UTOQM4BMxFxsZSy0PCYJKlvRMQgcJysEzre8HB22jJZLzRZSplvejCSdl6UUpoeg9aIiH1kvcz9TY+lw/wB8J5SynubHogk9YNqP6FDwO+QDW563UUyVf3NpZS5pgcjaef16jJ3t5sl0+UeImeolJ4H/ExEvKXpgUhSr6tWhPYDvwwcbng4u2UG+B/klheS+oBpch2olLIcEXWr7RGymYDy/8NNwGhEfIpMJZwspfRjK3JJ2mmHgFvJDp/90NlzmZyMPE1/bnEh9SVXhjpUtffQHwHnmx5Lh9lLdjJ6S3XpPkSStDNuAX6UDIr64bt2EZgupZx1kk3qHwZDHayUcg54P/BnTY+lw+whi3jfCvxaRByp8tolSdsgIn6KDITubnosu+iD5N9cSX3EYKjzPUo2UpgHVhseSyfZA+wjUzheDxyOiJFmhyRJ3S0ihqs22t8P3EB/nSdcAM41PQhJu8vZ9M53jtzl+wK5/1A/pCps1Cj5/2Qf8DfAIxFxzr2IJGnzImIPuZXB7dUx2uyIdtUi8EWym5ykPtJPMz5dqZSyRH45/x65OqTLDZJ/vH8LeANwY7PDkaSuNUymIP8q2bynX6yQTRMulFLcaFXqMwZD3WEa+H0yZc5W21f2QuAdEfGCiLADnyRtzk8BryMnmPrp/GAFuBf/vkp9yTS5LlBKWQamIuKvsdX21YyTM5v/FhiOiMdKKXbjk6SrqBrQ3AY8k6wT6rdzgxXg4+QeQ5L6TL994XW7DwPfTOZy99Os3WYMAT9GfrYHIuJC1aZckrS+YeAHyRS5fpxsWyY3ObfeVOpDUUppegzahIh4OfCTZEqYrm4KOAH8aCllrunBSFKniYgbyE1Vf6PpsTTkHHCilPLDTQ9EUjNcXeg+Z4D3ND2ILjEG3Az8UkTcExETTQ9IkjpF9Z14B7mfUL+aIruRSupTpsl1n0vAw8AkWSNjq+0rGwIOAq8g00CIiIeBRXcXl9TPqjqh48CzydTrfjVJNidSj6haxO+hSpenNfE/uOapg6y/KLD2ebS9VrtVMsWy3drbi8ASsOx5R+cyTa4LRcQQ2fr0HuBIw8PpFgvAeeDngFOmzUnqV1UgNAJ8FDhGf7XRXuv/KqW8oelBaPtU50gjZHbIOK3g5sCap+7liYHPEPCkdV52gmpStc0KGUy3+zIZJNVOk9ujXPK8o3O5MtSdloFfIwMhg6GNGSY3aH0X8PsR8dFSygObfZGIGCG/XLdigVydWtri60jS9TgM/GJ1ufYEr598EvhC04PoJ1WgMkwrAK+v1407Bmn9jR1pe9430sqEqVu/71nzc/UmwfVqz0Db8+rb7dY7B25//trnrnf/2pWgtas/y9WxEhHT5H6RM8Dnq8spMuNnBpgtpSys8x7aYQZDXaiUshoRl4BHgP3ATQ0PqRvsoZU2dzcwVC2lP7jRpetq76I6rWQr/hI4S34JStKuiYjDZBvtO8kTzX6uHT5BZgxoHdUK4gD5t3OIDDjq4Hmwuq8OVgbWeWy47bHBtscGgX+95rmjbc+tX7N+X6r7Btuu10FL/dxBOr9sYD+ZNrdATkQsAHNkILQAfC0i5oHZ6nnz1VE/b8FgaWcYDHWpUspSRHycnEG5kf7+g7ZZt5GzSSPAyYhYqPZyupYjwEuAn93i+/8jGQgZDEnaNRExSDaVeQ65n1A/WyX3Fjrb9EB2QjXZB5efG2z2vjqgGWs76lWbUeAbgH3V7eE1j43RWrVpD3b6Wb3StZcMhtazQHY4nCbT675IniucByYjYopcfVqtjhW3D9k6a4a6XETcBfwh+ctlQLR5jwJvB/60lDK/3hPa8uvfR64MbfVL/ZXAh0sp7mkhaVdU32OvAn6e/m6YAJm2NAs8sxc35o6IYVpBzAStie8DZMAyRu5ZCPn3bJxWUDNU/YznFJ2n/tyeJAOmz5P7T056PrE1rgx1v0ngd4GfxpmX63EY+I/AUyPit4AL69TyjAMvJ1PstpJfv0pryXsjK1GStGXVyfEE2UL7SjPS/WSerBfquLrNakWnTj9rD2pGaaWJjbc9DvB1tFYdRml1PqtT0tpXeur76pSygSvcNhDqPAO0tgw5QrbFfxEwExEzwD+QK50XyIYNMw2Ns+sYDHW/GbIG5VV0R85spxmjtev6PwAfiYiL9SpRRIySJw8v4vIZtuuxSi5929pb0m7aD9wC3Ep/d46rLZB7C21bMNTWznmQy4MR2m7Xf5/r5w22PR8uD0zqYGeEbB7QHgxNVLfrYGiUVjC01QY/6lx1oLxvzf0L5IrRJNm97u+Bi1Vt+QJZf7RI1h0tbrAsoK8YDHW5Usos8EBEnCZ/SfY3PKRuVHeaexvwy+Sy84nqsaNkw4WXbsP7LJOb5loAKWk33QK8AU+Ua/PAg+QJ4napGwjUgUp7zUzd5vlbq9uD5AntXlq1OFSXTmhqs+pA+CBZEw1ZVzRDnnPUKXUnsHnTugyGesevkeleP9T0QLrcLwLPj4j7gHcCP0hu2rodlsnZyHVrkyRpu0XEW4DnkY12lN+/F8lurMtVU4n1UtH20Qpq6n1n6iYBdWvnAVoBTf1ze9Yc7fe1n3PVt9c+T9oO7Z/NW8jgaBmYrVLqzgKfJVPqLpZSHmlonB3BYKh3nCY/2OcxJ3wrxsjVoDp14XZas3tbtULO0FjoKGlHVXui3UR+hx3hiZtL9qtVMtD5WTK4+Z9otYweonVeNEKrm1p72+c6da29tfMwBjLqPHVaXbtR8pxmgjxXnCUDpHtodbm9QE4Y9E1Kv8FQjyilTFapcicxGNqqvdVxiPzi2K60hRXyS6bjinYl9Y6qc9wE8G/IgGi7JnR6wR4yneiN5CqP50HqJ/XeTePAsTWPnaqOj5EpdTMRUdccrQCrvdrG29baPSQi6g/3x5sei9Z1CXgauXFaX8y2SNp9EXGErHX8jabHIqlrnSMn2N9TXV7q1U1fnRHpLQvk0uYHya5BzgZ2jiWqHaTJNA1J2nZVetxLyf3MJOl67SfTQI+QtXazEXER+BQZKF0opUw3OL5tYzDUQ0opyxExC3yI3FytvahTzVoApl0RkrTD7gSeRabHSdL1qve5qlt5L5Ltu/eS9elfjIhz1X2z3byvkcFQ71kC/gh4DlnzYjDUGWbIeiFJ2klvIb/73U9I0nYaJleJjlS3l4HHgPeRreofamhcW2Yw1GNKKasRMU9+OFeB1zQ8JKVLwN82PQhJvSkibgF+gNyd3s5mknbaIPl9cwPwuqpl9zuB+0opjzY6sk0yGOpBVUD0KJnv+WKcIewEs2Q9lyRdU0QMkScbg7Q2VaxbPdebc9adLvcC3wEcx7/rknbPQHXU7elfBnxHRHyO3MvrsVLKXIPj2xC/NHtUKeVsRJwkU7OO4b910+bI1SFJfSIi1m7AWZ84rN1oc4AnbsJZ718zQrbBHSdb/X8DmcM/Rmui60j1uBNfkpowQH7/3EFOykwBfwqsRMQFYL6TO9HZWruHRcQB8oP53/GPZNP+T+CtpZT5pgciaedVe/2MkEHLaHW5n1Zg86TqqaPV7X3k3kBj1SFJ3W4W+CTwe8C7O3WfIlcLets0cB9wmtbMoXbfHPDPZCcWSV0iIgbJVLQRMmipLyeqy+Hqqd9IK5VtglZKW/tqUJ1KMth2m7b72y8lqReMAreRTV2+KyL+CjhRSumo8yG/dHtYKWUZmI6Ih8g/sgZDzdgDfAtwY9WGcskW29LuqFZo6kCjvQ6nrrcZoFWLM7jm8cG2x0aA/5nWas9I22uM0WpDO972WpLUzwZorYYvk9+LYxHxMNmOuyPOhQyG+sOfkCkYNzc9kD5Vz4wsAr9F9uTviC8AqQ/UgcwI2Wig/sM8UT3+9dXtA9XlWPXYXuzKJknb5WbgMHA78AbgJLkHY+OsGeoDVRHvvwd+FLir2dH0rdXqWAFOAP8D+H1yB+eOzKGVOklE1PU2o2TtTZ2Cthf4ZjKIGa8eG2u73W7PFa5f6zFJ0vZYJhss/BrwYCnlkYbHYzDULyLiOPA84FeaHouYIjvLnQE+Q7bcvkjOkiwZHKlXRUTdFrq93qa9XXTdQW2Y7JoGrc5qdVpa3Wq6fqx+/lDba7WnuEmSOscqsESe85wBPge8F5hpqsmUwVCfiIgxcmOs95MnHaZIdoYzZIOLU8BHyaYXC2RK3QKwanCkTlGtMsPlLaIH1twebLvOmueNkCm7dToawNeRwVGdwjZKq0lB/XN2V5Ok3lNvO/I28nzoUnXf4m6e+xgM9ZGImAB+GXg5mR+vzvMQuVHZp4CPAAtVIwypcVV3tWFa3dTGyCBmL9lRbRw4SKuhAGTwUwc4kiSt5yTZhvtdwKO72XHOYKiPVCcyR8k8zVtx76FOtEBrZWgOOEsuIX8SOE8uI3f8bs7qXBFRp5LVnc/a20W3b+xJ9ZzRtvsHeeLmoe2totvbQ6+3iiRJ0nrqjJhZ4EHgY2RN0Y5vWG+qVH9ZIU+oT5IzuTc2Oxyto66NqO0lZ9qfTNYa/XNELJDpdMvkl8dsdSyQS8uuJPW4amKjDjrWtoWuPz/rPbb2+tfRCozqmp32z2D983WNj38zJEk7of5bVHfyHAcORsSDZPrczE6tFrky1Ici4tXAy4Afanosui6rwKPkytEU2YThJPllMQlcVoBozVF3aavLuZr2wKVuA13X4Ty5es4QrRS2+rG92z1eSZJ2yDLw34C/Is9zJnfinMZgqE9FxD3AfwaOY/pKL1klV43OkYHRNPAVWqtHU/X1UspUU4Psd9VGoCO00s/GyNqaOlXtm6qn1u2h66Cm7sQmSVI/uQT8GdlsYaqUsrRdL2zKQ/+aIgv0b8ZgqJfsIU+Wj5D7rSyRqXTLtNLqloGliFgkV5EWgX+prte367zdWarOLtj2+zJtqWr1pp7tdTiQ3691oNPeLrpOVavT2Orr7e2hB6vXaG8R3X6/JEn9ZAy4m5wYPBMRfwd8mG04N3FlqE9FxD6yZuj3yA+Y+3H0p7rWaJ4MemZpBUX/SAbNM7SaOtRfOMtkDVr77drSVR5b+3Mr7ED78CrVbO0mmmsL+gfabtePtSrFBvIAACAASURBVAcb7b8Ta5sC1IHQEK1OaaNkUPSktueM0eq8Vqe0jWBQI0nS9TpDbmD/TjITZnYr9UQGQ30uIv6ETJU73PRY1FXqdLv6y2eaVpBzCfintsem2h6brH6uDpBmyaYP27bcDY9v7tkecNQrM5ABSh2kwOVtn59EKwg6QKtzWp2mVr/mvu0cryRJ2pS6LOCtwL2llNPX+0IGQ30uIm4HXg+8oumxqKvUwU37Cg/V7RWeuPrT/nNrb7evCs3RSvXbirWpn+0rQ3WAs2edx9a2hF77/LWPSZKkZqyQ2SsXyD0a/w9ylWhTXXX9g66zwCkyZe5ow2NR99ip745FMuAwbVOSJF3NAJmpUdfufhl4LCLOllLOb/RFLJzvc6WUGeDT5KaeUtPqJgKSJEkbMUpO6r8B+EHgeEQMRcTARrarME1OdX3FceCvmx6LJEmStAWLwL3AO4CT19pKxJUhQRazTwJ/QBa0S5IkSd1oELgF+HngdRHx4mp/v3VZMyRKKSsRMQt8iFwhGsXPhiRJkrrPALnX4gjZGXYcuBARl0opc2ufbJqcgMf3ZRkF/gS4FXe5lyRJUm/4f4A/LqU8sPYBgyE9rgqIXgG8EnhNw8ORJEmStsMC8CjwIPCr5B6HK2DNkNqUUlaBk2R3uasWm0mSJEldYgQ4BtwF/Dtgf11HZF2ILlNKORcRp4EzZO92SZIkqdvtJctARsjz3HlgzjQ5PUFE7CM3YP1Y02ORJEmSttmfAu8ppfyRK0NazxxwGjgBHAYmmh2OJEmStG1uB2Yj4jFrhvQEpZQlcr+he8n9hyRJkqResR+4EbjTYEjrqpopvBM42/RYJEmSpG12FPhxgyFdzQVyI9YPNjwOSZIkaTsNA/sNhnRFVf/1k8D9ZH/21WZHJEmSJG2LQWDUBgq6ljNkC8JLZDOFwWaHI0mSJG3ZHmDIlSFdVdVM4TzwW2RTBUmSJKnbLQEzBkPaiBng3eTq0GLDY5EkSZK2ymBIG1NKWS6lXAQeIZsqSJIkSd1sHjhrMKTN+HPg0aYHIUmSJG3RNPAJGyhoMz4CjJObVN3c8FgkSZKk6zELPAz8V1eGtGFVq+2zwAeaHoskSZJ0nR4BPltKWTEY0mZdAD5K5lmuNDsUSZIkacNWyWZgJ8jtYzAY0qaUUqbJaPoBMtdSkiRJ6gZLwGngQ1R18AZDuh4rwK+RKXOSJElSp1skz13fXF0uAdhAQRsWERPAaNuxCiwDg02OS5IkSbqKRXIl6IHqcr6UsgoGQ9qcg8Dh6ngyGRAtkB3mJEmSpE40T6bG/UFV8vE4gyFdUUT8b8D3kq20jzU8HEmSJGkzloA54PnApVLK3NonGAxpXRGxB/hGYD+wr+HhSJIkSZsxRabEvQ+YJFPlnsBgSFfzNWAIGGt6IJIkSdIGrAAzZPvsjwJ/VEpZuNKTDYa0rlLKakS8G3g6cLzp8UiSJEkbsAj8KfDrpZRrdj42GNLVXCSXGOdwdUiSJEmd7SHgr4DfJleHrslgSFdUSlmOiK+QQZHBkCRJkjrNMjlxfx/wCeBEKWVyoz9sMKRruQCcAW5qeBySJElSuxUyEDoL/ApwYb2OcVdjMKRreYRcFXp10wORJEmS2nwYeH8p5Tev9wUMhnQtU8B5MuoeBfY0OxxJkiT1sSVgFvhN4FPkqtB1MxjSVZVSFiJiiqwbOkq22pYkSZJ22xRwiSzh+BPgYillfisvaDCkjZgHHgQOYDAkSZKkZnwE+HPgI1sNgmoGQ3qCiBgkg547gZuBp5F7DY00OS5JkiT1nXlyJehdwJ+RKXKL2/XiBkN9LiKGgAlgHNhXXZ8Avgk4Ahys7t+LnxdJkiTtjlXgHPAw8DfkHkJTpZTl7XwTT277SETsIf/N62MPGfgcrY6nAcfIAOhAQ8OUJElS/1oh9w5aBE4Av0PuHbRtq0HtDIb6RLUCNEoGPXcB30mu/BzHDnGSJEnqDGfI2qD3lFIe3uk3MxjqMdXqzzC54nOAXOn5dmB/dd9I2+UIBkKSJElq1iLZJe6DwP3kti5Tu/HGBkNdLCLqdLdhsqanDnDqGp8nk8HQkeq+sWZGKkmSJK3rNBkInQbeDzyyUylx6zEY6m6DZOODQ8BLyBS4w8BNDY5JkiRJ2ohV4J3kFi6nSykLuz0Ag6EuEhE3kYHPIeBF1eU4meo2VF36bypJkqRO9gHgo2Rt0CWyYcJqEwPxxLkDRURd13OgOvYCT6KV6jZOrgKN4yaokiRJ6mwLZB3QeTId7tPAWeBiKWWpyYEZDDWs6vLWXvszQAY9h4Cnkylvx8j0N0mSJKkbrNJqkX2e3C/o48CHgYVSSiMrQWsZDDXvOBnoPBV4AXADGRRJkiRJ3WoOeAz4EPBfSykrDY9nXQZDuyQi9pHtrY+Qqz7fVl0fI1PdRjDtTZIkSd1rBrhIrv78TXV9hobqgTbCYGibVfv8jJMbnI5Ul/vJup9vJgOhg2Qt0KFGBilJkiRt3TIwTzZBmKouvwg8AJwqpcw3N7SNMRjafgNkjU+92ekx4B6yDbYkSZLUKxaBM+T+QH8BTJZS5pod0uYYDG1BRNT7+hwFvoes9zlKtrhuP/z/LEmSpG43Q3aDO0nWAp0GZoEVYKVTmiJshifpGxARA2Rtz1Ey3W0CeDKZ6jZBpsXV9480NExJkiRpO82TdT8XyY5wnwOmyZS488Bs062xt8pgaI0q8BmqjmEyvW2YrPt5Jq2anxvIeiDT3zZmtTr8zEmSJHWWZXJ1Z6k6lqtjilwF+izwCFkHtNzUIHeCJ6ZPtJ+s87mZDH4OV/eNNzmoHrBI/nJNND0QSZIkXWaSyzdEPU9uiHq+0VHtgr4NhiJimAxw2psdHCbT3UbajiFc/dmoJXI59Sz5SzQJfIn8xVoi66cOAs8mN5O9AYNMSZKk3bBI7v1znjxXmwS+Ut2eAxaq59QT2D21AnQlfREMRcQgWfMzRp587yNXKCbI/X4OkfU/B8gAaE8jA+0ui+QvzTz5C3SJLKCbJQOgSTKndBo4X0pZqdqOn69+5nPAU8ig6AAZhI7t8n+DJElSN6vT2ZbI5gZ1ENMe0NTtr5fIc7cv09r/Z5o8Z1vu1E1Rd1qUUpoew46LiDFy9ecG4OnAXeQKxWiDw+pmq+QvzzkyuPkM8BHgUilldjMvFBGvAp4P3EH++0iSJGljZslJ6VmypmcG+CpZ6zNNNWldSjnX2Ag7XE8FQxExRK4u3AU8FThSHcdprfa46rM58+Qv02ngL8ll1bqjCABbbaNYrRgNkgHqq4FnkP9m+7byupIkSV1ohsy4uVBd/hMZ8MyQqzh1Vs6F9X64G9tbN6lrg6G2mp99ZMBzEHgSmW61nwyKRmmlxhkEXd0quXR6htZswpfIX7x6xuFSdX1hu3cUrgKiEbJuq05jfDa5WlTfJ0mS1I0u0qrHqYOZ+vYcuZqzQCvlbaHtWGq7f7G+XkpZ2N3/hN7UFcFQW7vr4eoYIYOefWQQ9HQyDW4/divbiPa2ie3FcvUS6xfJwOc02T9+sYlBRsQLgFuB7yL3eBol/+3rz4EkSdJuWrnKsbzm9mrbcZpWrfVXycnm+eq+usZ6rqlzrn7WLcHQGHAj2e766WQK1c2NDqq71d3ezgGfAE4BF7Z7tWe7VOmPB4C7ge8h//2PNzooSZLUj6ZpZczUQcwsmco2SauGp86sWTTA6WwdFwxFxDFand3aV3zqlaH2S13dPK0Vnotk2tuj5C9qvTr0eLeRTs0xrVLoBmitCo0At5ErRjeQgZGpkJIk6VpWaAUz9epNHbjM0wps5ttu16lqi20/s3ZVaJVcGVpdc99qp55fKTUWDFXtrofJepD22p5vJ1PgJqrHDmDL5Y2ol1vrhgfT1X1f4fL2iefJPNOu/cWsgqND1XGQ1h5RB6rbB5samyRJ2hWrtCZ262Oh7bG1++W0314AvkYGLNBKV6vreeo21Itt15dLKX2x706/2bVgqDqBrWfuB8gAaC/wYlons8fIIKgv9j/agvYc1Pr2KTLQuQD8LbkCNNkvS7MRcRy4E3gO8ALys9Z+SJKkzrW6yesr5ERvvapT73kIGfz8Q/VYnbY2Bcx0akmAmrMrwdA6+/zcTc7iu8/P5k2RAc8jwMfJ7m8XgPluXu3ZLlXQPUqmzt0GfD9ZX2aALUlSZ6lXXuDyWpu69uar1fX2gGeWrMNZ2vXRqidtezBUdX47TNb51ClMR8gUuNHqci+ZIje4rW/ee85Xx6Xq+CKtVoz1bMg82erapdtKlYI5Tq4yHiA70X0r+bm8i6w5MjiSJOn6rdJKL6tTzKguF8jzFWilm80C/9J2u66/qc9fltuOx9tHc3kH3PpYcQJY22VLwVA1Cz9EnlxOVNdHyc5v30bWdNxAnoyaqrS+9l/29n7yi2TXt8/RSn8760zI5kXEPlppmC8iW7KP0apTG8TPpySpP9QF/sttt+uW0HWAscTl7aLX/lx9vV6tqc9fIGtx6sYD0AqOZmgFTQvk6o4BjRq31WBohFwBOk6mI9Wbn7rXz8bVaW/ngU+TtT/nSinnmhxUL4uIG4GbgGcALycDIvctkiT1g2UyUJmiFQBNkcFKvbrzFVppa5PVfUuYpqYetKlgqDqJPEiu+Dy/uqxn1uvUI2fZ11cvGZ8l63y+RHZ5O0FrRqZeBl4x7W3nVGl0g7RWNes9rJ5DBvZ2L5QkdZplWvU17W2fZ2it3kwC/x+toKZejZknz0EeP8/g8kZMV7tdd1yj/barOuoV6wZDVd1Pe+3PRHV8e9v1G2ilxqmlbudYz6jMkpub1oWAU7RmYGZLKReaGaZqEbGfrC06BnwHrRbdx8i0T1eNJElbVafB1we06mPqFLOVttvt9TN1etq/VM9bm15fByxzXP76dW3Ocv28Ukp7cCP1vcuCoSoIGqa1seVdwPeSJ4VHyeDHVZ+W9hmUOod2mdzP5xyZ/vYF4CPAdCllbp3XUAepUj+PArcDLyNXPyfIlaR6ksDfAUnqH2tbO69e4b4rPbe+Pk1rY8+Z6v46a+Qr1e0lWilsdXOCOi3NIEbaAY8HQxExStZRvLG6dOPKa6v71p8F3k8GQBdd7ekdEbGX/F24C/g+MlDyd0OS+kMdxEAr62OquqxT1v6xuj1La5+beg+cOTKQ6Ys9/6RuFKUUIuKFwLPJfVmOYmrQWivk7MyjZD7uFNnmup7lWajuX8QvvZ5S1RcNk6tDe8lOdPvIFdM6MNrf2AAlSVczz+VpaO1tn2dprd7MVvd/jdbeN3WaWp1yttp2u667gctbPi/RWg2yDbTUBQYi4jDwLOCFZCF5v6vbPi7SWs6ul6n/lpz1mSK7v83aTaW3VY0slsnPwrmIGCabhkyR6aPfRnZRnCAbL4ziZsKStN3q4OOyvWa4fP+Z+nZd/L9C6294PUlZBzx1MFQ/t17pqYOleWDZZkZS7xsAXgHcjYFQ7SKtzU4/ATxGpr4tXPWn1BeqVb9FqlSIiBgiGy48D/geshvdzY0NUJJ6U/tqTp2mNkvW2kyveWyB3Izcv9uSrinIFoxDZIF4P6lzex8lU97OA4+QX6jtM1ArwKpL3LqSqvFIe7vuw2RQ9DQy9fQGcuJBkvrd2pbQ7UHMV9c81r5B5+omD1s/S9qQIJeLh+jtk7X2WaQpMgj6R/LL9hKXFz4u+wWq6xURe8h0uf3VcZBs172frDU6RqbZ2ZJeUrdbodVcoK6XqVPN6qO9nfRX257X/lh9fXHN7WVMVZO0wwL4e7LeoRfqHOrc3/rLdqU6TpHpb18ETpOrQTPW+2g3RES9h9GNwHPJGqMxMiAaxnbdkprTPvm30nbZvsqy9nb9M4tkN1VoBUKTwD+TKz4z1TEPzJdSLu7Yf4UkXacAfp2sGbqh4bFsh0lyb59HgY+RX9IX3d9HnaRtL6O7ge8n0+r2NTooSf2q3rQTLk9bq7Mm6s3C68fqIGfJCUVJvWAAeDs5u7NK9zRRWCX39DlNBj9fBs7QWnKfp9Xy2i9rdZol8vM7CzxIrhLtJdvb30w2ZDA4krQTpqrjIvBX5CRiPWHYXi+7xPrd29o3GZekrjdQSjkTEffT2iDsJjJlrlNqiOqZqPYAZ54Mgj5PfqFPAufcnVndoPqc1kXEF6q9jMaq218EnkwGQ4er++uW3ZK0VXvIv++DwAiZqjtHtV0EueLj31JJfSNKKXklYpQMhN5G1jd0ysnXo2TNz2eAk2TQc6HREUk7qG2j1x8j23XfRG+ksUrqPFNkSvk7qDYWtyW1pH7yeDAEj7cIHiLrGY6TJ2Lj5Mz0BJnKM0rOJm2neXJV6gy5r88XyZWfT7JOAafd3tQPqqConsEdBW4lmy88BbiF7FQ33tgAJfWC+m9snfp2GngX8JvVvmqS1NMuC4YevzNinAx89pPBUX2M0NpLZQj4V7Q6Yo2uuV4/F1pL8fXtaVpdZk6RBZp1e+t687S5Usrkdv7HSt2oatc9SP4+1mlz+8jf0W8ig6IDtNp5b/dkhaT+MUv+Xf5j4ARwykYJknrZusHQNX8oT85GaAU5o7RWjerr30Qr+JkgT+CGq9vnyFqfLwH3ArMuy0ubExFD5O9WnUb3VDLFdR+tTWCHyUmKPdi+W9LGPQS8D/gLsp5oxawMSb3ouoIhSZ2pmqg4TKbTHQOeQ3aoG8cVI0mbM0mmrv88WUtk2pyknmMwJPWYasWoTlmtV2Tr1NfDwDeQK7hj1Y+MtN0eo7XqK6m/LZNp6/cCby2lnGp4PJK07QyGpD5QbfQ6StYWjdJKb6W6Xt/+elqpdaO00u3qAKu+Ttv1Oh2vbvggqXeskBuwvgF4sJQy3fB4JGlbeeIi9YGqJm+BTHvZkIg4QmvFaG91fCOtDnbj1TFB1inVNYOSescAcAh4Ovn9YTAkqacYDElaVynlHDxeh3Qlax+ra5bqjWInqvtHycDpW6r76pb9+9mZdv2SttdPAfsi4nQpZa7pwUjSdjEYknRV1+gg9YTHImKSbM+7NqWu3vG+PeVuhCem4v1rLq93ak/pW1sLVbf8v17za24vkGlBtUWybqJ+7trH2lsO12M5RAZ8w0i9Y4Rs439HRHy4lLJyrR+QpG5gMCRpW5VS5nlikHFV1erTMK3mDSNc3q6/Ts0bJuua2jeAHqPVOrzekwlamzXX11fbrtdm19yeoxX8QAZHdQetr7Y9NtB2/eu5vAlFvZWA1EuGyJXcZwIfaXgskrRtbKAgqetFRHtTiL3V3ctksAMZ0NRBzcJWZ7UjYgy4kWxb/nzgLqyXUu+bJfccerZttiX1CoMhSV2vWlnaQ67Y1Cve7StD9W02Gwi1rVrdRO7d9DTgblope/UKlZvaqtetkJMMTyE3S1++xvMlqeOZJiep61V1TWuDn+tSBT8DZH1E3UXvCPBt1X0HycBI6jf1ZMMh8ndtptHRSNI2MBiSJC5bXaobO9wKfDdwC3Bng0OTOs0NZH2dwZCkrmcwJKmvRcQQ2aDhTuC5wPHqkLS+7yVrh840PRBJ2iqDIUl9pQp+9pINEI4D31zd3lcd41f+aUnk7839TQ9CkraDwZCknlYFP3Xb7vHqOEjObt9Btgs2AJI27jCwNyKGSilL13y2JHUwgyFJvW4fWeNwHHgZ2QzBfYCk6zcOPIlcUb3Y8FgkaUsMhiT1jKoJwgGy29sN5OrPjeSq0GDbpaStOQrchsGQpC5nMCSpa0XEABngHKJV9/OdZEB0gEzn2YffddJ2a9/gWJK6licIkrpKtfozSH5/DZNBz53A04GbcQ8gaTeMYLqppB5gMCSpa0REPRv9clopcMcaHZTUnw4AT2t6EJK0VQZDkjpWFfzsI7u+fRcZCI2THeDGyFQdSbvPlSFJPcFgSFLHiIgRMsAZIwOfCXIG+jlkCtwEmRonqXl7mh6AJG2VwZCkTnKYTH17BvAKMigy+JE6zwIw2/QgJGmrDIYkNSYijpPBz3cBd9Na+RnEIKgbLALnyH+3UTJ1ajNmgPnqmCZPrutNPH8I26B3MoMhST3BYEjSrqjaYO8HDlaXB4CnVtf3k5uhDmPqTSebByaB02TwMg18Gfh2clPb27h6QLQAXGr72QvA18gAaAFYJdMjn74jo9d2WgTmmh6EJG2VwZCkHVG1wB4Ahmit9NxCdoG7iTx5nsDgp1OtAsvVsQSskIHMKeDPgTPApVLKQkTcCPwzraB2gMv/XevXugicAD4LnK1eY7l6zmD186NkuqSfi862AHy16UFI0lYZDEnaKaNkCtxLyCDoRtyksZvMACeBR4C/BB4rpcxf4bkXgHcDnwR+ldwEd6Lt8Wky+HkTGRDNllIW6gcjYhC4FfhxcnXpyDb+d2hnXCJXCCWpqxkMSdoWEXEAOFodT6WVDjdBNkLYbD2Jds8KcJ5c9TkHfJ4MWubI1LgZMi3qSpaAqeq5vwE8m1z5u6F6/CzwfvLkebF6PwAiYi8Z/LyJ3DPKgLnzzQGfIVf5JKmrGQxJui4RMU7u+bOXXAU6RAZBR8mT230YAHWqJbL4fZIMYObIIOizZFB0Dpgupaxu5MVKKSvASkQsAQ+RaXGLZOrbGBlYnSylXFZwX32GjgG306o38u9S57tApkjOND0QSdoq/+hIul5HyNSm55M1QOO4CWq3mCfT395HrgadvUoK3IZVwdOZiJglA6plcn+oL5An0GsdIT8/L8UNPLvJCTKQlqSuF6WUpscgqYNVjRBGyMDnZuC7gXvIAveBtsOC9840Q6apPQb8bXV5iQyIloHVamVn21SfmXpVaIJcJZotpcxVjw+QDTV+Afg+8rPl5Fz3+F7gvCtDknqBf3wkXaY6UR0g090O0mqBfYBMiduHs/id7BIZAE2TqzNfIOt56mMaWCilLF/xFbaolLIaEctk+l3dia79/YbIerLvri79W9QdFsn0yktkNzlJ6nr+AZL6XDWLv4ecqR8mV4HGgDuAp5Fd4G5tbIC6mro2Z4lWC+yTZI3OF8jubqdLKUtXfIUdUqXMLdHaRBV4/PM2TNaY2TChu8yTTTDmmvhMSdJOMBiSNEjW+9wJPJfsAna80RFpo+aBB8n0t1Nkk4LzzQ7pmobIFccXkatCw80OR5twAXgnl6/ySVJXMxiS+kxEDJGz8UeA55DpcIfI5ge2wO5cdYvrSeA+4ItkutIkmbK0SHekLo2QqZY34N+gbjJPpl3eR65ISlJP8A+R1OOqDS3rFtgHyIL2fcC3kpuhHsJUpU5Ut7+uazQukfU+/0Smv10CZrowXWkPuTo0yvpNN5bJE2/IwGlol8alq5sELpZSppseiCRtJ4MhqfcNkbPwdwAvIVeCbIHd+ebJ1LdHgL8EHtuO9tddYJFWG+4DZOCu5p0h69AkqafYWlvqIVVx+mFyxefpZAB0E63Z9bpZgjrLMhn41PU/j5Kbn9Ytr1c3ugFqN4iI/cBdwMvImqEVcuXhc2QgdI5crfwZ4DWNDFK1VXJF8ieBB0op3ZCKKUkb5sqQ1MWqFLhRsivXwep4GnkiOUGrQN0AqHMskqs+0+SeP5PAP9Cq/5mmO9PfNmOO3LizDvCWyXqnqeqx+epyqrrfOrbmLADvJYPUXv5MSupTBkNSF2nbzHKUDHLGyADoe8lUuGPVoc6xQp5ELpIn+DPkSf5F4H5yFeRiP824l1IWgXMRsUj+/1msHlpq3wA2Ir5A/v+5efdHKfJzOw38OTC53ZvzSlInMBiSussouerzUjIAuhGDn043R6v25/3kvj+zzQ6pM5RSJq/xlL8g//+9axeGoye6ADxUSvlw0wORpJ1iMCR1sIgYJwvIjwPPIOuBDtBqgW2nrc6yShaan6ouP02uANWtr+cw1WgzJskg8kGy9m2s2eH0lQ+QK0IfaXogkrSTDIakDhIRI2StzwEy8BkHnkR2gLuBXBUab2yAWmuZquUwrTbYXyCbH1ysLmd6qfnBbiqlLEfENPAe8vdimEwT1c6ZIwP59wEnSikXGx6PJO0ogyGpYVUdEGSTgwmyPuL5wCto1Qapc6y2Xc4DJ6laXwNnSilzTQ2sR80Dvws8l2wIYjC0M+rP9SXgT4B3V7VdktTTbK0tNSgibiPbYH8P8AJy1ceTvc40C5wl07Y+Ts6an292SP0jIu4GXgn8bNNj6UHLwIeBd5Kf62vVcklSz3BlSNolETFApr4dBQ4B3w4cIQOgCXIVyN/JznGBTHWrjy9Qtb2ujunGRtafzpANKOaA/4S/K9thgVzRrJt7nCP//0pS3/CPibRDquBnmAx2Rsji75vIzVCPkp3gxnAPoE6wSp4ELlbHApn+9nnyBPEccM60oeaUUiarVtxTwD1kXd04/h27HstkQH8a+GtyM9UHmx2SJDXDNDlph1Sd4G4AXkZ2g7uRbICgzrMI3Et2gfsMOVN+3sYHnSkibgdeC7yQXFXV5lwC/gz4L+T+QXY4lNS3DIakbRIR+8j0t7uB7yY3Q91LqwX2IM5id4J58mTwJPB35KrPBTLtbYmcNV8qpSw3NUBdXUQMky3njwI/Qq4U2WXx6laBB8h22SfIToezwIpBv6R+5omZdJ0iYj85Kz1BBkH7gW8hV4AOkSdndoJr3gyZAjdHBj6XgK+QAdAlMu1qxtnx7lFKWYyIS2Q64xD5b3iEnIA4ihMPkMHPEvn5v0R+3j8KPApcKKXMNzc0SeocrgxJG1TVAA2QNT4DwK1k4PNU4Hm0VoHUrBXyRLC+fIw8ETwPfAjbX/eciDhAtqR/NvBSshZvmNbv6h6eWJvXRK3e6prL9R5b7/bVxrq65np9u70u6BNkXdCJjQ9VkvqDwZC0QRFxDxkAfQ/ZDnuMnJVW51gB/oLsPPZZ4GFyFnyl0VFpV0XEXnKl9hjZsOQIrdVbyJWj3U6rWyVTMWfJGrXaArlqeWnN879c/cwAueK8nmXgH6rri9VrXyJTZzQKdAAADTBJREFUQWdLKWtfU5K0Rr+nEUhPUK0ADZIzzUeAp5CNEPaRJ1Bj1eF+QM2qT/5OkSs/XyZPBM+RJ5jz5My49RD9Z54MFGbJlZERcqWonrzYQ+v3d4Rsaz9a3f5X1fXNdHqcJz9zX6tuL5IpanV3wvozWNektX8mV6r71nYqXKqet4crT7rUqXD19fp16teUJF2DK0PqexFRnxiN0drzZ4JcATpKqw22mrVAK8iZIwOdSeDTZAB0EbhUSllobITqOhFRt70fq+4aJIOhcTYeDM3R+nxSXdaB0KINCiSpcxkMqe9FxBAZ/NwBPJ9sg31zo4PSek6Tq0B/A3wSOFtKceNTSZJ03UyTU9+p2vLuJ1PfXlRdHiZnhOsW2GrefWT763rfnznaWl+TqUCSJEnXzWBIPa9a+Rknu70dJQOfbyFrgNprgdSMZTKtqE51q4vMP0emwU1W9y+bbiRJkraTwZB6TlsNUH2Mk40QjgHfR3aCM/hpzgqtAu8lsgZomtwQ8uNk6+vzjY1OkiT1DYMh9ZQqEBoFXgA8g6wDuhk/653kAln783GyDfak+/5IkqQmeIKorhYRg2Tzg5vJFLinVJcTtNpgN7G5onL1Z54Mfs5Vx9+RXeDmqmOaVmtgSZKkXWUwpK5S7QE0RKvOZ4LcTPG7yFS4w9Vt7b469W2KrPmZqa7/PXC+Oh4ja39sfiBJkhpnMKRuM0IGQi8m0+BuJFeC1Lx6k8u/IFPgTpVSTjU7JEmSpCszGFJHi4gJ4CBwO/AccvXnINkYYQA/w026SKa+fQx4ELhErgYtk6tEdn6TJEkdzRPJq6hOxCFrTobJVYlhMk2r3q18Bni0lGLdwzaIiDEy9W0/cBPZAns/GQAdIlPjRpsaX59aBRbJlLcpWkHQP5I1PxfJuqCFUspiQ2OUJEnatJ4NhqquYnto/TfW19vvg9bqwtrnQ56AQ65C1Cfpo8A3kKlakHUQCxFxDlhyH5TNqWqA6gBzGDhA1v18J/BCMhCyDfbuWqXV9rreA2gaOEvu/fMY8BD5eV9uapCSJElbFaWUpsewIyJihDyJrgOaserYB3wzGeBQPV4/tpcMeDYTJNZ1Eq8k90eZ3fLg+0hEHAbuAp5NtsMep/Vvo2bMkCs9J4C/AU6WUk42OiJJkqQd0FPBUETsJTfWfAutFZ+h6uH6dr0RZ91ueXDNYwNsrhXzKlkf8RBwP3BfKeXhLf2H9KiqDfYxMv3tqdX1euVntLrc7P9/bd0FcoXzLNn6+hIwSbbFXiDT3xYaG50kSdIO6bU0uTq9Z5nWXjM7vcqwp3qPW6rLr4+IZeBsKWV+h9+7o1XBzxiZ+la3wf5OMgg6XB1jV3wB7YQlMuVtjgx2pshg6Eu0AqLpfv/sSpKk/tBTK0Pw+An4rcCbq8vdPtleAP5f4B2llNO7/N4dJSLGgRuAl5HB4o1kQKRmrJKB0EP8/+3dX2jdZx3H8fdTSglhhFBKGaWMOrohVTad25hDp/hndIrinXohCP65Ea+8FBGvhteCXg2U4XQXOoRtik4dY2yzlnVqiV1ss9JlMYYYQgghhJDHi8+TJpNs/ZOc80ty3i84nDQlOU+bXpxvv9/v54Exsv/zHOn8GAAiSZIGzr4rhuBqeMJtZAH/e2QXqJ+jV6vABXLfyqPAwiAEK5RSjpOO3OeAB9hIfzuw6aH+WSCpb68B59rzWVIUrQFrg/DvUpIk6Z3sy2IIrgYo3Al8CvgGKYj6Gck8T96IvgA8BkzVWuf7+Po913a0jpG7f06RGOyjZPztGIkiH3rHb6CdNkv2fS6TuOs32/NM+72ZWutMZ6eTJEnaZfbbztBVtdbFUsoF8ibwfcA95E17v96cj5KggBPAv4CzpZQ9vUdUShkhe1FDpLA82R73AR8hXaDhzg44WFbJ3T/L7bFIiqALJAThPDBp8SNJkvTO9m1naLN2kec3ga+QvZUuPAH8vNb6bEevv22llM+Q8IM7gC+Qgs/OTzemSfT1eeAfpAM55+6PJEnS9RuUYuggWdw/BXwf+AD9HZmD3EV0GfgF8Mta62SfX/+GlVIeJn9nd5DRtxNsXJC6eRdIvbVMkt7OAG+Q2OuzpBu0TDpEi8CqO0CSJEnXb9+OyW1Wa10Fpkspy8CTJHr7FNlr6ZfDpIj4LLBUSnkVGNsNY3OtWBwiF9JujsG+jxRAx9nYAbL46b1FMt45QYroORJ9PUY6QrO11ovdHU+SJGl/GIhiaF0LMPhxi9+GvPnv55v7YeDj7XV/B/yklLLY5f/mt+S9Q6T4uR/4NNmvuqurMw2ozf8GZkny25OkAJrw0lNJkqSdNxBjclsppbwfOA38kG66Hcskce7L5ILWqX69cEvau40UPF9sz7f36/X1NjNsRF7/Fvj7bugWSpIkDYJBLoZGyfjXt4CHyNhcP62Scb0XgD8CL9VaX+rFC5VShtkYgbuLpOsdJeNwJ0hX6JZevLbeZpVEX4+T/bE3SPT1LBux2PO11pWuDihJkjRIBmpMbrM2MjdfSvkV6QwN0d/uyMH2OE3G54ZLKXPkzfHydkbn2g7QLe37jpAi6AQJQniQJOqNbufwuqZVNuKv59gIObhALkAdJyNwU4YeSJIkdWNgO0OblVJOku7QYx0eYwF4nqTdjddal27mm7QdoBHgXpKa91FScB16t6/TjpsnYQfjwFMkAntP3zMlSZK031gMAS1Q4QjwCeA75CLRfo+NrZHOwUXgaeCxWuuVa31R6wINk4LnbnIP0CnS6Rpiozuk3poj6W/nydjjRTL6tkIK3WVgxS6QJEnS7jGwY3Kb1VpXSimzwEtknOxjZJxsuI/HWO/ovJe8cT5QSnkcmN7cTSilrBc4t5M9oKPt+YMkFGE9Blu9NUPu+1l/ngLeIns/58nP7aa6e5IkSeoPi6GmLa1PlFJ+Sjo0J0lx0e+kuWFSiD0AXAJeafcjQX5eo6TYeRj4MCmeTvb5jINmrT1WNz1fIAlw50gRfaXdZyVJkqQ9wjG5LZRSRkjB8WdSfAx1eJznSPTyf4BHgDtJ90f9sUC6P2O06GtyWe58p6eSJEnStlkMbaHtEA0BXyL38NxPd9HT02QZf5kUaOspceqN9dG3aeBlMvY2TYqi9Z/FgvHXkiRJe59jcltob3RXSilPk7t4DpDRtS4S2W5tD/XGLIm9Xo/AHicF0b9Jut9UrXWus9NJkiSpZ+wMXUO7sPRB4HGSOGcBub88SwqgfwJ/AiZrrcvv/iWSJEnaDyyGrqHd2zNMwhQeJzs7XY3M6eYtkS7Q88DrJAZ7jIzErbTHMrBm/LUkSdJgsBi6Dq0gOgR8HfgkSXpzdG13myPFzyQZe5smo2/jpACaIfHXdoEkSZIGlCNf16F1CpZb7PY8SZg7QnaJ+h29ra2tkMjr1fbxBIm//gtJgJuotU51dzxJkiTtNnaGblC79PQI8BS532e02xOpeY50fV4ne0DTtdbFbo8kSZKk3cxi6Aa1kbkh4CHgayRc4Vinhxosy+RS3FfI+NubwEXgCom/XqTtAXkJqiRJkt6NY3I3qI3MLZVSXgRuJ4XRYbq9mHU/WyIFziwpdmZJsfMyKYamSDG0ZPCBJEmSboTF0E2qtS6WUn5NdojuBY7i/lAvzJDxtz+Q3Z+LtdaJbo8kSZKk/cAxuW1oI3NHgXuAn5FdIm3PK8BrwDly788iGY27GpBgB0iSJEk7wc7QNtRa10op86Rj8XvgfhKqoGtbJUXOGBvx12+1j6fbryfJ7o/FjyRJknacxdA2tXtqJkspz5C7iG7FS1m3sh57vcRGCMI8KSL/BozVWse6O54kSZIGjcXQDqm1PlFKmSNv8r/a8XF2o2kSdPAM8CJwudY63e2RJEmSNMgshnbWGdLteBA4Dgx3e5xOrJG/g0ngMhkhPAfMsZEGN0+6Q5IkSVJnDFDYYaWUEeC7wOdJ9Pahbk/Uc2sk3GCKFDyzpAha3/8ZB86T6Gvv/ZEkSdKuYWdo5y0Cj5JC6Fb2fzG0Sjo9zwN/BV6ttZ7p9ESSJEnSdbAz1COllBPAaeAHJHJ7v9xBNEM6P78BXiV7QFOkKFoD1kx/kyRJ0l5gMdQjpZRbSHfoIeDbpEs00umhbtwCGX2bJuNul8gY3CwpgmaA+VrrYmcnlCRJkm6SxVAPlVIOkhCFHwF3ASdI7PYBdl+naI2Ny02XSQT2FbL3MwG8TC5DnW9x4pIkSdKeZjHUBy1U4TTwSHs+zO7bJVoiF6CeJ/f+nK21vtjtkSRJkqTesRjqg9YhGgFG2+MB4EMkgvtOuukSzQAXSPHzOun+XCZF0RKw6PibJEmS9jPT5PqgRUrPtQellCUyfnYJeA8wRMbpRknYwtCmz0GKpfXPrRdOS1u81CoZc/v/Xy/y9vG3WRJ6cIns/lwBpmutc9v+w0qSJEl7hJ2hXaCUcgQ4BpwC7iZhC4fb5yAjdUdJoXSQ7PfMbPGtFtpj3TIpwCbb839JGMIZUvxsVVBJkiRJA+F/lz26JU9z/C8AAAAASUVORK5CYII=;rotation=5;" parent="1" vertex="1">
          <mxGeometry x="561" y="157" width="120" height="48" as="geometry" />
        </mxCell>
        <mxCell id="qRgVFrvN4o-EPye_5gww-21" value="" style="shape=image;html=1;verticalAlign=top;verticalLabelPosition=bottom;labelBackgroundColor=#ffffff;imageAspect=0;aspect=fixed;image=https://cdn2.iconfinder.com/data/icons/web-development-and-studio/512/44_satellite_antenna_radar_space_dish_space-128.png;rotation=135;flipV=0;flipH=1;" parent="1" vertex="1">
          <mxGeometry x="614.5" y="187" width="23" height="23" as="geometry" />
        </mxCell>
        <mxCell id="qRgVFrvN4o-EPye_5gww-25" value="&lt;i&gt;&lt;font face=&quot;Times New Roman&quot;&gt;t&lt;/font&gt;&lt;/i&gt;" style="text;html=1;strokeColor=none;fillColor=none;align=center;verticalAlign=middle;whiteSpace=wrap;rounded=0;opacity=30;" parent="1" vertex="1">
          <mxGeometry x="670" y="149" width="41" height="39" as="geometry" />
        </mxCell>
        <mxCell id="qRgVFrvN4o-EPye_5gww-126" value="d&lt;sub&gt;t0&lt;/sub&gt;" style="text;html=1;strokeColor=none;fillColor=none;align=center;verticalAlign=middle;whiteSpace=wrap;rounded=0;" parent="1" vertex="1">
          <mxGeometry x="249" y="368.59000000000003" width="60" height="30" as="geometry" />
        </mxCell>
        <mxCell id="qRgVFrvN4o-EPye_5gww-127" value="d&lt;sub&gt;t1&lt;/sub&gt;" style="text;html=1;strokeColor=none;fillColor=none;align=center;verticalAlign=middle;whiteSpace=wrap;rounded=0;" parent="1" vertex="1">
          <mxGeometry x="319" y="347.07" width="60" height="30" as="geometry" />
        </mxCell>
        <mxCell id="qRgVFrvN4o-EPye_5gww-128" value="d&lt;sub&gt;t2&lt;br&gt;&lt;/sub&gt;" style="text;html=1;strokeColor=none;fillColor=none;align=center;verticalAlign=middle;whiteSpace=wrap;rounded=0;" parent="1" vertex="1">
          <mxGeometry x="393" y="368.59" width="60" height="30" as="geometry" />
        </mxCell>
        <mxCell id="qRgVFrvN4o-EPye_5gww-129" value="d&lt;sub&gt;t1&lt;/sub&gt; &amp;lt; d&lt;sub&gt;t0&lt;/sub&gt; &amp;lt; d&lt;sub&gt;t2&lt;br&gt;&lt;/sub&gt;" style="text;html=1;strokeColor=default;fillColor=none;align=center;verticalAlign=middle;whiteSpace=wrap;rounded=0;" parent="1" vertex="1">
          <mxGeometry x="299" y="460" width="80" height="30" as="geometry" />
        </mxCell>
        <mxCell id="h0CZxOei0WRWpdQTVpDq-1" value="t&lt;sub&gt;0&lt;/sub&gt;" style="text;html=1;strokeColor=none;fillColor=none;align=center;verticalAlign=middle;whiteSpace=wrap;rounded=0;" parent="1" vertex="1">
          <mxGeometry x="150" y="149" width="60" height="30" as="geometry" />
        </mxCell>
        <mxCell id="h0CZxOei0WRWpdQTVpDq-2" value="t&lt;sub&gt;1&lt;/sub&gt;" style="text;html=1;strokeColor=none;fillColor=none;align=center;verticalAlign=middle;whiteSpace=wrap;rounded=0;" parent="1" vertex="1">
          <mxGeometry x="309" y="149" width="60" height="30" as="geometry" />
        </mxCell>
        <mxCell id="h0CZxOei0WRWpdQTVpDq-3" value="t&lt;sub&gt;2&lt;/sub&gt;" style="text;html=1;strokeColor=none;fillColor=none;align=center;verticalAlign=middle;whiteSpace=wrap;rounded=0;" parent="1" vertex="1">
          <mxGeometry x="589" y="149" width="60" height="30" as="geometry" />
        </mxCell>
        <mxCell id="h0CZxOei0WRWpdQTVpDq-4" value="" style="curved=1;endArrow=none;html=1;rounded=0;endFill=0;" parent="1" edge="1">
          <mxGeometry width="50" height="50" relative="1" as="geometry">
            <mxPoint x="279" y="444" as="sourcePoint" />
            <mxPoint x="399" y="444" as="targetPoint" />
            <Array as="points">
              <mxPoint x="339" y="434" />
            </Array>
          </mxGeometry>
        </mxCell>
        <mxCell id="h0CZxOei0WRWpdQTVpDq-5" value="" style="endArrow=baseDash;html=1;rounded=0;endFill=0;startArrow=baseDash;startFill=0;" parent="1" edge="1">
          <mxGeometry width="50" height="50" relative="1" as="geometry">
            <mxPoint x="338.71" y="377" as="sourcePoint" />
            <mxPoint x="339" y="210" as="targetPoint" />
          </mxGeometry>
        </mxCell>
        <mxCell id="h0CZxOei0WRWpdQTVpDq-6" value="" style="endArrow=baseDash;html=1;rounded=0;startArrow=baseDash;startFill=0;endFill=0;" parent="1" edge="1">
          <mxGeometry width="50" height="50" relative="1" as="geometry">
            <mxPoint x="360" y="420" as="sourcePoint" />
            <mxPoint x="630" y="210" as="targetPoint" />
          </mxGeometry>
        </mxCell>
        <mxCell id="h0CZxOei0WRWpdQTVpDq-7" value="" style="endArrow=baseDash;html=1;rounded=0;startArrow=baseDash;startFill=0;endFill=0;" parent="1" edge="1">
          <mxGeometry width="50" height="50" relative="1" as="geometry">
            <mxPoint x="321" y="420" as="sourcePoint" />
            <mxPoint x="180" y="210" as="targetPoint" />
          </mxGeometry>
        </mxCell>
        <mxCell id="h0CZxOei0WRWpdQTVpDq-45" value="" style="verticalLabelPosition=bottom;verticalAlign=top;html=1;shape=mxgraph.basic.cone2;dx=0.5;dy=1;rotation=0;opacity=50;fillColor=#f5f5f5;fontColor=#333333;strokeColor=#666666;dashed=1;" parent="1" vertex="1">
          <mxGeometry x="289" y="210" width="100" height="108" as="geometry" />
        </mxCell>
        <mxCell id="6e_uV3Ur4GkOCkvZ04L6-1" value="" style="verticalLabelPosition=bottom;verticalAlign=top;html=1;shape=mxgraph.basic.cone2;dx=0.5;dy=1;rotation=-30;opacity=50;fillColor=#f5f5f5;fontColor=#333333;strokeColor=#666666;dashed=1;" vertex="1" parent="1">
          <mxGeometry x="158" y="203" width="100" height="108" as="geometry" />
        </mxCell>
        <mxCell id="6e_uV3Ur4GkOCkvZ04L6-3" value="" style="verticalLabelPosition=bottom;verticalAlign=top;html=1;shape=mxgraph.basic.cone2;dx=0.5;dy=1;rotation=50;opacity=50;fillColor=#f5f5f5;fontColor=#333333;strokeColor=#666666;dashed=1;" vertex="1" parent="1">
          <mxGeometry x="537.5" y="190.99999999999997" width="100" height="108" as="geometry" />
        </mxCell>
      </root>
    </mxGraphModel>
  </diagram>
</mxfile>
